G04 #@! TF.GenerationSoftware,KiCad,Pcbnew,(5.1.4)-1*
G04 #@! TF.CreationDate,2021-03-02T11:58:10-08:00*
G04 #@! TF.ProjectId,NMB-75,4e4d422d-3735-42e6-9b69-6361645f7063,rev?*
G04 #@! TF.SameCoordinates,Original*
G04 #@! TF.FileFunction,Copper,L1,Top*
G04 #@! TF.FilePolarity,Positive*
%FSLAX46Y46*%
G04 Gerber Fmt 4.6, Leading zero omitted, Abs format (unit mm)*
G04 Created by KiCad (PCBNEW (5.1.4)-1) date 2021-03-02 11:58:10*
%MOMM*%
%LPD*%
G04 APERTURE LIST*
%ADD10O,1.700000X2.700000*%
%ADD11C,2.250000*%
%ADD12C,2.250000*%
%ADD13C,0.800000*%
%ADD14C,0.254000*%
%ADD15C,0.381000*%
G04 APERTURE END LIST*
D10*
X93251000Y-83511000D03*
X100551000Y-83511000D03*
X100551000Y-88011000D03*
X93251000Y-88011000D03*
D11*
X154218000Y-106775750D03*
X153563001Y-107505750D03*
D12*
X152908000Y-108235750D02*
X154218002Y-106775750D01*
D11*
X159258000Y-105695750D03*
X159238000Y-105985750D03*
D12*
X159218000Y-106275750D02*
X159258000Y-105695750D01*
D11*
X135168000Y-106775750D03*
X134513001Y-107505750D03*
D12*
X133858000Y-108235750D02*
X135168002Y-106775750D01*
D11*
X140208000Y-105695750D03*
X140188000Y-105985750D03*
D12*
X140168000Y-106275750D02*
X140208000Y-105695750D01*
D11*
X154218000Y-87725750D03*
X153563001Y-88455750D03*
D12*
X152908000Y-89185750D02*
X154218002Y-87725750D01*
D11*
X159258000Y-86645750D03*
X159238000Y-86935750D03*
D12*
X159218000Y-87225750D02*
X159258000Y-86645750D01*
D11*
X135168000Y-87725750D03*
X134513001Y-88455750D03*
D12*
X133858000Y-89185750D02*
X135168002Y-87725750D01*
D11*
X140208000Y-86645750D03*
X140188000Y-86935750D03*
D12*
X140168000Y-87225750D02*
X140208000Y-86645750D01*
D13*
X104013000Y-93472000D03*
X113169823Y-93648958D03*
X102616000Y-108585000D03*
X104775000Y-103124000D03*
X109347000Y-114935000D03*
X120650000Y-114808000D03*
X126619000Y-100838000D03*
X105537000Y-106426000D03*
X105918000Y-102108000D03*
X106299000Y-94869000D03*
X97536000Y-112395000D03*
X99441000Y-97790000D03*
D14*
X104013000Y-93472000D02*
X112992865Y-93472000D01*
X112992865Y-93472000D02*
X113169823Y-93648958D01*
X102616000Y-108585000D02*
X102616000Y-105283000D01*
X102616000Y-105283000D02*
X104775000Y-103124000D01*
D15*
X109347000Y-114935000D02*
X120523000Y-114935000D01*
X120523000Y-114935000D02*
X120650000Y-114808000D01*
X126492000Y-114808000D02*
X120650000Y-114808000D01*
X126619000Y-100838000D02*
X126619000Y-114935000D01*
X126619000Y-114935000D02*
X126492000Y-114808000D01*
X105537000Y-111125000D02*
X109347000Y-114935000D01*
X105537000Y-106426000D02*
X105537000Y-111125000D01*
X105936999Y-102126999D02*
X105918000Y-102108000D01*
X105537000Y-106426000D02*
X105936999Y-106026001D01*
X105936999Y-106026001D02*
X105936999Y-102126999D01*
X106299000Y-101727000D02*
X105918000Y-102108000D01*
X106299000Y-94869000D02*
X106299000Y-101727000D01*
D14*
X133858000Y-108235750D02*
X133858000Y-89185750D01*
X152908000Y-89185750D02*
X152908000Y-94615000D01*
X152908000Y-108235750D02*
X152908000Y-94615000D01*
X152908000Y-94615000D02*
X152908000Y-94500661D01*
X97935999Y-111995001D02*
X97935999Y-99168001D01*
X97536000Y-112395000D02*
X97935999Y-111995001D01*
X97935999Y-99168001D02*
X99314000Y-97790000D01*
X99314000Y-97790000D02*
X99441000Y-97790000D01*
M02*
