G04 #@! TF.GenerationSoftware,KiCad,Pcbnew,(5.1.4)-1*
G04 #@! TF.CreationDate,2021-03-02T11:58:11-08:00*
G04 #@! TF.ProjectId,NMB-75,4e4d422d-3735-42e6-9b69-6361645f7063,rev?*
G04 #@! TF.SameCoordinates,Original*
G04 #@! TF.FileFunction,Soldermask,Bot*
G04 #@! TF.FilePolarity,Negative*
%FSLAX46Y46*%
G04 Gerber Fmt 4.6, Leading zero omitted, Abs format (unit mm)*
G04 Created by KiCad (PCBNEW (5.1.4)-1) date 2021-03-02 11:58:11*
%MOMM*%
%LPD*%
G04 APERTURE LIST*
%ADD10C,0.100000*%
G04 APERTURE END LIST*
D10*
G36*
X98412000Y-118021000D02*
G01*
X96510000Y-118021000D01*
X96510000Y-116819000D01*
X98412000Y-116819000D01*
X98412000Y-118021000D01*
X98412000Y-118021000D01*
G37*
G36*
X92212000Y-118021000D02*
G01*
X90310000Y-118021000D01*
X90310000Y-116819000D01*
X92212000Y-116819000D01*
X92212000Y-118021000D01*
X92212000Y-118021000D01*
G37*
G36*
X92212000Y-114321000D02*
G01*
X90310000Y-114321000D01*
X90310000Y-113119000D01*
X92212000Y-113119000D01*
X92212000Y-114321000D01*
X92212000Y-114321000D01*
G37*
G36*
X98412000Y-114321000D02*
G01*
X96510000Y-114321000D01*
X96510000Y-113119000D01*
X98412000Y-113119000D01*
X98412000Y-114321000D01*
X98412000Y-114321000D01*
G37*
G36*
X124847604Y-112364347D02*
G01*
X124884144Y-112375432D01*
X124917821Y-112393433D01*
X124947341Y-112417659D01*
X124971567Y-112447179D01*
X124989568Y-112480856D01*
X125000653Y-112517396D01*
X125005000Y-112561538D01*
X125005000Y-113510462D01*
X125000653Y-113554604D01*
X124989568Y-113591144D01*
X124971567Y-113624821D01*
X124947341Y-113654341D01*
X124917821Y-113678567D01*
X124884144Y-113696568D01*
X124847604Y-113707653D01*
X124803462Y-113712000D01*
X123354538Y-113712000D01*
X123310396Y-113707653D01*
X123273856Y-113696568D01*
X123240179Y-113678567D01*
X123210659Y-113654341D01*
X123186433Y-113624821D01*
X123168432Y-113591144D01*
X123157347Y-113554604D01*
X123153000Y-113510462D01*
X123153000Y-112561538D01*
X123157347Y-112517396D01*
X123168432Y-112480856D01*
X123186433Y-112447179D01*
X123210659Y-112417659D01*
X123240179Y-112393433D01*
X123273856Y-112375432D01*
X123310396Y-112364347D01*
X123354538Y-112360000D01*
X124803462Y-112360000D01*
X124847604Y-112364347D01*
X124847604Y-112364347D01*
G37*
G36*
X118735968Y-111807315D02*
G01*
X118774638Y-111819046D01*
X118810277Y-111838096D01*
X118841517Y-111863733D01*
X118867154Y-111894973D01*
X118886204Y-111930612D01*
X118897935Y-111969282D01*
X118902500Y-112015638D01*
X118902500Y-113091862D01*
X118897935Y-113138218D01*
X118886204Y-113176888D01*
X118867154Y-113212527D01*
X118841517Y-113243767D01*
X118810277Y-113269404D01*
X118774638Y-113288454D01*
X118735968Y-113300185D01*
X118689612Y-113304750D01*
X118038388Y-113304750D01*
X117992032Y-113300185D01*
X117953362Y-113288454D01*
X117917723Y-113269404D01*
X117886483Y-113243767D01*
X117860846Y-113212527D01*
X117841796Y-113176888D01*
X117830065Y-113138218D01*
X117825500Y-113091862D01*
X117825500Y-112015638D01*
X117830065Y-111969282D01*
X117841796Y-111930612D01*
X117860846Y-111894973D01*
X117886483Y-111863733D01*
X117917723Y-111838096D01*
X117953362Y-111819046D01*
X117992032Y-111807315D01*
X118038388Y-111802750D01*
X118689612Y-111802750D01*
X118735968Y-111807315D01*
X118735968Y-111807315D01*
G37*
G36*
X111593968Y-111807315D02*
G01*
X111632638Y-111819046D01*
X111668277Y-111838096D01*
X111699517Y-111863733D01*
X111725154Y-111894973D01*
X111744204Y-111930612D01*
X111755935Y-111969282D01*
X111760500Y-112015638D01*
X111760500Y-113091862D01*
X111755935Y-113138218D01*
X111744204Y-113176888D01*
X111725154Y-113212527D01*
X111699517Y-113243767D01*
X111668277Y-113269404D01*
X111632638Y-113288454D01*
X111593968Y-113300185D01*
X111547612Y-113304750D01*
X110896388Y-113304750D01*
X110850032Y-113300185D01*
X110811362Y-113288454D01*
X110775723Y-113269404D01*
X110744483Y-113243767D01*
X110718846Y-113212527D01*
X110699796Y-113176888D01*
X110688065Y-113138218D01*
X110683500Y-113091862D01*
X110683500Y-112015638D01*
X110688065Y-111969282D01*
X110699796Y-111930612D01*
X110718846Y-111894973D01*
X110744483Y-111863733D01*
X110775723Y-111838096D01*
X110811362Y-111819046D01*
X110850032Y-111807315D01*
X110896388Y-111802750D01*
X111547612Y-111802750D01*
X111593968Y-111807315D01*
X111593968Y-111807315D01*
G37*
G36*
X109718968Y-111807315D02*
G01*
X109757638Y-111819046D01*
X109793277Y-111838096D01*
X109824517Y-111863733D01*
X109850154Y-111894973D01*
X109869204Y-111930612D01*
X109880935Y-111969282D01*
X109885500Y-112015638D01*
X109885500Y-113091862D01*
X109880935Y-113138218D01*
X109869204Y-113176888D01*
X109850154Y-113212527D01*
X109824517Y-113243767D01*
X109793277Y-113269404D01*
X109757638Y-113288454D01*
X109718968Y-113300185D01*
X109672612Y-113304750D01*
X109021388Y-113304750D01*
X108975032Y-113300185D01*
X108936362Y-113288454D01*
X108900723Y-113269404D01*
X108869483Y-113243767D01*
X108843846Y-113212527D01*
X108824796Y-113176888D01*
X108813065Y-113138218D01*
X108808500Y-113091862D01*
X108808500Y-112015638D01*
X108813065Y-111969282D01*
X108824796Y-111930612D01*
X108843846Y-111894973D01*
X108869483Y-111863733D01*
X108900723Y-111838096D01*
X108936362Y-111819046D01*
X108975032Y-111807315D01*
X109021388Y-111802750D01*
X109672612Y-111802750D01*
X109718968Y-111807315D01*
X109718968Y-111807315D01*
G37*
G36*
X116860968Y-111807315D02*
G01*
X116899638Y-111819046D01*
X116935277Y-111838096D01*
X116966517Y-111863733D01*
X116992154Y-111894973D01*
X117011204Y-111930612D01*
X117022935Y-111969282D01*
X117027500Y-112015638D01*
X117027500Y-113091862D01*
X117022935Y-113138218D01*
X117011204Y-113176888D01*
X116992154Y-113212527D01*
X116966517Y-113243767D01*
X116935277Y-113269404D01*
X116899638Y-113288454D01*
X116860968Y-113300185D01*
X116814612Y-113304750D01*
X116163388Y-113304750D01*
X116117032Y-113300185D01*
X116078362Y-113288454D01*
X116042723Y-113269404D01*
X116011483Y-113243767D01*
X115985846Y-113212527D01*
X115966796Y-113176888D01*
X115955065Y-113138218D01*
X115950500Y-113091862D01*
X115950500Y-112015638D01*
X115955065Y-111969282D01*
X115966796Y-111930612D01*
X115985846Y-111894973D01*
X116011483Y-111863733D01*
X116042723Y-111838096D01*
X116078362Y-111819046D01*
X116117032Y-111807315D01*
X116163388Y-111802750D01*
X116814612Y-111802750D01*
X116860968Y-111807315D01*
X116860968Y-111807315D01*
G37*
G36*
X165624000Y-113179750D02*
G01*
X164322000Y-113179750D01*
X164322000Y-112177750D01*
X165624000Y-112177750D01*
X165624000Y-113179750D01*
X165624000Y-113179750D01*
G37*
G36*
X146320000Y-113053750D02*
G01*
X145018000Y-113053750D01*
X145018000Y-112051750D01*
X146320000Y-112051750D01*
X146320000Y-113053750D01*
X146320000Y-113053750D01*
G37*
G36*
X138264474Y-108809434D02*
G01*
X138429403Y-108877750D01*
X138636623Y-108963583D01*
X138971548Y-109187373D01*
X139256377Y-109472202D01*
X139480167Y-109807127D01*
X139512562Y-109885336D01*
X139634316Y-110179276D01*
X139712900Y-110574344D01*
X139712900Y-110977156D01*
X139634316Y-111372224D01*
X139583451Y-111495022D01*
X139480167Y-111744373D01*
X139256377Y-112079298D01*
X138971548Y-112364127D01*
X138636623Y-112587917D01*
X138534059Y-112630400D01*
X138264474Y-112742066D01*
X137869406Y-112820650D01*
X137466594Y-112820650D01*
X137071526Y-112742066D01*
X136801941Y-112630400D01*
X136699377Y-112587917D01*
X136364452Y-112364127D01*
X136079623Y-112079298D01*
X135855833Y-111744373D01*
X135752549Y-111495022D01*
X135701684Y-111372224D01*
X135623100Y-110977156D01*
X135623100Y-110574344D01*
X135701684Y-110179276D01*
X135823438Y-109885336D01*
X135855833Y-109807127D01*
X136079623Y-109472202D01*
X136364452Y-109187373D01*
X136699377Y-108963583D01*
X136906597Y-108877750D01*
X137071526Y-108809434D01*
X137466594Y-108730850D01*
X137869406Y-108730850D01*
X138264474Y-108809434D01*
X138264474Y-108809434D01*
G37*
G36*
X157314474Y-108809434D02*
G01*
X157479403Y-108877750D01*
X157686623Y-108963583D01*
X158021548Y-109187373D01*
X158306377Y-109472202D01*
X158530167Y-109807127D01*
X158562562Y-109885336D01*
X158684316Y-110179276D01*
X158762900Y-110574344D01*
X158762900Y-110977156D01*
X158684316Y-111372224D01*
X158633451Y-111495022D01*
X158530167Y-111744373D01*
X158306377Y-112079298D01*
X158021548Y-112364127D01*
X157686623Y-112587917D01*
X157584059Y-112630400D01*
X157314474Y-112742066D01*
X156919406Y-112820650D01*
X156516594Y-112820650D01*
X156121526Y-112742066D01*
X155851941Y-112630400D01*
X155749377Y-112587917D01*
X155414452Y-112364127D01*
X155129623Y-112079298D01*
X154905833Y-111744373D01*
X154802549Y-111495022D01*
X154751684Y-111372224D01*
X154673100Y-110977156D01*
X154673100Y-110574344D01*
X154751684Y-110179276D01*
X154873438Y-109885336D01*
X154905833Y-109807127D01*
X155129623Y-109472202D01*
X155414452Y-109187373D01*
X155749377Y-108963583D01*
X155956597Y-108877750D01*
X156121526Y-108809434D01*
X156516594Y-108730850D01*
X156919406Y-108730850D01*
X157314474Y-108809434D01*
X157314474Y-108809434D01*
G37*
G36*
X103200468Y-111069065D02*
G01*
X103239138Y-111080796D01*
X103274777Y-111099846D01*
X103306017Y-111125483D01*
X103331654Y-111156723D01*
X103350704Y-111192362D01*
X103362435Y-111231032D01*
X103367000Y-111277388D01*
X103367000Y-111928612D01*
X103362435Y-111974968D01*
X103350704Y-112013638D01*
X103331654Y-112049277D01*
X103306017Y-112080517D01*
X103274777Y-112106154D01*
X103239138Y-112125204D01*
X103200468Y-112136935D01*
X103154112Y-112141500D01*
X102077888Y-112141500D01*
X102031532Y-112136935D01*
X101992862Y-112125204D01*
X101957223Y-112106154D01*
X101925983Y-112080517D01*
X101900346Y-112049277D01*
X101881296Y-112013638D01*
X101869565Y-111974968D01*
X101865000Y-111928612D01*
X101865000Y-111277388D01*
X101869565Y-111231032D01*
X101881296Y-111192362D01*
X101900346Y-111156723D01*
X101925983Y-111125483D01*
X101957223Y-111099846D01*
X101992862Y-111080796D01*
X102031532Y-111069065D01*
X102077888Y-111064500D01*
X103154112Y-111064500D01*
X103200468Y-111069065D01*
X103200468Y-111069065D01*
G37*
G36*
X151908104Y-109885335D02*
G01*
X152076626Y-109955139D01*
X152228291Y-110056478D01*
X152357272Y-110185459D01*
X152458611Y-110337124D01*
X152528415Y-110505646D01*
X152564000Y-110684547D01*
X152564000Y-110866953D01*
X152528415Y-111045854D01*
X152458611Y-111214376D01*
X152357272Y-111366041D01*
X152228291Y-111495022D01*
X152076626Y-111596361D01*
X151908104Y-111666165D01*
X151729203Y-111701750D01*
X151546797Y-111701750D01*
X151367896Y-111666165D01*
X151199374Y-111596361D01*
X151047709Y-111495022D01*
X150918728Y-111366041D01*
X150817389Y-111214376D01*
X150747585Y-111045854D01*
X150712000Y-110866953D01*
X150712000Y-110684547D01*
X150747585Y-110505646D01*
X150817389Y-110337124D01*
X150918728Y-110185459D01*
X151047709Y-110056478D01*
X151199374Y-109955139D01*
X151367896Y-109885335D01*
X151546797Y-109849750D01*
X151729203Y-109849750D01*
X151908104Y-109885335D01*
X151908104Y-109885335D01*
G37*
G36*
X132858104Y-109885335D02*
G01*
X133026626Y-109955139D01*
X133178291Y-110056478D01*
X133307272Y-110185459D01*
X133408611Y-110337124D01*
X133478415Y-110505646D01*
X133514000Y-110684547D01*
X133514000Y-110866953D01*
X133478415Y-111045854D01*
X133408611Y-111214376D01*
X133307272Y-111366041D01*
X133178291Y-111495022D01*
X133026626Y-111596361D01*
X132858104Y-111666165D01*
X132679203Y-111701750D01*
X132496797Y-111701750D01*
X132317896Y-111666165D01*
X132149374Y-111596361D01*
X131997709Y-111495022D01*
X131868728Y-111366041D01*
X131767389Y-111214376D01*
X131697585Y-111045854D01*
X131662000Y-110866953D01*
X131662000Y-110684547D01*
X131697585Y-110505646D01*
X131767389Y-110337124D01*
X131868728Y-110185459D01*
X131997709Y-110056478D01*
X132149374Y-109955139D01*
X132317896Y-109885335D01*
X132496797Y-109849750D01*
X132679203Y-109849750D01*
X132858104Y-109885335D01*
X132858104Y-109885335D01*
G37*
G36*
X143018104Y-109885335D02*
G01*
X143186626Y-109955139D01*
X143338291Y-110056478D01*
X143467272Y-110185459D01*
X143568611Y-110337124D01*
X143638415Y-110505646D01*
X143674000Y-110684547D01*
X143674000Y-110866953D01*
X143638415Y-111045854D01*
X143568611Y-111214376D01*
X143467272Y-111366041D01*
X143338291Y-111495022D01*
X143186626Y-111596361D01*
X143018104Y-111666165D01*
X142839203Y-111701750D01*
X142656797Y-111701750D01*
X142477896Y-111666165D01*
X142309374Y-111596361D01*
X142157709Y-111495022D01*
X142028728Y-111366041D01*
X141927389Y-111214376D01*
X141857585Y-111045854D01*
X141822000Y-110866953D01*
X141822000Y-110684547D01*
X141857585Y-110505646D01*
X141927389Y-110337124D01*
X142028728Y-110185459D01*
X142157709Y-110056478D01*
X142309374Y-109955139D01*
X142477896Y-109885335D01*
X142656797Y-109849750D01*
X142839203Y-109849750D01*
X143018104Y-109885335D01*
X143018104Y-109885335D01*
G37*
G36*
X162068104Y-109885335D02*
G01*
X162236626Y-109955139D01*
X162388291Y-110056478D01*
X162517272Y-110185459D01*
X162618611Y-110337124D01*
X162688415Y-110505646D01*
X162724000Y-110684547D01*
X162724000Y-110866953D01*
X162688415Y-111045854D01*
X162618611Y-111214376D01*
X162517272Y-111366041D01*
X162388291Y-111495022D01*
X162236626Y-111596361D01*
X162068104Y-111666165D01*
X161889203Y-111701750D01*
X161706797Y-111701750D01*
X161527896Y-111666165D01*
X161359374Y-111596361D01*
X161207709Y-111495022D01*
X161078728Y-111366041D01*
X160977389Y-111214376D01*
X160907585Y-111045854D01*
X160872000Y-110866953D01*
X160872000Y-110684547D01*
X160907585Y-110505646D01*
X160977389Y-110337124D01*
X161078728Y-110185459D01*
X161207709Y-110056478D01*
X161359374Y-109955139D01*
X161527896Y-109885335D01*
X161706797Y-109849750D01*
X161889203Y-109849750D01*
X162068104Y-109885335D01*
X162068104Y-109885335D01*
G37*
G36*
X124847604Y-109564347D02*
G01*
X124884144Y-109575432D01*
X124917821Y-109593433D01*
X124947341Y-109617659D01*
X124971567Y-109647179D01*
X124989568Y-109680856D01*
X125000653Y-109717396D01*
X125005000Y-109761538D01*
X125005000Y-110710462D01*
X125000653Y-110754604D01*
X124989568Y-110791144D01*
X124971567Y-110824821D01*
X124947341Y-110854341D01*
X124917821Y-110878567D01*
X124884144Y-110896568D01*
X124847604Y-110907653D01*
X124803462Y-110912000D01*
X123354538Y-110912000D01*
X123310396Y-110907653D01*
X123273856Y-110896568D01*
X123240179Y-110878567D01*
X123210659Y-110854341D01*
X123186433Y-110824821D01*
X123168432Y-110791144D01*
X123157347Y-110754604D01*
X123153000Y-110710462D01*
X123153000Y-109761538D01*
X123157347Y-109717396D01*
X123168432Y-109680856D01*
X123186433Y-109647179D01*
X123210659Y-109617659D01*
X123240179Y-109593433D01*
X123273856Y-109575432D01*
X123310396Y-109564347D01*
X123354538Y-109560000D01*
X124803462Y-109560000D01*
X124847604Y-109564347D01*
X124847604Y-109564347D01*
G37*
G36*
X103200468Y-109194065D02*
G01*
X103239138Y-109205796D01*
X103274777Y-109224846D01*
X103306017Y-109250483D01*
X103331654Y-109281723D01*
X103350704Y-109317362D01*
X103362435Y-109356032D01*
X103367000Y-109402388D01*
X103367000Y-110053612D01*
X103362435Y-110099968D01*
X103350704Y-110138638D01*
X103331654Y-110174277D01*
X103306017Y-110205517D01*
X103274777Y-110231154D01*
X103239138Y-110250204D01*
X103200468Y-110261935D01*
X103154112Y-110266500D01*
X102077888Y-110266500D01*
X102031532Y-110261935D01*
X101992862Y-110250204D01*
X101957223Y-110231154D01*
X101925983Y-110205517D01*
X101900346Y-110174277D01*
X101881296Y-110138638D01*
X101869565Y-110099968D01*
X101865000Y-110053612D01*
X101865000Y-109402388D01*
X101869565Y-109356032D01*
X101881296Y-109317362D01*
X101900346Y-109281723D01*
X101925983Y-109250483D01*
X101957223Y-109224846D01*
X101992862Y-109205796D01*
X102031532Y-109194065D01*
X102077888Y-109189500D01*
X103154112Y-109189500D01*
X103200468Y-109194065D01*
X103200468Y-109194065D01*
G37*
G36*
X165624000Y-109879750D02*
G01*
X164322000Y-109879750D01*
X164322000Y-108877750D01*
X165624000Y-108877750D01*
X165624000Y-109879750D01*
X165624000Y-109879750D01*
G37*
G36*
X146320000Y-109753750D02*
G01*
X145018000Y-109753750D01*
X145018000Y-108751750D01*
X146320000Y-108751750D01*
X146320000Y-109753750D01*
X146320000Y-109753750D01*
G37*
G36*
X118245000Y-109656750D02*
G01*
X109593000Y-109656750D01*
X109593000Y-108054750D01*
X118245000Y-108054750D01*
X118245000Y-109656750D01*
X118245000Y-109656750D01*
G37*
G36*
X135191205Y-105599631D02*
G01*
X135196645Y-105599750D01*
X135283828Y-105599750D01*
X135300097Y-105602986D01*
X135318956Y-105605265D01*
X135335532Y-105605996D01*
X135420223Y-105626760D01*
X135425518Y-105627934D01*
X135511027Y-105644943D01*
X135526362Y-105651295D01*
X135544401Y-105657205D01*
X135560521Y-105661157D01*
X135639504Y-105698030D01*
X135644494Y-105700227D01*
X135725045Y-105733592D01*
X135738841Y-105742810D01*
X135755393Y-105752132D01*
X135770426Y-105759150D01*
X135840694Y-105810721D01*
X135845192Y-105813872D01*
X135917656Y-105862291D01*
X135929383Y-105874018D01*
X135943809Y-105886398D01*
X135957179Y-105896211D01*
X135957180Y-105896212D01*
X136016021Y-105960483D01*
X136019829Y-105964464D01*
X136081459Y-106026094D01*
X136090674Y-106039885D01*
X136102396Y-106054828D01*
X136113605Y-106067071D01*
X136158799Y-106141624D01*
X136161746Y-106146251D01*
X136210158Y-106218705D01*
X136216505Y-106234027D01*
X136225092Y-106250981D01*
X136233691Y-106265167D01*
X136263478Y-106347118D01*
X136265452Y-106352198D01*
X136298807Y-106432723D01*
X136298807Y-106432724D01*
X136302041Y-106448983D01*
X136307158Y-106467292D01*
X136312825Y-106482884D01*
X136326055Y-106569095D01*
X136327001Y-106574463D01*
X136344000Y-106659923D01*
X136344000Y-106676502D01*
X136345444Y-106695442D01*
X136347963Y-106711854D01*
X136344120Y-106798999D01*
X136344000Y-106804439D01*
X136344000Y-106891575D01*
X136340766Y-106907833D01*
X136338488Y-106926691D01*
X136337756Y-106943281D01*
X136316988Y-107027987D01*
X136315812Y-107033287D01*
X136298807Y-107118777D01*
X136292457Y-107134107D01*
X136286549Y-107152143D01*
X136282595Y-107168270D01*
X136245711Y-107247276D01*
X136243511Y-107252273D01*
X136210158Y-107332795D01*
X136200944Y-107346585D01*
X136191622Y-107363137D01*
X136184602Y-107378174D01*
X136133011Y-107448470D01*
X136129866Y-107452960D01*
X136081461Y-107525404D01*
X136024460Y-107582405D01*
X136019811Y-107587313D01*
X135600398Y-108054750D01*
X134694723Y-109064126D01*
X134566679Y-109181352D01*
X134478383Y-109234877D01*
X134368583Y-109301439D01*
X134150866Y-109380573D01*
X133921895Y-109415711D01*
X133690470Y-109405504D01*
X133465481Y-109350343D01*
X133360727Y-109301439D01*
X133255579Y-109252352D01*
X133158838Y-109181352D01*
X133068823Y-109115289D01*
X132994394Y-109033991D01*
X132912398Y-108944429D01*
X132830564Y-108809435D01*
X132792311Y-108746333D01*
X132713177Y-108528616D01*
X132678039Y-108299645D01*
X132688246Y-108068220D01*
X132743407Y-107843231D01*
X132794972Y-107732778D01*
X132841398Y-107633330D01*
X132841400Y-107633327D01*
X132944114Y-107493372D01*
X133699245Y-106651777D01*
X134230787Y-106059371D01*
X134241681Y-106045339D01*
X134254539Y-106026096D01*
X134311573Y-105969062D01*
X134316223Y-105964153D01*
X134331278Y-105947374D01*
X134352701Y-105927761D01*
X134356682Y-105923953D01*
X134418346Y-105862289D01*
X134432143Y-105853070D01*
X134447102Y-105841335D01*
X134459321Y-105830148D01*
X134491385Y-105810711D01*
X134533830Y-105784981D01*
X134538421Y-105782058D01*
X134610955Y-105733592D01*
X134626300Y-105727236D01*
X134643248Y-105718651D01*
X134657416Y-105710062D01*
X134657417Y-105710062D01*
X134657418Y-105710061D01*
X134739312Y-105680295D01*
X134744410Y-105678313D01*
X134824973Y-105644943D01*
X134841252Y-105641705D01*
X134859542Y-105636594D01*
X134875135Y-105630927D01*
X134961300Y-105617704D01*
X134966663Y-105616759D01*
X135052173Y-105599750D01*
X135068766Y-105599750D01*
X135087709Y-105598305D01*
X135104106Y-105595789D01*
X135191205Y-105599631D01*
X135191205Y-105599631D01*
G37*
G36*
X154241205Y-105599631D02*
G01*
X154246645Y-105599750D01*
X154333828Y-105599750D01*
X154350097Y-105602986D01*
X154368956Y-105605265D01*
X154385532Y-105605996D01*
X154470223Y-105626760D01*
X154475518Y-105627934D01*
X154561027Y-105644943D01*
X154576362Y-105651295D01*
X154594401Y-105657205D01*
X154610521Y-105661157D01*
X154689504Y-105698030D01*
X154694494Y-105700227D01*
X154775045Y-105733592D01*
X154788841Y-105742810D01*
X154805393Y-105752132D01*
X154820426Y-105759150D01*
X154890694Y-105810721D01*
X154895192Y-105813872D01*
X154967656Y-105862291D01*
X154979383Y-105874018D01*
X154993809Y-105886398D01*
X155007179Y-105896211D01*
X155007180Y-105896212D01*
X155066021Y-105960483D01*
X155069829Y-105964464D01*
X155131459Y-106026094D01*
X155140674Y-106039885D01*
X155152396Y-106054828D01*
X155163605Y-106067071D01*
X155208799Y-106141624D01*
X155211746Y-106146251D01*
X155260158Y-106218705D01*
X155266505Y-106234027D01*
X155275092Y-106250981D01*
X155283691Y-106265167D01*
X155313478Y-106347118D01*
X155315452Y-106352198D01*
X155348807Y-106432723D01*
X155348807Y-106432724D01*
X155352041Y-106448983D01*
X155357158Y-106467292D01*
X155362825Y-106482884D01*
X155376055Y-106569095D01*
X155377001Y-106574463D01*
X155394000Y-106659923D01*
X155394000Y-106676502D01*
X155395444Y-106695442D01*
X155397963Y-106711854D01*
X155394120Y-106798999D01*
X155394000Y-106804439D01*
X155394000Y-106891575D01*
X155390766Y-106907833D01*
X155388488Y-106926691D01*
X155387756Y-106943281D01*
X155366988Y-107027987D01*
X155365812Y-107033287D01*
X155348807Y-107118777D01*
X155342457Y-107134107D01*
X155336549Y-107152143D01*
X155332595Y-107168270D01*
X155295711Y-107247276D01*
X155293511Y-107252273D01*
X155260158Y-107332795D01*
X155250944Y-107346585D01*
X155241622Y-107363137D01*
X155234602Y-107378174D01*
X155183011Y-107448470D01*
X155179866Y-107452960D01*
X155131461Y-107525404D01*
X155074460Y-107582405D01*
X155069811Y-107587313D01*
X154650398Y-108054750D01*
X153744723Y-109064126D01*
X153616679Y-109181352D01*
X153528383Y-109234877D01*
X153418583Y-109301439D01*
X153200866Y-109380573D01*
X152971895Y-109415711D01*
X152740470Y-109405504D01*
X152515481Y-109350343D01*
X152410727Y-109301439D01*
X152305579Y-109252352D01*
X152208838Y-109181352D01*
X152118823Y-109115289D01*
X152044394Y-109033991D01*
X151962398Y-108944429D01*
X151880564Y-108809435D01*
X151842311Y-108746333D01*
X151763177Y-108528616D01*
X151728039Y-108299645D01*
X151738246Y-108068220D01*
X151793407Y-107843231D01*
X151844972Y-107732778D01*
X151891398Y-107633330D01*
X151891400Y-107633327D01*
X151994114Y-107493372D01*
X152749245Y-106651777D01*
X153280787Y-106059371D01*
X153291681Y-106045339D01*
X153304539Y-106026096D01*
X153361573Y-105969062D01*
X153366223Y-105964153D01*
X153381278Y-105947374D01*
X153402701Y-105927761D01*
X153406682Y-105923953D01*
X153468346Y-105862289D01*
X153482143Y-105853070D01*
X153497102Y-105841335D01*
X153509321Y-105830148D01*
X153541385Y-105810711D01*
X153583830Y-105784981D01*
X153588421Y-105782058D01*
X153660955Y-105733592D01*
X153676300Y-105727236D01*
X153693248Y-105718651D01*
X153707416Y-105710062D01*
X153707417Y-105710062D01*
X153707418Y-105710061D01*
X153789312Y-105680295D01*
X153794410Y-105678313D01*
X153874973Y-105644943D01*
X153891252Y-105641705D01*
X153909542Y-105636594D01*
X153925135Y-105630927D01*
X154011300Y-105617704D01*
X154016663Y-105616759D01*
X154102173Y-105599750D01*
X154118766Y-105599750D01*
X154137709Y-105598305D01*
X154154106Y-105595789D01*
X154241205Y-105599631D01*
X154241205Y-105599631D01*
G37*
G36*
X109020000Y-107481750D02*
G01*
X107418000Y-107481750D01*
X107418000Y-98829750D01*
X109020000Y-98829750D01*
X109020000Y-107481750D01*
X109020000Y-107481750D01*
G37*
G36*
X120420000Y-107481750D02*
G01*
X118818000Y-107481750D01*
X118818000Y-98829750D01*
X120420000Y-98829750D01*
X120420000Y-107481750D01*
X120420000Y-107481750D01*
G37*
G36*
X140296127Y-104518011D02*
G01*
X140316900Y-104519750D01*
X140323827Y-104519750D01*
X140418754Y-104538632D01*
X140422348Y-104539292D01*
X140517730Y-104555374D01*
X140524203Y-104557835D01*
X140544228Y-104563591D01*
X140551027Y-104564943D01*
X140613414Y-104590784D01*
X140640443Y-104601980D01*
X140643844Y-104603331D01*
X140734255Y-104637711D01*
X140740127Y-104641390D01*
X140758636Y-104650937D01*
X140765045Y-104653592D01*
X140845563Y-104707392D01*
X140848554Y-104709328D01*
X140930557Y-104760709D01*
X140935584Y-104765450D01*
X140951896Y-104778441D01*
X140957652Y-104782287D01*
X141026110Y-104850745D01*
X141028689Y-104853249D01*
X141099090Y-104919639D01*
X141103095Y-104925269D01*
X141116559Y-104941194D01*
X141121459Y-104946094D01*
X141175244Y-105026589D01*
X141177291Y-105029557D01*
X141233380Y-105108395D01*
X141236214Y-105114708D01*
X141246308Y-105132943D01*
X141250158Y-105138705D01*
X141287220Y-105228180D01*
X141288624Y-105231435D01*
X141328265Y-105319723D01*
X141329815Y-105326475D01*
X141336152Y-105346312D01*
X141338807Y-105352723D01*
X141357692Y-105447667D01*
X141358438Y-105451151D01*
X141380098Y-105545501D01*
X141380098Y-105545504D01*
X141380300Y-105552404D01*
X141382647Y-105573120D01*
X141384000Y-105579924D01*
X141384000Y-105676736D01*
X141384053Y-105680334D01*
X141385188Y-105719027D01*
X141384295Y-105731975D01*
X141384000Y-105740547D01*
X141384000Y-105811576D01*
X141378081Y-105841335D01*
X141377604Y-105843729D01*
X141375500Y-105859500D01*
X141337238Y-106414295D01*
X141308376Y-106585480D01*
X141226038Y-106802005D01*
X141103041Y-106998307D01*
X140944111Y-107166840D01*
X140755355Y-107301130D01*
X140544027Y-107396015D01*
X140318249Y-107447848D01*
X140086698Y-107454639D01*
X140086697Y-107454639D01*
X140041012Y-107446936D01*
X139858270Y-107416126D01*
X139641745Y-107333788D01*
X139445443Y-107210791D01*
X139276910Y-107051861D01*
X139142620Y-106863105D01*
X139047735Y-106651777D01*
X138995902Y-106425999D01*
X138990812Y-106252473D01*
X139031704Y-105659544D01*
X139032000Y-105650946D01*
X139032000Y-105579925D01*
X139050882Y-105485000D01*
X139051544Y-105481395D01*
X139057231Y-105447667D01*
X139067624Y-105386020D01*
X139070085Y-105379549D01*
X139075842Y-105359517D01*
X139077193Y-105352724D01*
X139079843Y-105346326D01*
X139114264Y-105263226D01*
X139115553Y-105259980D01*
X139149962Y-105169495D01*
X139153636Y-105163631D01*
X139163187Y-105145115D01*
X139165842Y-105138705D01*
X139219657Y-105058165D01*
X139221577Y-105055199D01*
X139272959Y-104973193D01*
X139277711Y-104968154D01*
X139290689Y-104951857D01*
X139294537Y-104946098D01*
X139362993Y-104877642D01*
X139365546Y-104875012D01*
X139386023Y-104853298D01*
X139431889Y-104804660D01*
X139437521Y-104800653D01*
X139453447Y-104787188D01*
X139458346Y-104782289D01*
X139538824Y-104728516D01*
X139541806Y-104726460D01*
X139620645Y-104670370D01*
X139626955Y-104667537D01*
X139645194Y-104657441D01*
X139650951Y-104653594D01*
X139650954Y-104653593D01*
X139650955Y-104653592D01*
X139740429Y-104616531D01*
X139743687Y-104615125D01*
X139831973Y-104575485D01*
X139838725Y-104573935D01*
X139858562Y-104567598D01*
X139864973Y-104564943D01*
X139959899Y-104546061D01*
X139963446Y-104545301D01*
X140057751Y-104523651D01*
X140060130Y-104523581D01*
X140064665Y-104523448D01*
X140085381Y-104521101D01*
X140092174Y-104519750D01*
X140188959Y-104519750D01*
X140192584Y-104519697D01*
X140289302Y-104516860D01*
X140296127Y-104518011D01*
X140296127Y-104518011D01*
G37*
G36*
X159346127Y-104518011D02*
G01*
X159366900Y-104519750D01*
X159373827Y-104519750D01*
X159468754Y-104538632D01*
X159472348Y-104539292D01*
X159567730Y-104555374D01*
X159574203Y-104557835D01*
X159594228Y-104563591D01*
X159601027Y-104564943D01*
X159663414Y-104590784D01*
X159690443Y-104601980D01*
X159693844Y-104603331D01*
X159784255Y-104637711D01*
X159790127Y-104641390D01*
X159808636Y-104650937D01*
X159815045Y-104653592D01*
X159895563Y-104707392D01*
X159898554Y-104709328D01*
X159980557Y-104760709D01*
X159985584Y-104765450D01*
X160001896Y-104778441D01*
X160007652Y-104782287D01*
X160076110Y-104850745D01*
X160078689Y-104853249D01*
X160149090Y-104919639D01*
X160153095Y-104925269D01*
X160166559Y-104941194D01*
X160171459Y-104946094D01*
X160225244Y-105026589D01*
X160227291Y-105029557D01*
X160283380Y-105108395D01*
X160286214Y-105114708D01*
X160296308Y-105132943D01*
X160300158Y-105138705D01*
X160337220Y-105228180D01*
X160338624Y-105231435D01*
X160378265Y-105319723D01*
X160379815Y-105326475D01*
X160386152Y-105346312D01*
X160388807Y-105352723D01*
X160407692Y-105447667D01*
X160408438Y-105451151D01*
X160430098Y-105545501D01*
X160430098Y-105545504D01*
X160430300Y-105552404D01*
X160432647Y-105573120D01*
X160434000Y-105579924D01*
X160434000Y-105676736D01*
X160434053Y-105680334D01*
X160435188Y-105719027D01*
X160434295Y-105731975D01*
X160434000Y-105740547D01*
X160434000Y-105811576D01*
X160428081Y-105841335D01*
X160427604Y-105843729D01*
X160425500Y-105859500D01*
X160387238Y-106414295D01*
X160358376Y-106585480D01*
X160276038Y-106802005D01*
X160153041Y-106998307D01*
X159994111Y-107166840D01*
X159805355Y-107301130D01*
X159594027Y-107396015D01*
X159368249Y-107447848D01*
X159136698Y-107454639D01*
X159136697Y-107454639D01*
X159091012Y-107446936D01*
X158908270Y-107416126D01*
X158691745Y-107333788D01*
X158495443Y-107210791D01*
X158326910Y-107051861D01*
X158192620Y-106863105D01*
X158097735Y-106651777D01*
X158045902Y-106425999D01*
X158040812Y-106252473D01*
X158081704Y-105659544D01*
X158082000Y-105650946D01*
X158082000Y-105579925D01*
X158100882Y-105485000D01*
X158101544Y-105481395D01*
X158107231Y-105447667D01*
X158117624Y-105386020D01*
X158120085Y-105379549D01*
X158125842Y-105359517D01*
X158127193Y-105352724D01*
X158129843Y-105346326D01*
X158164264Y-105263226D01*
X158165553Y-105259980D01*
X158199962Y-105169495D01*
X158203636Y-105163631D01*
X158213187Y-105145115D01*
X158215842Y-105138705D01*
X158269657Y-105058165D01*
X158271577Y-105055199D01*
X158322959Y-104973193D01*
X158327711Y-104968154D01*
X158340689Y-104951857D01*
X158344537Y-104946098D01*
X158412993Y-104877642D01*
X158415546Y-104875012D01*
X158436023Y-104853298D01*
X158481889Y-104804660D01*
X158487521Y-104800653D01*
X158503447Y-104787188D01*
X158508346Y-104782289D01*
X158588824Y-104728516D01*
X158591806Y-104726460D01*
X158670645Y-104670370D01*
X158676955Y-104667537D01*
X158695194Y-104657441D01*
X158700951Y-104653594D01*
X158700954Y-104653593D01*
X158700955Y-104653592D01*
X158790429Y-104616531D01*
X158793687Y-104615125D01*
X158881973Y-104575485D01*
X158888725Y-104573935D01*
X158908562Y-104567598D01*
X158914973Y-104564943D01*
X159009899Y-104546061D01*
X159013446Y-104545301D01*
X159107751Y-104523651D01*
X159110130Y-104523581D01*
X159114665Y-104523448D01*
X159135381Y-104521101D01*
X159142174Y-104519750D01*
X159238959Y-104519750D01*
X159242584Y-104519697D01*
X159339302Y-104516860D01*
X159346127Y-104518011D01*
X159346127Y-104518011D01*
G37*
G36*
X91954604Y-101696347D02*
G01*
X91991144Y-101707432D01*
X92024821Y-101725433D01*
X92054341Y-101749659D01*
X92078567Y-101779179D01*
X92096568Y-101812856D01*
X92107653Y-101849396D01*
X92112000Y-101893538D01*
X92112000Y-102842462D01*
X92107653Y-102886604D01*
X92096568Y-102923144D01*
X92078567Y-102956821D01*
X92054341Y-102986341D01*
X92024821Y-103010567D01*
X91991144Y-103028568D01*
X91954604Y-103039653D01*
X91910462Y-103044000D01*
X90461538Y-103044000D01*
X90417396Y-103039653D01*
X90380856Y-103028568D01*
X90347179Y-103010567D01*
X90317659Y-102986341D01*
X90293433Y-102956821D01*
X90275432Y-102923144D01*
X90264347Y-102886604D01*
X90260000Y-102842462D01*
X90260000Y-101893538D01*
X90264347Y-101849396D01*
X90275432Y-101812856D01*
X90293433Y-101779179D01*
X90317659Y-101749659D01*
X90347179Y-101725433D01*
X90380856Y-101707432D01*
X90417396Y-101696347D01*
X90461538Y-101692000D01*
X91910462Y-101692000D01*
X91954604Y-101696347D01*
X91954604Y-101696347D01*
G37*
G36*
X125552468Y-100305815D02*
G01*
X125591138Y-100317546D01*
X125626777Y-100336596D01*
X125658017Y-100362233D01*
X125683654Y-100393473D01*
X125702704Y-100429112D01*
X125714435Y-100467782D01*
X125719000Y-100514138D01*
X125719000Y-101165362D01*
X125714435Y-101211718D01*
X125702704Y-101250388D01*
X125683654Y-101286027D01*
X125658017Y-101317267D01*
X125626777Y-101342904D01*
X125591138Y-101361954D01*
X125552468Y-101373685D01*
X125506112Y-101378250D01*
X124429888Y-101378250D01*
X124383532Y-101373685D01*
X124344862Y-101361954D01*
X124309223Y-101342904D01*
X124277983Y-101317267D01*
X124252346Y-101286027D01*
X124233296Y-101250388D01*
X124221565Y-101211718D01*
X124217000Y-101165362D01*
X124217000Y-100514138D01*
X124221565Y-100467782D01*
X124233296Y-100429112D01*
X124252346Y-100393473D01*
X124277983Y-100362233D01*
X124309223Y-100336596D01*
X124344862Y-100317546D01*
X124383532Y-100305815D01*
X124429888Y-100301250D01*
X125506112Y-100301250D01*
X125552468Y-100305815D01*
X125552468Y-100305815D01*
G37*
G36*
X91954604Y-98896347D02*
G01*
X91991144Y-98907432D01*
X92024821Y-98925433D01*
X92054341Y-98949659D01*
X92078567Y-98979179D01*
X92096568Y-99012856D01*
X92107653Y-99049396D01*
X92112000Y-99093538D01*
X92112000Y-100042462D01*
X92107653Y-100086604D01*
X92096568Y-100123144D01*
X92078567Y-100156821D01*
X92054341Y-100186341D01*
X92024821Y-100210567D01*
X91991144Y-100228568D01*
X91954604Y-100239653D01*
X91910462Y-100244000D01*
X90461538Y-100244000D01*
X90417396Y-100239653D01*
X90380856Y-100228568D01*
X90347179Y-100210567D01*
X90317659Y-100186341D01*
X90293433Y-100156821D01*
X90275432Y-100123144D01*
X90264347Y-100086604D01*
X90260000Y-100042462D01*
X90260000Y-99093538D01*
X90264347Y-99049396D01*
X90275432Y-99012856D01*
X90293433Y-98979179D01*
X90317659Y-98949659D01*
X90347179Y-98925433D01*
X90380856Y-98907432D01*
X90417396Y-98896347D01*
X90461538Y-98892000D01*
X91910462Y-98892000D01*
X91954604Y-98896347D01*
X91954604Y-98896347D01*
G37*
G36*
X125552468Y-98430815D02*
G01*
X125591138Y-98442546D01*
X125626777Y-98461596D01*
X125658017Y-98487233D01*
X125683654Y-98518473D01*
X125702704Y-98554112D01*
X125714435Y-98592782D01*
X125719000Y-98639138D01*
X125719000Y-99290362D01*
X125714435Y-99336718D01*
X125702704Y-99375388D01*
X125683654Y-99411027D01*
X125658017Y-99442267D01*
X125626777Y-99467904D01*
X125591138Y-99486954D01*
X125552468Y-99498685D01*
X125506112Y-99503250D01*
X124429888Y-99503250D01*
X124383532Y-99498685D01*
X124344862Y-99486954D01*
X124309223Y-99467904D01*
X124277983Y-99442267D01*
X124252346Y-99411027D01*
X124233296Y-99375388D01*
X124221565Y-99336718D01*
X124217000Y-99290362D01*
X124217000Y-98639138D01*
X124221565Y-98592782D01*
X124233296Y-98554112D01*
X124252346Y-98518473D01*
X124277983Y-98487233D01*
X124309223Y-98461596D01*
X124344862Y-98442546D01*
X124383532Y-98430815D01*
X124429888Y-98426250D01*
X125506112Y-98426250D01*
X125552468Y-98430815D01*
X125552468Y-98430815D01*
G37*
G36*
X104531604Y-96614347D02*
G01*
X104568144Y-96625432D01*
X104601821Y-96643433D01*
X104631341Y-96667659D01*
X104655567Y-96697179D01*
X104673568Y-96730856D01*
X104684653Y-96767396D01*
X104689000Y-96811538D01*
X104689000Y-98260462D01*
X104684653Y-98304604D01*
X104673568Y-98341144D01*
X104655567Y-98374821D01*
X104631341Y-98404341D01*
X104601821Y-98428567D01*
X104568144Y-98446568D01*
X104531604Y-98457653D01*
X104487462Y-98462000D01*
X103538538Y-98462000D01*
X103494396Y-98457653D01*
X103457856Y-98446568D01*
X103424179Y-98428567D01*
X103394659Y-98404341D01*
X103370433Y-98374821D01*
X103352432Y-98341144D01*
X103341347Y-98304604D01*
X103337000Y-98260462D01*
X103337000Y-96811538D01*
X103341347Y-96767396D01*
X103352432Y-96730856D01*
X103370433Y-96697179D01*
X103394659Y-96667659D01*
X103424179Y-96643433D01*
X103457856Y-96625432D01*
X103494396Y-96614347D01*
X103538538Y-96610000D01*
X104487462Y-96610000D01*
X104531604Y-96614347D01*
X104531604Y-96614347D01*
G37*
G36*
X101731604Y-96614347D02*
G01*
X101768144Y-96625432D01*
X101801821Y-96643433D01*
X101831341Y-96667659D01*
X101855567Y-96697179D01*
X101873568Y-96730856D01*
X101884653Y-96767396D01*
X101889000Y-96811538D01*
X101889000Y-98260462D01*
X101884653Y-98304604D01*
X101873568Y-98341144D01*
X101855567Y-98374821D01*
X101831341Y-98404341D01*
X101801821Y-98428567D01*
X101768144Y-98446568D01*
X101731604Y-98457653D01*
X101687462Y-98462000D01*
X100738538Y-98462000D01*
X100694396Y-98457653D01*
X100657856Y-98446568D01*
X100624179Y-98428567D01*
X100594659Y-98404341D01*
X100570433Y-98374821D01*
X100552432Y-98341144D01*
X100541347Y-98304604D01*
X100537000Y-98260462D01*
X100537000Y-96811538D01*
X100541347Y-96767396D01*
X100552432Y-96730856D01*
X100570433Y-96697179D01*
X100594659Y-96667659D01*
X100624179Y-96643433D01*
X100657856Y-96625432D01*
X100694396Y-96614347D01*
X100738538Y-96610000D01*
X101687462Y-96610000D01*
X101731604Y-96614347D01*
X101731604Y-96614347D01*
G37*
G36*
X118245000Y-98256750D02*
G01*
X109593000Y-98256750D01*
X109593000Y-96654750D01*
X118245000Y-96654750D01*
X118245000Y-98256750D01*
X118245000Y-98256750D01*
G37*
G36*
X110861968Y-94122565D02*
G01*
X110900638Y-94134296D01*
X110936277Y-94153346D01*
X110967517Y-94178983D01*
X110993154Y-94210223D01*
X111012204Y-94245862D01*
X111023935Y-94284532D01*
X111028500Y-94330888D01*
X111028500Y-95407112D01*
X111023935Y-95453468D01*
X111012204Y-95492138D01*
X110993154Y-95527777D01*
X110967517Y-95559017D01*
X110936277Y-95584654D01*
X110900638Y-95603704D01*
X110861968Y-95615435D01*
X110815612Y-95620000D01*
X110164388Y-95620000D01*
X110118032Y-95615435D01*
X110079362Y-95603704D01*
X110043723Y-95584654D01*
X110012483Y-95559017D01*
X109986846Y-95527777D01*
X109967796Y-95492138D01*
X109956065Y-95453468D01*
X109951500Y-95407112D01*
X109951500Y-94330888D01*
X109956065Y-94284532D01*
X109967796Y-94245862D01*
X109986846Y-94210223D01*
X110012483Y-94178983D01*
X110043723Y-94153346D01*
X110079362Y-94134296D01*
X110118032Y-94122565D01*
X110164388Y-94118000D01*
X110815612Y-94118000D01*
X110861968Y-94122565D01*
X110861968Y-94122565D01*
G37*
G36*
X112736968Y-94122565D02*
G01*
X112775638Y-94134296D01*
X112811277Y-94153346D01*
X112842517Y-94178983D01*
X112868154Y-94210223D01*
X112887204Y-94245862D01*
X112898935Y-94284532D01*
X112903500Y-94330888D01*
X112903500Y-95407112D01*
X112898935Y-95453468D01*
X112887204Y-95492138D01*
X112868154Y-95527777D01*
X112842517Y-95559017D01*
X112811277Y-95584654D01*
X112775638Y-95603704D01*
X112736968Y-95615435D01*
X112690612Y-95620000D01*
X112039388Y-95620000D01*
X111993032Y-95615435D01*
X111954362Y-95603704D01*
X111918723Y-95584654D01*
X111887483Y-95559017D01*
X111861846Y-95527777D01*
X111842796Y-95492138D01*
X111831065Y-95453468D01*
X111826500Y-95407112D01*
X111826500Y-94330888D01*
X111831065Y-94284532D01*
X111842796Y-94245862D01*
X111861846Y-94210223D01*
X111887483Y-94178983D01*
X111918723Y-94153346D01*
X111954362Y-94134296D01*
X111993032Y-94122565D01*
X112039388Y-94118000D01*
X112690612Y-94118000D01*
X112736968Y-94122565D01*
X112736968Y-94122565D01*
G37*
G36*
X99193604Y-93187347D02*
G01*
X99230144Y-93198432D01*
X99263821Y-93216433D01*
X99293341Y-93240659D01*
X99317567Y-93270179D01*
X99335568Y-93303856D01*
X99346653Y-93340396D01*
X99351000Y-93384538D01*
X99351000Y-94333462D01*
X99346653Y-94377604D01*
X99335568Y-94414144D01*
X99317567Y-94447821D01*
X99293341Y-94477341D01*
X99263821Y-94501567D01*
X99230144Y-94519568D01*
X99193604Y-94530653D01*
X99149462Y-94535000D01*
X97700538Y-94535000D01*
X97656396Y-94530653D01*
X97619856Y-94519568D01*
X97586179Y-94501567D01*
X97556659Y-94477341D01*
X97532433Y-94447821D01*
X97514432Y-94414144D01*
X97503347Y-94377604D01*
X97499000Y-94333462D01*
X97499000Y-93384538D01*
X97503347Y-93340396D01*
X97514432Y-93303856D01*
X97532433Y-93270179D01*
X97556659Y-93240659D01*
X97586179Y-93216433D01*
X97619856Y-93198432D01*
X97656396Y-93187347D01*
X97700538Y-93183000D01*
X99149462Y-93183000D01*
X99193604Y-93187347D01*
X99193604Y-93187347D01*
G37*
G36*
X95256604Y-93181347D02*
G01*
X95293144Y-93192432D01*
X95326821Y-93210433D01*
X95356341Y-93234659D01*
X95380567Y-93264179D01*
X95398568Y-93297856D01*
X95409653Y-93334396D01*
X95414000Y-93378538D01*
X95414000Y-94327462D01*
X95409653Y-94371604D01*
X95398568Y-94408144D01*
X95380567Y-94441821D01*
X95356341Y-94471341D01*
X95326821Y-94495567D01*
X95293144Y-94513568D01*
X95256604Y-94524653D01*
X95212462Y-94529000D01*
X93763538Y-94529000D01*
X93719396Y-94524653D01*
X93682856Y-94513568D01*
X93649179Y-94495567D01*
X93619659Y-94471341D01*
X93595433Y-94441821D01*
X93577432Y-94408144D01*
X93566347Y-94371604D01*
X93562000Y-94327462D01*
X93562000Y-93378538D01*
X93566347Y-93334396D01*
X93577432Y-93297856D01*
X93595433Y-93264179D01*
X93619659Y-93234659D01*
X93649179Y-93210433D01*
X93682856Y-93192432D01*
X93719396Y-93181347D01*
X93763538Y-93177000D01*
X95212462Y-93177000D01*
X95256604Y-93181347D01*
X95256604Y-93181347D01*
G37*
G36*
X165497000Y-94129750D02*
G01*
X164195000Y-94129750D01*
X164195000Y-93127750D01*
X165497000Y-93127750D01*
X165497000Y-94129750D01*
X165497000Y-94129750D01*
G37*
G36*
X138264474Y-89759434D02*
G01*
X138429403Y-89827750D01*
X138636623Y-89913583D01*
X138971548Y-90137373D01*
X139256377Y-90422202D01*
X139480167Y-90757127D01*
X139512562Y-90835336D01*
X139634316Y-91129276D01*
X139712900Y-91524344D01*
X139712900Y-91927156D01*
X139634316Y-92322224D01*
X139583451Y-92445022D01*
X139480167Y-92694373D01*
X139256377Y-93029298D01*
X138971548Y-93314127D01*
X138636623Y-93537917D01*
X138482474Y-93601767D01*
X138264474Y-93692066D01*
X137869406Y-93770650D01*
X137466594Y-93770650D01*
X137071526Y-93692066D01*
X136853526Y-93601767D01*
X136699377Y-93537917D01*
X136364452Y-93314127D01*
X136079623Y-93029298D01*
X135855833Y-92694373D01*
X135752549Y-92445022D01*
X135701684Y-92322224D01*
X135623100Y-91927156D01*
X135623100Y-91524344D01*
X135701684Y-91129276D01*
X135823438Y-90835336D01*
X135855833Y-90757127D01*
X136079623Y-90422202D01*
X136364452Y-90137373D01*
X136699377Y-89913583D01*
X136906597Y-89827750D01*
X137071526Y-89759434D01*
X137466594Y-89680850D01*
X137869406Y-89680850D01*
X138264474Y-89759434D01*
X138264474Y-89759434D01*
G37*
G36*
X157314474Y-89759434D02*
G01*
X157479403Y-89827750D01*
X157686623Y-89913583D01*
X158021548Y-90137373D01*
X158306377Y-90422202D01*
X158530167Y-90757127D01*
X158562562Y-90835336D01*
X158684316Y-91129276D01*
X158762900Y-91524344D01*
X158762900Y-91927156D01*
X158684316Y-92322224D01*
X158633451Y-92445022D01*
X158530167Y-92694373D01*
X158306377Y-93029298D01*
X158021548Y-93314127D01*
X157686623Y-93537917D01*
X157532474Y-93601767D01*
X157314474Y-93692066D01*
X156919406Y-93770650D01*
X156516594Y-93770650D01*
X156121526Y-93692066D01*
X155903526Y-93601767D01*
X155749377Y-93537917D01*
X155414452Y-93314127D01*
X155129623Y-93029298D01*
X154905833Y-92694373D01*
X154802549Y-92445022D01*
X154751684Y-92322224D01*
X154673100Y-91927156D01*
X154673100Y-91524344D01*
X154751684Y-91129276D01*
X154873438Y-90835336D01*
X154905833Y-90757127D01*
X155129623Y-90422202D01*
X155414452Y-90137373D01*
X155749377Y-89913583D01*
X155956597Y-89827750D01*
X156121526Y-89759434D01*
X156516594Y-89680850D01*
X156919406Y-89680850D01*
X157314474Y-89759434D01*
X157314474Y-89759434D01*
G37*
G36*
X146447000Y-93750750D02*
G01*
X145145000Y-93750750D01*
X145145000Y-92748750D01*
X146447000Y-92748750D01*
X146447000Y-93750750D01*
X146447000Y-93750750D01*
G37*
G36*
X113212000Y-92814750D02*
G01*
X111910000Y-92814750D01*
X111910000Y-91312750D01*
X113212000Y-91312750D01*
X113212000Y-92814750D01*
X113212000Y-92814750D01*
G37*
G36*
X114912000Y-92814750D02*
G01*
X113610000Y-92814750D01*
X113610000Y-91312750D01*
X114912000Y-91312750D01*
X114912000Y-92814750D01*
X114912000Y-92814750D01*
G37*
G36*
X162068104Y-90835335D02*
G01*
X162236626Y-90905139D01*
X162388291Y-91006478D01*
X162517272Y-91135459D01*
X162618611Y-91287124D01*
X162688415Y-91455646D01*
X162724000Y-91634547D01*
X162724000Y-91816953D01*
X162688415Y-91995854D01*
X162618611Y-92164376D01*
X162517272Y-92316041D01*
X162388291Y-92445022D01*
X162236626Y-92546361D01*
X162068104Y-92616165D01*
X161889203Y-92651750D01*
X161706797Y-92651750D01*
X161527896Y-92616165D01*
X161359374Y-92546361D01*
X161207709Y-92445022D01*
X161078728Y-92316041D01*
X160977389Y-92164376D01*
X160907585Y-91995854D01*
X160872000Y-91816953D01*
X160872000Y-91634547D01*
X160907585Y-91455646D01*
X160977389Y-91287124D01*
X161078728Y-91135459D01*
X161207709Y-91006478D01*
X161359374Y-90905139D01*
X161527896Y-90835335D01*
X161706797Y-90799750D01*
X161889203Y-90799750D01*
X162068104Y-90835335D01*
X162068104Y-90835335D01*
G37*
G36*
X151908104Y-90835335D02*
G01*
X152076626Y-90905139D01*
X152228291Y-91006478D01*
X152357272Y-91135459D01*
X152458611Y-91287124D01*
X152528415Y-91455646D01*
X152564000Y-91634547D01*
X152564000Y-91816953D01*
X152528415Y-91995854D01*
X152458611Y-92164376D01*
X152357272Y-92316041D01*
X152228291Y-92445022D01*
X152076626Y-92546361D01*
X151908104Y-92616165D01*
X151729203Y-92651750D01*
X151546797Y-92651750D01*
X151367896Y-92616165D01*
X151199374Y-92546361D01*
X151047709Y-92445022D01*
X150918728Y-92316041D01*
X150817389Y-92164376D01*
X150747585Y-91995854D01*
X150712000Y-91816953D01*
X150712000Y-91634547D01*
X150747585Y-91455646D01*
X150817389Y-91287124D01*
X150918728Y-91135459D01*
X151047709Y-91006478D01*
X151199374Y-90905139D01*
X151367896Y-90835335D01*
X151546797Y-90799750D01*
X151729203Y-90799750D01*
X151908104Y-90835335D01*
X151908104Y-90835335D01*
G37*
G36*
X143018104Y-90835335D02*
G01*
X143186626Y-90905139D01*
X143338291Y-91006478D01*
X143467272Y-91135459D01*
X143568611Y-91287124D01*
X143638415Y-91455646D01*
X143674000Y-91634547D01*
X143674000Y-91816953D01*
X143638415Y-91995854D01*
X143568611Y-92164376D01*
X143467272Y-92316041D01*
X143338291Y-92445022D01*
X143186626Y-92546361D01*
X143018104Y-92616165D01*
X142839203Y-92651750D01*
X142656797Y-92651750D01*
X142477896Y-92616165D01*
X142309374Y-92546361D01*
X142157709Y-92445022D01*
X142028728Y-92316041D01*
X141927389Y-92164376D01*
X141857585Y-91995854D01*
X141822000Y-91816953D01*
X141822000Y-91634547D01*
X141857585Y-91455646D01*
X141927389Y-91287124D01*
X142028728Y-91135459D01*
X142157709Y-91006478D01*
X142309374Y-90905139D01*
X142477896Y-90835335D01*
X142656797Y-90799750D01*
X142839203Y-90799750D01*
X143018104Y-90835335D01*
X143018104Y-90835335D01*
G37*
G36*
X132858104Y-90835335D02*
G01*
X133026626Y-90905139D01*
X133178291Y-91006478D01*
X133307272Y-91135459D01*
X133408611Y-91287124D01*
X133478415Y-91455646D01*
X133514000Y-91634547D01*
X133514000Y-91816953D01*
X133478415Y-91995854D01*
X133408611Y-92164376D01*
X133307272Y-92316041D01*
X133178291Y-92445022D01*
X133026626Y-92546361D01*
X132858104Y-92616165D01*
X132679203Y-92651750D01*
X132496797Y-92651750D01*
X132317896Y-92616165D01*
X132149374Y-92546361D01*
X131997709Y-92445022D01*
X131868728Y-92316041D01*
X131767389Y-92164376D01*
X131697585Y-91995854D01*
X131662000Y-91816953D01*
X131662000Y-91634547D01*
X131697585Y-91455646D01*
X131767389Y-91287124D01*
X131868728Y-91135459D01*
X131997709Y-91006478D01*
X132149374Y-90905139D01*
X132317896Y-90835335D01*
X132496797Y-90799750D01*
X132679203Y-90799750D01*
X132858104Y-90835335D01*
X132858104Y-90835335D01*
G37*
G36*
X107264468Y-91191815D02*
G01*
X107303138Y-91203546D01*
X107338777Y-91222596D01*
X107370017Y-91248233D01*
X107395654Y-91279473D01*
X107414704Y-91315112D01*
X107426435Y-91353782D01*
X107431000Y-91400138D01*
X107431000Y-92051362D01*
X107426435Y-92097718D01*
X107414704Y-92136388D01*
X107395654Y-92172027D01*
X107370017Y-92203267D01*
X107338777Y-92228904D01*
X107303138Y-92247954D01*
X107264468Y-92259685D01*
X107218112Y-92264250D01*
X106141888Y-92264250D01*
X106095532Y-92259685D01*
X106056862Y-92247954D01*
X106021223Y-92228904D01*
X105989983Y-92203267D01*
X105964346Y-92172027D01*
X105945296Y-92136388D01*
X105933565Y-92097718D01*
X105929000Y-92051362D01*
X105929000Y-91400138D01*
X105933565Y-91353782D01*
X105945296Y-91315112D01*
X105964346Y-91279473D01*
X105989983Y-91248233D01*
X106021223Y-91222596D01*
X106056862Y-91203546D01*
X106095532Y-91191815D01*
X106141888Y-91187250D01*
X107218112Y-91187250D01*
X107264468Y-91191815D01*
X107264468Y-91191815D01*
G37*
G36*
X119583468Y-90986315D02*
G01*
X119622138Y-90998046D01*
X119657777Y-91017096D01*
X119689017Y-91042733D01*
X119714654Y-91073973D01*
X119733704Y-91109612D01*
X119745435Y-91148282D01*
X119750000Y-91194638D01*
X119750000Y-91845862D01*
X119745435Y-91892218D01*
X119733704Y-91930888D01*
X119714654Y-91966527D01*
X119689017Y-91997767D01*
X119657777Y-92023404D01*
X119622138Y-92042454D01*
X119583468Y-92054185D01*
X119537112Y-92058750D01*
X118460888Y-92058750D01*
X118414532Y-92054185D01*
X118375862Y-92042454D01*
X118340223Y-92023404D01*
X118308983Y-91997767D01*
X118283346Y-91966527D01*
X118264296Y-91930888D01*
X118252565Y-91892218D01*
X118248000Y-91845862D01*
X118248000Y-91194638D01*
X118252565Y-91148282D01*
X118264296Y-91109612D01*
X118283346Y-91073973D01*
X118308983Y-91042733D01*
X118340223Y-91017096D01*
X118375862Y-90998046D01*
X118414532Y-90986315D01*
X118460888Y-90981750D01*
X119537112Y-90981750D01*
X119583468Y-90986315D01*
X119583468Y-90986315D01*
G37*
G36*
X99193604Y-90387347D02*
G01*
X99230144Y-90398432D01*
X99263821Y-90416433D01*
X99293341Y-90440659D01*
X99317567Y-90470179D01*
X99335568Y-90503856D01*
X99346653Y-90540396D01*
X99351000Y-90584538D01*
X99351000Y-91533462D01*
X99346653Y-91577604D01*
X99335568Y-91614144D01*
X99317567Y-91647821D01*
X99293341Y-91677341D01*
X99263821Y-91701567D01*
X99230144Y-91719568D01*
X99193604Y-91730653D01*
X99149462Y-91735000D01*
X97700538Y-91735000D01*
X97656396Y-91730653D01*
X97619856Y-91719568D01*
X97586179Y-91701567D01*
X97556659Y-91677341D01*
X97532433Y-91647821D01*
X97514432Y-91614144D01*
X97503347Y-91577604D01*
X97499000Y-91533462D01*
X97499000Y-90584538D01*
X97503347Y-90540396D01*
X97514432Y-90503856D01*
X97532433Y-90470179D01*
X97556659Y-90440659D01*
X97586179Y-90416433D01*
X97619856Y-90398432D01*
X97656396Y-90387347D01*
X97700538Y-90383000D01*
X99149462Y-90383000D01*
X99193604Y-90387347D01*
X99193604Y-90387347D01*
G37*
G36*
X95256604Y-90381347D02*
G01*
X95293144Y-90392432D01*
X95326821Y-90410433D01*
X95356341Y-90434659D01*
X95380567Y-90464179D01*
X95398568Y-90497856D01*
X95409653Y-90534396D01*
X95414000Y-90578538D01*
X95414000Y-91527462D01*
X95409653Y-91571604D01*
X95398568Y-91608144D01*
X95380567Y-91641821D01*
X95356341Y-91671341D01*
X95326821Y-91695567D01*
X95293144Y-91713568D01*
X95256604Y-91724653D01*
X95212462Y-91729000D01*
X93763538Y-91729000D01*
X93719396Y-91724653D01*
X93682856Y-91713568D01*
X93649179Y-91695567D01*
X93619659Y-91671341D01*
X93595433Y-91641821D01*
X93577432Y-91608144D01*
X93566347Y-91571604D01*
X93562000Y-91527462D01*
X93562000Y-90578538D01*
X93566347Y-90534396D01*
X93577432Y-90497856D01*
X93595433Y-90464179D01*
X93619659Y-90434659D01*
X93649179Y-90410433D01*
X93682856Y-90392432D01*
X93719396Y-90381347D01*
X93763538Y-90377000D01*
X95212462Y-90377000D01*
X95256604Y-90381347D01*
X95256604Y-90381347D01*
G37*
G36*
X165497000Y-90829750D02*
G01*
X164195000Y-90829750D01*
X164195000Y-89827750D01*
X165497000Y-89827750D01*
X165497000Y-90829750D01*
X165497000Y-90829750D01*
G37*
G36*
X113212000Y-90614750D02*
G01*
X111910000Y-90614750D01*
X111910000Y-89112750D01*
X113212000Y-89112750D01*
X113212000Y-90614750D01*
X113212000Y-90614750D01*
G37*
G36*
X114912000Y-90614750D02*
G01*
X113610000Y-90614750D01*
X113610000Y-89112750D01*
X114912000Y-89112750D01*
X114912000Y-90614750D01*
X114912000Y-90614750D01*
G37*
G36*
X146447000Y-90450750D02*
G01*
X145145000Y-90450750D01*
X145145000Y-89448750D01*
X146447000Y-89448750D01*
X146447000Y-90450750D01*
X146447000Y-90450750D01*
G37*
G36*
X107264468Y-89316815D02*
G01*
X107303138Y-89328546D01*
X107338777Y-89347596D01*
X107370017Y-89373233D01*
X107395654Y-89404473D01*
X107414704Y-89440112D01*
X107426435Y-89478782D01*
X107431000Y-89525138D01*
X107431000Y-90176362D01*
X107426435Y-90222718D01*
X107414704Y-90261388D01*
X107395654Y-90297027D01*
X107370017Y-90328267D01*
X107338777Y-90353904D01*
X107303138Y-90372954D01*
X107264468Y-90384685D01*
X107218112Y-90389250D01*
X106141888Y-90389250D01*
X106095532Y-90384685D01*
X106056862Y-90372954D01*
X106021223Y-90353904D01*
X105989983Y-90328267D01*
X105964346Y-90297027D01*
X105945296Y-90261388D01*
X105933565Y-90222718D01*
X105929000Y-90176362D01*
X105929000Y-89525138D01*
X105933565Y-89478782D01*
X105945296Y-89440112D01*
X105964346Y-89404473D01*
X105989983Y-89373233D01*
X106021223Y-89347596D01*
X106056862Y-89328546D01*
X106095532Y-89316815D01*
X106141888Y-89312250D01*
X107218112Y-89312250D01*
X107264468Y-89316815D01*
X107264468Y-89316815D01*
G37*
G36*
X135191205Y-86549631D02*
G01*
X135196645Y-86549750D01*
X135283828Y-86549750D01*
X135300097Y-86552986D01*
X135318956Y-86555265D01*
X135335532Y-86555996D01*
X135420223Y-86576760D01*
X135425518Y-86577934D01*
X135511027Y-86594943D01*
X135526362Y-86601295D01*
X135544401Y-86607205D01*
X135560521Y-86611157D01*
X135639504Y-86648030D01*
X135644494Y-86650227D01*
X135725045Y-86683592D01*
X135738841Y-86692810D01*
X135755393Y-86702132D01*
X135770426Y-86709150D01*
X135840694Y-86760721D01*
X135845192Y-86763872D01*
X135917656Y-86812291D01*
X135929383Y-86824018D01*
X135943809Y-86836398D01*
X135957179Y-86846211D01*
X135979704Y-86870814D01*
X136016021Y-86910483D01*
X136019829Y-86914464D01*
X136081459Y-86976094D01*
X136090674Y-86989885D01*
X136102396Y-87004828D01*
X136113605Y-87017071D01*
X136158799Y-87091624D01*
X136161746Y-87096251D01*
X136210158Y-87168705D01*
X136216505Y-87184027D01*
X136225092Y-87200981D01*
X136233691Y-87215167D01*
X136263478Y-87297118D01*
X136265452Y-87302198D01*
X136298807Y-87382723D01*
X136298807Y-87382724D01*
X136302041Y-87398983D01*
X136307158Y-87417292D01*
X136312825Y-87432884D01*
X136326055Y-87519095D01*
X136327001Y-87524463D01*
X136344000Y-87609923D01*
X136344000Y-87626502D01*
X136345444Y-87645442D01*
X136347963Y-87661854D01*
X136344120Y-87748999D01*
X136344000Y-87754439D01*
X136344000Y-87841575D01*
X136340766Y-87857833D01*
X136338488Y-87876691D01*
X136337756Y-87893281D01*
X136316988Y-87977987D01*
X136315812Y-87983287D01*
X136298807Y-88068777D01*
X136292457Y-88084107D01*
X136286549Y-88102143D01*
X136282595Y-88118270D01*
X136245711Y-88197276D01*
X136243511Y-88202273D01*
X136210158Y-88282795D01*
X136200944Y-88296585D01*
X136191622Y-88313137D01*
X136184602Y-88328174D01*
X136133011Y-88398470D01*
X136129866Y-88402960D01*
X136081461Y-88475404D01*
X136024460Y-88532405D01*
X136019811Y-88537313D01*
X135209764Y-89440112D01*
X134694723Y-90014126D01*
X134566679Y-90131352D01*
X134467630Y-90191396D01*
X134368583Y-90251439D01*
X134150866Y-90330573D01*
X133921895Y-90365711D01*
X133690470Y-90355504D01*
X133465481Y-90300343D01*
X133360727Y-90251439D01*
X133255579Y-90202352D01*
X133200310Y-90161789D01*
X133068823Y-90065289D01*
X132978864Y-89967028D01*
X132912398Y-89894429D01*
X132830564Y-89759435D01*
X132792311Y-89696333D01*
X132713177Y-89478616D01*
X132678039Y-89249645D01*
X132688246Y-89018220D01*
X132743407Y-88793231D01*
X132794972Y-88682778D01*
X132841398Y-88583330D01*
X132861999Y-88555260D01*
X132944114Y-88443372D01*
X133699245Y-87601777D01*
X134230787Y-87009371D01*
X134241681Y-86995339D01*
X134254539Y-86976096D01*
X134311573Y-86919062D01*
X134316223Y-86914153D01*
X134331278Y-86897374D01*
X134352701Y-86877761D01*
X134356682Y-86873953D01*
X134418346Y-86812289D01*
X134432143Y-86803070D01*
X134447102Y-86791335D01*
X134459321Y-86780148D01*
X134495491Y-86758222D01*
X134533830Y-86734981D01*
X134538421Y-86732058D01*
X134610955Y-86683592D01*
X134626300Y-86677236D01*
X134643248Y-86668651D01*
X134657416Y-86660062D01*
X134657417Y-86660062D01*
X134657418Y-86660061D01*
X134739312Y-86630295D01*
X134744410Y-86628313D01*
X134824973Y-86594943D01*
X134841252Y-86591705D01*
X134859542Y-86586594D01*
X134875135Y-86580927D01*
X134961300Y-86567704D01*
X134966663Y-86566759D01*
X135052173Y-86549750D01*
X135068766Y-86549750D01*
X135087709Y-86548305D01*
X135104106Y-86545789D01*
X135191205Y-86549631D01*
X135191205Y-86549631D01*
G37*
G36*
X154241205Y-86549631D02*
G01*
X154246645Y-86549750D01*
X154333828Y-86549750D01*
X154350097Y-86552986D01*
X154368956Y-86555265D01*
X154385532Y-86555996D01*
X154470223Y-86576760D01*
X154475518Y-86577934D01*
X154561027Y-86594943D01*
X154576362Y-86601295D01*
X154594401Y-86607205D01*
X154610521Y-86611157D01*
X154689504Y-86648030D01*
X154694494Y-86650227D01*
X154775045Y-86683592D01*
X154788841Y-86692810D01*
X154805393Y-86702132D01*
X154820426Y-86709150D01*
X154890694Y-86760721D01*
X154895192Y-86763872D01*
X154967656Y-86812291D01*
X154979383Y-86824018D01*
X154993809Y-86836398D01*
X155007179Y-86846211D01*
X155029704Y-86870814D01*
X155066021Y-86910483D01*
X155069829Y-86914464D01*
X155131459Y-86976094D01*
X155140674Y-86989885D01*
X155152396Y-87004828D01*
X155163605Y-87017071D01*
X155208799Y-87091624D01*
X155211746Y-87096251D01*
X155260158Y-87168705D01*
X155266505Y-87184027D01*
X155275092Y-87200981D01*
X155283691Y-87215167D01*
X155313478Y-87297118D01*
X155315452Y-87302198D01*
X155348807Y-87382723D01*
X155348807Y-87382724D01*
X155352041Y-87398983D01*
X155357158Y-87417292D01*
X155362825Y-87432884D01*
X155376055Y-87519095D01*
X155377001Y-87524463D01*
X155394000Y-87609923D01*
X155394000Y-87626502D01*
X155395444Y-87645442D01*
X155397963Y-87661854D01*
X155394120Y-87748999D01*
X155394000Y-87754439D01*
X155394000Y-87841575D01*
X155390766Y-87857833D01*
X155388488Y-87876691D01*
X155387756Y-87893281D01*
X155366988Y-87977987D01*
X155365812Y-87983287D01*
X155348807Y-88068777D01*
X155342457Y-88084107D01*
X155336549Y-88102143D01*
X155332595Y-88118270D01*
X155295711Y-88197276D01*
X155293511Y-88202273D01*
X155260158Y-88282795D01*
X155250944Y-88296585D01*
X155241622Y-88313137D01*
X155234602Y-88328174D01*
X155183011Y-88398470D01*
X155179866Y-88402960D01*
X155131461Y-88475404D01*
X155074460Y-88532405D01*
X155069811Y-88537313D01*
X154259764Y-89440112D01*
X153744723Y-90014126D01*
X153616679Y-90131352D01*
X153517630Y-90191396D01*
X153418583Y-90251439D01*
X153200866Y-90330573D01*
X152971895Y-90365711D01*
X152740470Y-90355504D01*
X152515481Y-90300343D01*
X152410727Y-90251439D01*
X152305579Y-90202352D01*
X152250310Y-90161789D01*
X152118823Y-90065289D01*
X152028864Y-89967028D01*
X151962398Y-89894429D01*
X151880564Y-89759435D01*
X151842311Y-89696333D01*
X151763177Y-89478616D01*
X151728039Y-89249645D01*
X151738246Y-89018220D01*
X151793407Y-88793231D01*
X151844972Y-88682778D01*
X151891398Y-88583330D01*
X151911999Y-88555260D01*
X151994114Y-88443372D01*
X152749245Y-87601777D01*
X153280787Y-87009371D01*
X153291681Y-86995339D01*
X153304539Y-86976096D01*
X153361573Y-86919062D01*
X153366223Y-86914153D01*
X153381278Y-86897374D01*
X153402701Y-86877761D01*
X153406682Y-86873953D01*
X153468346Y-86812289D01*
X153482143Y-86803070D01*
X153497102Y-86791335D01*
X153509321Y-86780148D01*
X153545491Y-86758222D01*
X153583830Y-86734981D01*
X153588421Y-86732058D01*
X153660955Y-86683592D01*
X153676300Y-86677236D01*
X153693248Y-86668651D01*
X153707416Y-86660062D01*
X153707417Y-86660062D01*
X153707418Y-86660061D01*
X153789312Y-86630295D01*
X153794410Y-86628313D01*
X153874973Y-86594943D01*
X153891252Y-86591705D01*
X153909542Y-86586594D01*
X153925135Y-86580927D01*
X154011300Y-86567704D01*
X154016663Y-86566759D01*
X154102173Y-86549750D01*
X154118766Y-86549750D01*
X154137709Y-86548305D01*
X154154106Y-86545789D01*
X154241205Y-86549631D01*
X154241205Y-86549631D01*
G37*
G36*
X119583468Y-89111315D02*
G01*
X119622138Y-89123046D01*
X119657777Y-89142096D01*
X119689017Y-89167733D01*
X119714654Y-89198973D01*
X119733704Y-89234612D01*
X119745435Y-89273282D01*
X119750000Y-89319638D01*
X119750000Y-89970862D01*
X119745435Y-90017218D01*
X119733704Y-90055888D01*
X119714654Y-90091527D01*
X119689017Y-90122767D01*
X119657777Y-90148404D01*
X119622138Y-90167454D01*
X119583468Y-90179185D01*
X119537112Y-90183750D01*
X118460888Y-90183750D01*
X118414532Y-90179185D01*
X118375862Y-90167454D01*
X118340223Y-90148404D01*
X118308983Y-90122767D01*
X118283346Y-90091527D01*
X118264296Y-90055888D01*
X118252565Y-90017218D01*
X118248000Y-89970862D01*
X118248000Y-89319638D01*
X118252565Y-89273282D01*
X118264296Y-89234612D01*
X118283346Y-89198973D01*
X118308983Y-89167733D01*
X118340223Y-89142096D01*
X118375862Y-89123046D01*
X118414532Y-89111315D01*
X118460888Y-89106750D01*
X119537112Y-89106750D01*
X119583468Y-89111315D01*
X119583468Y-89111315D01*
G37*
G36*
X93427627Y-86623037D02*
G01*
X93597466Y-86674557D01*
X93597468Y-86674558D01*
X93649064Y-86702137D01*
X93753991Y-86758222D01*
X93780708Y-86780148D01*
X93891186Y-86870814D01*
X93974448Y-86972271D01*
X94003778Y-87008009D01*
X94087443Y-87164534D01*
X94138963Y-87334373D01*
X94138963Y-87334375D01*
X94152000Y-87466740D01*
X94152000Y-88555260D01*
X94149235Y-88583330D01*
X94138963Y-88687627D01*
X94087443Y-88857466D01*
X94003778Y-89013991D01*
X93974448Y-89049729D01*
X93891186Y-89151186D01*
X93753989Y-89263779D01*
X93632819Y-89328546D01*
X93597465Y-89347443D01*
X93427626Y-89398963D01*
X93251000Y-89416359D01*
X93074373Y-89398963D01*
X92904534Y-89347443D01*
X92748009Y-89263778D01*
X92702480Y-89226413D01*
X92610814Y-89151186D01*
X92498221Y-89013989D01*
X92414558Y-88857467D01*
X92395072Y-88793231D01*
X92363037Y-88687626D01*
X92352765Y-88583330D01*
X92350000Y-88555259D01*
X92350001Y-87466740D01*
X92363038Y-87334375D01*
X92363038Y-87334373D01*
X92414558Y-87164534D01*
X92498223Y-87008009D01*
X92527553Y-86972271D01*
X92610815Y-86870814D01*
X92721293Y-86780148D01*
X92748010Y-86758222D01*
X92852937Y-86702137D01*
X92904533Y-86674558D01*
X92904535Y-86674557D01*
X93074374Y-86623037D01*
X93251000Y-86605641D01*
X93427627Y-86623037D01*
X93427627Y-86623037D01*
G37*
G36*
X100727627Y-86623037D02*
G01*
X100897466Y-86674557D01*
X100897468Y-86674558D01*
X100949064Y-86702137D01*
X101053991Y-86758222D01*
X101080708Y-86780148D01*
X101191186Y-86870814D01*
X101274448Y-86972271D01*
X101303778Y-87008009D01*
X101387443Y-87164534D01*
X101438963Y-87334373D01*
X101438963Y-87334375D01*
X101452000Y-87466740D01*
X101452000Y-88555260D01*
X101449235Y-88583330D01*
X101438963Y-88687627D01*
X101387443Y-88857466D01*
X101303778Y-89013991D01*
X101274448Y-89049729D01*
X101191186Y-89151186D01*
X101053989Y-89263779D01*
X100932819Y-89328546D01*
X100897465Y-89347443D01*
X100727626Y-89398963D01*
X100551000Y-89416359D01*
X100374373Y-89398963D01*
X100204534Y-89347443D01*
X100048009Y-89263778D01*
X100002480Y-89226413D01*
X99910814Y-89151186D01*
X99798221Y-89013989D01*
X99714558Y-88857467D01*
X99695072Y-88793231D01*
X99663037Y-88687626D01*
X99652765Y-88583330D01*
X99650000Y-88555259D01*
X99650001Y-87466740D01*
X99663038Y-87334375D01*
X99663038Y-87334373D01*
X99714558Y-87164534D01*
X99798223Y-87008009D01*
X99827553Y-86972271D01*
X99910815Y-86870814D01*
X100021293Y-86780148D01*
X100048010Y-86758222D01*
X100152937Y-86702137D01*
X100204533Y-86674558D01*
X100204535Y-86674557D01*
X100374374Y-86623037D01*
X100551000Y-86605641D01*
X100727627Y-86623037D01*
X100727627Y-86623037D01*
G37*
G36*
X98802000Y-89187000D02*
G01*
X95000000Y-89187000D01*
X95000000Y-86835000D01*
X98802000Y-86835000D01*
X98802000Y-89187000D01*
X98802000Y-89187000D01*
G37*
G36*
X140296127Y-85468011D02*
G01*
X140316900Y-85469750D01*
X140323827Y-85469750D01*
X140418754Y-85488632D01*
X140422348Y-85489292D01*
X140517730Y-85505374D01*
X140524203Y-85507835D01*
X140544228Y-85513591D01*
X140551027Y-85514943D01*
X140613414Y-85540784D01*
X140640443Y-85551980D01*
X140643844Y-85553331D01*
X140734255Y-85587711D01*
X140740127Y-85591390D01*
X140758636Y-85600937D01*
X140765045Y-85603592D01*
X140845563Y-85657392D01*
X140848554Y-85659328D01*
X140930557Y-85710709D01*
X140935584Y-85715450D01*
X140951896Y-85728441D01*
X140957652Y-85732287D01*
X141026110Y-85800745D01*
X141028689Y-85803249D01*
X141099090Y-85869639D01*
X141103095Y-85875269D01*
X141116559Y-85891194D01*
X141121459Y-85896094D01*
X141175244Y-85976589D01*
X141177291Y-85979557D01*
X141233380Y-86058395D01*
X141236214Y-86064708D01*
X141246308Y-86082943D01*
X141250158Y-86088705D01*
X141287220Y-86178180D01*
X141288624Y-86181435D01*
X141328265Y-86269723D01*
X141329815Y-86276475D01*
X141336152Y-86296312D01*
X141338807Y-86302723D01*
X141357692Y-86397667D01*
X141358438Y-86401151D01*
X141380098Y-86495501D01*
X141380098Y-86495504D01*
X141380300Y-86502404D01*
X141382647Y-86523120D01*
X141384000Y-86529924D01*
X141384000Y-86626736D01*
X141384053Y-86630334D01*
X141385188Y-86669027D01*
X141384295Y-86681975D01*
X141384000Y-86690547D01*
X141384000Y-86761576D01*
X141378081Y-86791335D01*
X141377604Y-86793729D01*
X141375500Y-86809500D01*
X141337238Y-87364295D01*
X141308376Y-87535480D01*
X141226038Y-87752005D01*
X141103041Y-87948307D01*
X140944111Y-88116840D01*
X140755355Y-88251130D01*
X140544027Y-88346015D01*
X140318249Y-88397848D01*
X140086698Y-88404639D01*
X140086697Y-88404639D01*
X140041012Y-88396936D01*
X139858270Y-88366126D01*
X139641745Y-88283788D01*
X139445443Y-88160791D01*
X139276910Y-88001861D01*
X139142620Y-87813105D01*
X139047735Y-87601777D01*
X138995902Y-87375999D01*
X138990812Y-87202473D01*
X139031704Y-86609544D01*
X139032000Y-86600946D01*
X139032000Y-86529925D01*
X139050882Y-86435000D01*
X139051544Y-86431395D01*
X139057231Y-86397667D01*
X139067624Y-86336020D01*
X139070085Y-86329549D01*
X139075842Y-86309517D01*
X139077193Y-86302724D01*
X139079843Y-86296326D01*
X139114264Y-86213226D01*
X139115553Y-86209980D01*
X139149962Y-86119495D01*
X139153636Y-86113631D01*
X139163187Y-86095115D01*
X139165842Y-86088705D01*
X139219657Y-86008165D01*
X139221577Y-86005199D01*
X139272959Y-85923193D01*
X139277711Y-85918154D01*
X139290689Y-85901857D01*
X139294537Y-85896098D01*
X139362993Y-85827642D01*
X139365546Y-85825012D01*
X139386023Y-85803298D01*
X139431889Y-85754660D01*
X139437521Y-85750653D01*
X139453447Y-85737188D01*
X139458346Y-85732289D01*
X139538824Y-85678516D01*
X139541806Y-85676460D01*
X139620645Y-85620370D01*
X139626955Y-85617537D01*
X139645194Y-85607441D01*
X139650951Y-85603594D01*
X139650954Y-85603593D01*
X139650955Y-85603592D01*
X139740429Y-85566531D01*
X139743687Y-85565125D01*
X139831973Y-85525485D01*
X139838725Y-85523935D01*
X139858562Y-85517598D01*
X139864973Y-85514943D01*
X139959899Y-85496061D01*
X139963446Y-85495301D01*
X140057751Y-85473651D01*
X140060130Y-85473581D01*
X140064665Y-85473448D01*
X140085381Y-85471101D01*
X140092174Y-85469750D01*
X140188959Y-85469750D01*
X140192584Y-85469697D01*
X140289302Y-85466860D01*
X140296127Y-85468011D01*
X140296127Y-85468011D01*
G37*
G36*
X159346127Y-85468011D02*
G01*
X159366900Y-85469750D01*
X159373827Y-85469750D01*
X159468754Y-85488632D01*
X159472348Y-85489292D01*
X159567730Y-85505374D01*
X159574203Y-85507835D01*
X159594228Y-85513591D01*
X159601027Y-85514943D01*
X159663414Y-85540784D01*
X159690443Y-85551980D01*
X159693844Y-85553331D01*
X159784255Y-85587711D01*
X159790127Y-85591390D01*
X159808636Y-85600937D01*
X159815045Y-85603592D01*
X159895563Y-85657392D01*
X159898554Y-85659328D01*
X159980557Y-85710709D01*
X159985584Y-85715450D01*
X160001896Y-85728441D01*
X160007652Y-85732287D01*
X160076110Y-85800745D01*
X160078689Y-85803249D01*
X160149090Y-85869639D01*
X160153095Y-85875269D01*
X160166559Y-85891194D01*
X160171459Y-85896094D01*
X160225244Y-85976589D01*
X160227291Y-85979557D01*
X160283380Y-86058395D01*
X160286214Y-86064708D01*
X160296308Y-86082943D01*
X160300158Y-86088705D01*
X160337220Y-86178180D01*
X160338624Y-86181435D01*
X160378265Y-86269723D01*
X160379815Y-86276475D01*
X160386152Y-86296312D01*
X160388807Y-86302723D01*
X160407692Y-86397667D01*
X160408438Y-86401151D01*
X160430098Y-86495501D01*
X160430098Y-86495504D01*
X160430300Y-86502404D01*
X160432647Y-86523120D01*
X160434000Y-86529924D01*
X160434000Y-86626736D01*
X160434053Y-86630334D01*
X160435188Y-86669027D01*
X160434295Y-86681975D01*
X160434000Y-86690547D01*
X160434000Y-86761576D01*
X160428081Y-86791335D01*
X160427604Y-86793729D01*
X160425500Y-86809500D01*
X160387238Y-87364295D01*
X160358376Y-87535480D01*
X160276038Y-87752005D01*
X160153041Y-87948307D01*
X159994111Y-88116840D01*
X159805355Y-88251130D01*
X159594027Y-88346015D01*
X159368249Y-88397848D01*
X159136698Y-88404639D01*
X159136697Y-88404639D01*
X159091012Y-88396936D01*
X158908270Y-88366126D01*
X158691745Y-88283788D01*
X158495443Y-88160791D01*
X158326910Y-88001861D01*
X158192620Y-87813105D01*
X158097735Y-87601777D01*
X158045902Y-87375999D01*
X158040812Y-87202473D01*
X158081704Y-86609544D01*
X158082000Y-86600946D01*
X158082000Y-86529925D01*
X158100882Y-86435000D01*
X158101544Y-86431395D01*
X158107231Y-86397667D01*
X158117624Y-86336020D01*
X158120085Y-86329549D01*
X158125842Y-86309517D01*
X158127193Y-86302724D01*
X158129843Y-86296326D01*
X158164264Y-86213226D01*
X158165553Y-86209980D01*
X158199962Y-86119495D01*
X158203636Y-86113631D01*
X158213187Y-86095115D01*
X158215842Y-86088705D01*
X158269657Y-86008165D01*
X158271577Y-86005199D01*
X158322959Y-85923193D01*
X158327711Y-85918154D01*
X158340689Y-85901857D01*
X158344537Y-85896098D01*
X158412993Y-85827642D01*
X158415546Y-85825012D01*
X158436023Y-85803298D01*
X158481889Y-85754660D01*
X158487521Y-85750653D01*
X158503447Y-85737188D01*
X158508346Y-85732289D01*
X158588824Y-85678516D01*
X158591806Y-85676460D01*
X158670645Y-85620370D01*
X158676955Y-85617537D01*
X158695194Y-85607441D01*
X158700951Y-85603594D01*
X158700954Y-85603593D01*
X158700955Y-85603592D01*
X158790429Y-85566531D01*
X158793687Y-85565125D01*
X158881973Y-85525485D01*
X158888725Y-85523935D01*
X158908562Y-85517598D01*
X158914973Y-85514943D01*
X159009899Y-85496061D01*
X159013446Y-85495301D01*
X159107751Y-85473651D01*
X159110130Y-85473581D01*
X159114665Y-85473448D01*
X159135381Y-85471101D01*
X159142174Y-85469750D01*
X159238959Y-85469750D01*
X159242584Y-85469697D01*
X159339302Y-85466860D01*
X159346127Y-85468011D01*
X159346127Y-85468011D01*
G37*
G36*
X100727627Y-82123037D02*
G01*
X100897466Y-82174557D01*
X101053991Y-82258222D01*
X101089729Y-82287552D01*
X101191186Y-82370814D01*
X101274448Y-82472271D01*
X101303778Y-82508009D01*
X101387443Y-82664534D01*
X101438963Y-82834373D01*
X101452000Y-82966742D01*
X101452000Y-84055258D01*
X101438963Y-84187627D01*
X101387443Y-84357466D01*
X101303778Y-84513991D01*
X101274448Y-84549729D01*
X101191186Y-84651186D01*
X101053989Y-84763779D01*
X100897467Y-84847442D01*
X100897465Y-84847443D01*
X100727626Y-84898963D01*
X100551000Y-84916359D01*
X100374373Y-84898963D01*
X100204534Y-84847443D01*
X100048009Y-84763778D01*
X100012271Y-84734448D01*
X99910814Y-84651186D01*
X99798221Y-84513989D01*
X99714558Y-84357467D01*
X99714557Y-84357465D01*
X99663037Y-84187626D01*
X99650000Y-84055257D01*
X99650001Y-82966742D01*
X99663038Y-82834373D01*
X99714558Y-82664534D01*
X99798223Y-82508009D01*
X99827553Y-82472271D01*
X99910815Y-82370814D01*
X100012272Y-82287552D01*
X100048010Y-82258222D01*
X100204535Y-82174557D01*
X100374374Y-82123037D01*
X100551000Y-82105641D01*
X100727627Y-82123037D01*
X100727627Y-82123037D01*
G37*
G36*
X93427627Y-82123037D02*
G01*
X93597466Y-82174557D01*
X93753991Y-82258222D01*
X93789729Y-82287552D01*
X93891186Y-82370814D01*
X93974448Y-82472271D01*
X94003778Y-82508009D01*
X94087443Y-82664534D01*
X94138963Y-82834373D01*
X94152000Y-82966742D01*
X94152000Y-84055258D01*
X94138963Y-84187627D01*
X94087443Y-84357466D01*
X94003778Y-84513991D01*
X93974448Y-84549729D01*
X93891186Y-84651186D01*
X93753989Y-84763779D01*
X93597467Y-84847442D01*
X93597465Y-84847443D01*
X93427626Y-84898963D01*
X93251000Y-84916359D01*
X93074373Y-84898963D01*
X92904534Y-84847443D01*
X92748009Y-84763778D01*
X92712271Y-84734448D01*
X92610814Y-84651186D01*
X92498221Y-84513989D01*
X92414558Y-84357467D01*
X92414557Y-84357465D01*
X92363037Y-84187626D01*
X92350000Y-84055257D01*
X92350001Y-82966742D01*
X92363038Y-82834373D01*
X92414558Y-82664534D01*
X92498223Y-82508009D01*
X92527553Y-82472271D01*
X92610815Y-82370814D01*
X92712272Y-82287552D01*
X92748010Y-82258222D01*
X92904535Y-82174557D01*
X93074374Y-82123037D01*
X93251000Y-82105641D01*
X93427627Y-82123037D01*
X93427627Y-82123037D01*
G37*
M02*
