G04 #@! TF.GenerationSoftware,KiCad,Pcbnew,(5.1.4)-1*
G04 #@! TF.CreationDate,2021-03-02T11:58:10-08:00*
G04 #@! TF.ProjectId,NMB-75,4e4d422d-3735-42e6-9b69-6361645f7063,rev?*
G04 #@! TF.SameCoordinates,Original*
G04 #@! TF.FileFunction,Legend,Bot*
G04 #@! TF.FilePolarity,Positive*
%FSLAX46Y46*%
G04 Gerber Fmt 4.6, Leading zero omitted, Abs format (unit mm)*
G04 Created by KiCad (PCBNEW (5.1.4)-1) date 2021-03-02 11:58:10*
%MOMM*%
%LPD*%
G04 APERTURE LIST*
%ADD10C,0.150000*%
%ADD11C,0.120000*%
%ADD12R,1.302000X1.502000*%
%ADD13O,1.802000X2.802000*%
%ADD14R,0.602000X2.352000*%
%ADD15R,0.652000X1.602000*%
%ADD16R,1.602000X0.652000*%
%ADD17R,1.902000X1.202000*%
%ADD18C,0.100000*%
%ADD19C,1.352000*%
%ADD20C,1.852000*%
%ADD21C,2.352000*%
%ADD22C,4.089800*%
%ADD23C,2.352000*%
%ADD24R,1.302000X1.002000*%
%ADD25C,1.077000*%
G04 APERTURE END LIST*
D10*
X112213571Y-117051666D02*
X111971666Y-116930714D01*
X111487857Y-116930714D01*
X111245952Y-117051666D01*
X111125000Y-117293571D01*
X110036428Y-118503095D02*
X110278333Y-118624047D01*
X110762142Y-118624047D01*
X111004047Y-118503095D01*
X111125000Y-118261190D01*
X111125000Y-117293571D01*
X111004047Y-117051666D01*
X110762142Y-116930714D01*
X110278333Y-116930714D01*
X110036428Y-117051666D01*
X109915476Y-117293571D01*
X109915476Y-117535476D01*
X111125000Y-117656428D01*
X111971666Y-117656428D01*
X112213571Y-117777380D01*
X112334523Y-118019285D01*
X112334523Y-118261190D01*
X112213571Y-118503095D01*
X111971666Y-118624047D01*
X111487857Y-118624047D01*
X111245952Y-118503095D01*
X111125000Y-118261190D01*
D11*
X111761000Y-92963750D02*
X111761000Y-88963750D01*
X115061000Y-92963750D02*
X111761000Y-92963750D01*
D10*
X93051000Y-83511000D02*
X93051000Y-88961000D01*
X100751000Y-83511000D02*
X100751000Y-88961000D01*
X93051000Y-88961000D02*
X100751000Y-88961000D01*
X108744000Y-107755750D02*
X107469000Y-107755750D01*
X119094000Y-108330750D02*
X118419000Y-108330750D01*
X119094000Y-97980750D02*
X118419000Y-97980750D01*
X108744000Y-97980750D02*
X109419000Y-97980750D01*
X108744000Y-108330750D02*
X109419000Y-108330750D01*
X108744000Y-97980750D02*
X108744000Y-98655750D01*
X119094000Y-97980750D02*
X119094000Y-98655750D01*
X119094000Y-108330750D02*
X119094000Y-107655750D01*
X108744000Y-108330750D02*
X108744000Y-107755750D01*
X96961000Y-112970000D02*
X91761000Y-112970000D01*
X91761000Y-112970000D02*
X91761000Y-118170000D01*
X91761000Y-118170000D02*
X96961000Y-118170000D01*
X96961000Y-118170000D02*
X96961000Y-112970000D01*
X95361000Y-115570000D02*
G75*
G03X95361000Y-115570000I-1000000J0D01*
G01*
D11*
X123169000Y-112238064D02*
X123169000Y-111033936D01*
X124989000Y-112238064D02*
X124989000Y-111033936D01*
X93578000Y-93055064D02*
X93578000Y-91850936D01*
X95398000Y-93055064D02*
X95398000Y-91850936D01*
X97515000Y-93061064D02*
X97515000Y-91856936D01*
X99335000Y-93061064D02*
X99335000Y-91856936D01*
X103215064Y-98446000D02*
X102010936Y-98446000D01*
X103215064Y-96626000D02*
X102010936Y-96626000D01*
X90276000Y-101570064D02*
X90276000Y-100365936D01*
X92096000Y-101570064D02*
X92096000Y-100365936D01*
X165973000Y-113278750D02*
X165973000Y-109378750D01*
X163973000Y-113278750D02*
X163973000Y-109378750D01*
X165973000Y-113278750D02*
X163973000Y-113278750D01*
X146669000Y-113152750D02*
X146669000Y-109252750D01*
X144669000Y-113152750D02*
X144669000Y-109252750D01*
X146669000Y-113152750D02*
X144669000Y-113152750D01*
X165846000Y-94228750D02*
X165846000Y-90328750D01*
X163846000Y-94228750D02*
X163846000Y-90328750D01*
X165846000Y-94228750D02*
X163846000Y-94228750D01*
X146796000Y-93849750D02*
X146796000Y-89949750D01*
X144796000Y-93849750D02*
X144796000Y-89949750D01*
X146796000Y-93849750D02*
X144796000Y-93849750D01*
X110025922Y-111843750D02*
X110543078Y-111843750D01*
X110025922Y-113263750D02*
X110543078Y-113263750D01*
X124258000Y-100160828D02*
X124258000Y-99643672D01*
X125678000Y-100160828D02*
X125678000Y-99643672D01*
X117685078Y-113263750D02*
X117167922Y-113263750D01*
X117685078Y-111843750D02*
X117167922Y-111843750D01*
X111168922Y-94159000D02*
X111686078Y-94159000D01*
X111168922Y-95579000D02*
X111686078Y-95579000D01*
X103326000Y-110406922D02*
X103326000Y-110924078D01*
X101906000Y-110406922D02*
X101906000Y-110924078D01*
X107390000Y-90529672D02*
X107390000Y-91046828D01*
X105970000Y-90529672D02*
X105970000Y-91046828D01*
X118289000Y-90841328D02*
X118289000Y-90324172D01*
X119709000Y-90841328D02*
X119709000Y-90324172D01*
D10*
X115837190Y-90487559D02*
X116313380Y-90487559D01*
X115313380Y-90154226D02*
X115837190Y-90487559D01*
X115313380Y-90820892D01*
X116313380Y-91678035D02*
X116313380Y-91106607D01*
X116313380Y-91392321D02*
X115313380Y-91392321D01*
X115456238Y-91297083D01*
X115551476Y-91201845D01*
X115599095Y-91106607D01*
X98639095Y-84995380D02*
X98639095Y-85804904D01*
X98591476Y-85900142D01*
X98543857Y-85947761D01*
X98448619Y-85995380D01*
X98258142Y-85995380D01*
X98162904Y-85947761D01*
X98115285Y-85900142D01*
X98067666Y-85804904D01*
X98067666Y-84995380D01*
X97639095Y-85947761D02*
X97496238Y-85995380D01*
X97258142Y-85995380D01*
X97162904Y-85947761D01*
X97115285Y-85900142D01*
X97067666Y-85804904D01*
X97067666Y-85709666D01*
X97115285Y-85614428D01*
X97162904Y-85566809D01*
X97258142Y-85519190D01*
X97448619Y-85471571D01*
X97543857Y-85423952D01*
X97591476Y-85376333D01*
X97639095Y-85281095D01*
X97639095Y-85185857D01*
X97591476Y-85090619D01*
X97543857Y-85043000D01*
X97448619Y-84995380D01*
X97210523Y-84995380D01*
X97067666Y-85043000D01*
X96305761Y-85471571D02*
X96162904Y-85519190D01*
X96115285Y-85566809D01*
X96067666Y-85662047D01*
X96067666Y-85804904D01*
X96115285Y-85900142D01*
X96162904Y-85947761D01*
X96258142Y-85995380D01*
X96639095Y-85995380D01*
X96639095Y-84995380D01*
X96305761Y-84995380D01*
X96210523Y-85043000D01*
X96162904Y-85090619D01*
X96115285Y-85185857D01*
X96115285Y-85281095D01*
X96162904Y-85376333D01*
X96210523Y-85423952D01*
X96305761Y-85471571D01*
X96639095Y-85471571D01*
X95115285Y-85995380D02*
X95686714Y-85995380D01*
X95401000Y-85995380D02*
X95401000Y-84995380D01*
X95496238Y-85138238D01*
X95591476Y-85233476D01*
X95686714Y-85281095D01*
X114680904Y-110058130D02*
X114680904Y-110867654D01*
X114633285Y-110962892D01*
X114585666Y-111010511D01*
X114490428Y-111058130D01*
X114299952Y-111058130D01*
X114204714Y-111010511D01*
X114157095Y-110962892D01*
X114109476Y-110867654D01*
X114109476Y-110058130D01*
X113109476Y-111058130D02*
X113680904Y-111058130D01*
X113395190Y-111058130D02*
X113395190Y-110058130D01*
X113490428Y-110200988D01*
X113585666Y-110296226D01*
X113680904Y-110343845D01*
X95694333Y-120038761D02*
X95551476Y-120086380D01*
X95313380Y-120086380D01*
X95218142Y-120038761D01*
X95170523Y-119991142D01*
X95122904Y-119895904D01*
X95122904Y-119800666D01*
X95170523Y-119705428D01*
X95218142Y-119657809D01*
X95313380Y-119610190D01*
X95503857Y-119562571D01*
X95599095Y-119514952D01*
X95646714Y-119467333D01*
X95694333Y-119372095D01*
X95694333Y-119276857D01*
X95646714Y-119181619D01*
X95599095Y-119134000D01*
X95503857Y-119086380D01*
X95265761Y-119086380D01*
X95122904Y-119134000D01*
X94789571Y-119086380D02*
X94551476Y-120086380D01*
X94361000Y-119372095D01*
X94170523Y-120086380D01*
X93932428Y-119086380D01*
X93027666Y-120086380D02*
X93599095Y-120086380D01*
X93313380Y-120086380D02*
X93313380Y-119086380D01*
X93408619Y-119229238D01*
X93503857Y-119324476D01*
X93599095Y-119372095D01*
X126351380Y-111469333D02*
X125875190Y-111136000D01*
X126351380Y-110897904D02*
X125351380Y-110897904D01*
X125351380Y-111278857D01*
X125399000Y-111374095D01*
X125446619Y-111421714D01*
X125541857Y-111469333D01*
X125684714Y-111469333D01*
X125779952Y-111421714D01*
X125827571Y-111374095D01*
X125875190Y-111278857D01*
X125875190Y-110897904D01*
X125684714Y-112326476D02*
X126351380Y-112326476D01*
X125303761Y-112088380D02*
X126018047Y-111850285D01*
X126018047Y-112469333D01*
X96760380Y-92286333D02*
X96284190Y-91953000D01*
X96760380Y-91714904D02*
X95760380Y-91714904D01*
X95760380Y-92095857D01*
X95808000Y-92191095D01*
X95855619Y-92238714D01*
X95950857Y-92286333D01*
X96093714Y-92286333D01*
X96188952Y-92238714D01*
X96236571Y-92191095D01*
X96284190Y-92095857D01*
X96284190Y-91714904D01*
X95760380Y-92619666D02*
X95760380Y-93238714D01*
X96141333Y-92905380D01*
X96141333Y-93048238D01*
X96188952Y-93143476D01*
X96236571Y-93191095D01*
X96331809Y-93238714D01*
X96569904Y-93238714D01*
X96665142Y-93191095D01*
X96712761Y-93143476D01*
X96760380Y-93048238D01*
X96760380Y-92762523D01*
X96712761Y-92667285D01*
X96665142Y-92619666D01*
X100697380Y-92292333D02*
X100221190Y-91959000D01*
X100697380Y-91720904D02*
X99697380Y-91720904D01*
X99697380Y-92101857D01*
X99745000Y-92197095D01*
X99792619Y-92244714D01*
X99887857Y-92292333D01*
X100030714Y-92292333D01*
X100125952Y-92244714D01*
X100173571Y-92197095D01*
X100221190Y-92101857D01*
X100221190Y-91720904D01*
X99792619Y-92673285D02*
X99745000Y-92720904D01*
X99697380Y-92816142D01*
X99697380Y-93054238D01*
X99745000Y-93149476D01*
X99792619Y-93197095D01*
X99887857Y-93244714D01*
X99983095Y-93244714D01*
X100125952Y-93197095D01*
X100697380Y-92625666D01*
X100697380Y-93244714D01*
X102779666Y-96168380D02*
X103113000Y-95692190D01*
X103351095Y-96168380D02*
X103351095Y-95168380D01*
X102970142Y-95168380D01*
X102874904Y-95216000D01*
X102827285Y-95263619D01*
X102779666Y-95358857D01*
X102779666Y-95501714D01*
X102827285Y-95596952D01*
X102874904Y-95644571D01*
X102970142Y-95692190D01*
X103351095Y-95692190D01*
X101827285Y-96168380D02*
X102398714Y-96168380D01*
X102113000Y-96168380D02*
X102113000Y-95168380D01*
X102208238Y-95311238D01*
X102303476Y-95406476D01*
X102398714Y-95454095D01*
X92934571Y-100634666D02*
X92934571Y-100301333D01*
X93458380Y-100301333D02*
X92458380Y-100301333D01*
X92458380Y-100777523D01*
X93458380Y-101682285D02*
X93458380Y-101110857D01*
X93458380Y-101396571D02*
X92458380Y-101396571D01*
X92601238Y-101301333D01*
X92696476Y-101206095D01*
X92744095Y-101110857D01*
X167425380Y-110290654D02*
X166425380Y-110290654D01*
X166425380Y-110528750D01*
X166473000Y-110671607D01*
X166568238Y-110766845D01*
X166663476Y-110814464D01*
X166853952Y-110862083D01*
X166996809Y-110862083D01*
X167187285Y-110814464D01*
X167282523Y-110766845D01*
X167377761Y-110671607D01*
X167425380Y-110528750D01*
X167425380Y-110290654D01*
X166758714Y-111719226D02*
X167425380Y-111719226D01*
X166377761Y-111481130D02*
X167092047Y-111243035D01*
X167092047Y-111862083D01*
X148121380Y-110164654D02*
X147121380Y-110164654D01*
X147121380Y-110402750D01*
X147169000Y-110545607D01*
X147264238Y-110640845D01*
X147359476Y-110688464D01*
X147549952Y-110736083D01*
X147692809Y-110736083D01*
X147883285Y-110688464D01*
X147978523Y-110640845D01*
X148073761Y-110545607D01*
X148121380Y-110402750D01*
X148121380Y-110164654D01*
X147121380Y-111069416D02*
X147121380Y-111688464D01*
X147502333Y-111355130D01*
X147502333Y-111497988D01*
X147549952Y-111593226D01*
X147597571Y-111640845D01*
X147692809Y-111688464D01*
X147930904Y-111688464D01*
X148026142Y-111640845D01*
X148073761Y-111593226D01*
X148121380Y-111497988D01*
X148121380Y-111212273D01*
X148073761Y-111117035D01*
X148026142Y-111069416D01*
X167298380Y-91240654D02*
X166298380Y-91240654D01*
X166298380Y-91478750D01*
X166346000Y-91621607D01*
X166441238Y-91716845D01*
X166536476Y-91764464D01*
X166726952Y-91812083D01*
X166869809Y-91812083D01*
X167060285Y-91764464D01*
X167155523Y-91716845D01*
X167250761Y-91621607D01*
X167298380Y-91478750D01*
X167298380Y-91240654D01*
X166393619Y-92193035D02*
X166346000Y-92240654D01*
X166298380Y-92335892D01*
X166298380Y-92573988D01*
X166346000Y-92669226D01*
X166393619Y-92716845D01*
X166488857Y-92764464D01*
X166584095Y-92764464D01*
X166726952Y-92716845D01*
X167298380Y-92145416D01*
X167298380Y-92764464D01*
X148248380Y-90861654D02*
X147248380Y-90861654D01*
X147248380Y-91099750D01*
X147296000Y-91242607D01*
X147391238Y-91337845D01*
X147486476Y-91385464D01*
X147676952Y-91433083D01*
X147819809Y-91433083D01*
X148010285Y-91385464D01*
X148105523Y-91337845D01*
X148200761Y-91242607D01*
X148248380Y-91099750D01*
X148248380Y-90861654D01*
X148248380Y-92385464D02*
X148248380Y-91814035D01*
X148248380Y-92099750D02*
X147248380Y-92099750D01*
X147391238Y-92004511D01*
X147486476Y-91909273D01*
X147534095Y-91814035D01*
X110451166Y-114560892D02*
X110498785Y-114608511D01*
X110641642Y-114656130D01*
X110736880Y-114656130D01*
X110879738Y-114608511D01*
X110974976Y-114513273D01*
X111022595Y-114418035D01*
X111070214Y-114227559D01*
X111070214Y-114084702D01*
X111022595Y-113894226D01*
X110974976Y-113798988D01*
X110879738Y-113703750D01*
X110736880Y-113656130D01*
X110641642Y-113656130D01*
X110498785Y-113703750D01*
X110451166Y-113751369D01*
X110117833Y-113656130D02*
X109451166Y-113656130D01*
X109879738Y-114656130D01*
X126975142Y-99735583D02*
X127022761Y-99687964D01*
X127070380Y-99545107D01*
X127070380Y-99449869D01*
X127022761Y-99307011D01*
X126927523Y-99211773D01*
X126832285Y-99164154D01*
X126641809Y-99116535D01*
X126498952Y-99116535D01*
X126308476Y-99164154D01*
X126213238Y-99211773D01*
X126118000Y-99307011D01*
X126070380Y-99449869D01*
X126070380Y-99545107D01*
X126118000Y-99687964D01*
X126165619Y-99735583D01*
X126070380Y-100592726D02*
X126070380Y-100402250D01*
X126118000Y-100307011D01*
X126165619Y-100259392D01*
X126308476Y-100164154D01*
X126498952Y-100116535D01*
X126879904Y-100116535D01*
X126975142Y-100164154D01*
X127022761Y-100211773D01*
X127070380Y-100307011D01*
X127070380Y-100497488D01*
X127022761Y-100592726D01*
X126975142Y-100640345D01*
X126879904Y-100687964D01*
X126641809Y-100687964D01*
X126546571Y-100640345D01*
X126498952Y-100592726D01*
X126451333Y-100497488D01*
X126451333Y-100307011D01*
X126498952Y-100211773D01*
X126546571Y-100164154D01*
X126641809Y-100116535D01*
X117593166Y-111260892D02*
X117640785Y-111308511D01*
X117783642Y-111356130D01*
X117878880Y-111356130D01*
X118021738Y-111308511D01*
X118116976Y-111213273D01*
X118164595Y-111118035D01*
X118212214Y-110927559D01*
X118212214Y-110784702D01*
X118164595Y-110594226D01*
X118116976Y-110498988D01*
X118021738Y-110403750D01*
X117878880Y-110356130D01*
X117783642Y-110356130D01*
X117640785Y-110403750D01*
X117593166Y-110451369D01*
X116688404Y-110356130D02*
X117164595Y-110356130D01*
X117212214Y-110832321D01*
X117164595Y-110784702D01*
X117069357Y-110737083D01*
X116831261Y-110737083D01*
X116736023Y-110784702D01*
X116688404Y-110832321D01*
X116640785Y-110927559D01*
X116640785Y-111165654D01*
X116688404Y-111260892D01*
X116736023Y-111308511D01*
X116831261Y-111356130D01*
X117069357Y-111356130D01*
X117164595Y-111308511D01*
X117212214Y-111260892D01*
X111594166Y-96876142D02*
X111641785Y-96923761D01*
X111784642Y-96971380D01*
X111879880Y-96971380D01*
X112022738Y-96923761D01*
X112117976Y-96828523D01*
X112165595Y-96733285D01*
X112213214Y-96542809D01*
X112213214Y-96399952D01*
X112165595Y-96209476D01*
X112117976Y-96114238D01*
X112022738Y-96019000D01*
X111879880Y-95971380D01*
X111784642Y-95971380D01*
X111641785Y-96019000D01*
X111594166Y-96066619D01*
X110737023Y-96304714D02*
X110737023Y-96971380D01*
X110975119Y-95923761D02*
X111213214Y-96638047D01*
X110594166Y-96638047D01*
X101323142Y-110498833D02*
X101370761Y-110451214D01*
X101418380Y-110308357D01*
X101418380Y-110213119D01*
X101370761Y-110070261D01*
X101275523Y-109975023D01*
X101180285Y-109927404D01*
X100989809Y-109879785D01*
X100846952Y-109879785D01*
X100656476Y-109927404D01*
X100561238Y-109975023D01*
X100466000Y-110070261D01*
X100418380Y-110213119D01*
X100418380Y-110308357D01*
X100466000Y-110451214D01*
X100513619Y-110498833D01*
X100418380Y-110832166D02*
X100418380Y-111451214D01*
X100799333Y-111117880D01*
X100799333Y-111260738D01*
X100846952Y-111355976D01*
X100894571Y-111403595D01*
X100989809Y-111451214D01*
X101227904Y-111451214D01*
X101323142Y-111403595D01*
X101370761Y-111355976D01*
X101418380Y-111260738D01*
X101418380Y-110975023D01*
X101370761Y-110879785D01*
X101323142Y-110832166D01*
X105387142Y-90621583D02*
X105434761Y-90573964D01*
X105482380Y-90431107D01*
X105482380Y-90335869D01*
X105434761Y-90193011D01*
X105339523Y-90097773D01*
X105244285Y-90050154D01*
X105053809Y-90002535D01*
X104910952Y-90002535D01*
X104720476Y-90050154D01*
X104625238Y-90097773D01*
X104530000Y-90193011D01*
X104482380Y-90335869D01*
X104482380Y-90431107D01*
X104530000Y-90573964D01*
X104577619Y-90621583D01*
X104577619Y-91002535D02*
X104530000Y-91050154D01*
X104482380Y-91145392D01*
X104482380Y-91383488D01*
X104530000Y-91478726D01*
X104577619Y-91526345D01*
X104672857Y-91573964D01*
X104768095Y-91573964D01*
X104910952Y-91526345D01*
X105482380Y-90954916D01*
X105482380Y-91573964D01*
X121006142Y-90416083D02*
X121053761Y-90368464D01*
X121101380Y-90225607D01*
X121101380Y-90130369D01*
X121053761Y-89987511D01*
X120958523Y-89892273D01*
X120863285Y-89844654D01*
X120672809Y-89797035D01*
X120529952Y-89797035D01*
X120339476Y-89844654D01*
X120244238Y-89892273D01*
X120149000Y-89987511D01*
X120101380Y-90130369D01*
X120101380Y-90225607D01*
X120149000Y-90368464D01*
X120196619Y-90416083D01*
X121101380Y-91368464D02*
X121101380Y-90797035D01*
X121101380Y-91082750D02*
X120101380Y-91082750D01*
X120244238Y-90987511D01*
X120339476Y-90892273D01*
X120387095Y-90797035D01*
%LPC*%
D12*
X114261000Y-92063750D03*
X114261000Y-89863750D03*
X112561000Y-89863750D03*
X112561000Y-92063750D03*
D13*
X93251000Y-83511000D03*
X100551000Y-83511000D03*
X100551000Y-88011000D03*
X93251000Y-88011000D03*
D14*
X95301000Y-88011000D03*
X96101000Y-88011000D03*
X96901000Y-88011000D03*
X97701000Y-88011000D03*
X98501000Y-88011000D03*
D15*
X109919000Y-108855750D03*
X110719000Y-108855750D03*
X111519000Y-108855750D03*
X112319000Y-108855750D03*
X113119000Y-108855750D03*
X113919000Y-108855750D03*
X114719000Y-108855750D03*
X115519000Y-108855750D03*
X116319000Y-108855750D03*
X117119000Y-108855750D03*
X117919000Y-108855750D03*
D16*
X119619000Y-107155750D03*
X119619000Y-106355750D03*
X119619000Y-105555750D03*
X119619000Y-104755750D03*
X119619000Y-103955750D03*
X119619000Y-103155750D03*
X119619000Y-102355750D03*
X119619000Y-101555750D03*
X119619000Y-100755750D03*
X119619000Y-99955750D03*
X119619000Y-99155750D03*
D15*
X117919000Y-97455750D03*
X117119000Y-97455750D03*
X116319000Y-97455750D03*
X115519000Y-97455750D03*
X114719000Y-97455750D03*
X113919000Y-97455750D03*
X113119000Y-97455750D03*
X112319000Y-97455750D03*
X111519000Y-97455750D03*
X110719000Y-97455750D03*
X109919000Y-97455750D03*
D16*
X108219000Y-99155750D03*
X108219000Y-99955750D03*
X108219000Y-100755750D03*
X108219000Y-101555750D03*
X108219000Y-102355750D03*
X108219000Y-103155750D03*
X108219000Y-103955750D03*
X108219000Y-104755750D03*
X108219000Y-105555750D03*
X108219000Y-106355750D03*
X108219000Y-107155750D03*
D17*
X97461000Y-117420000D03*
X91261000Y-113720000D03*
X97461000Y-113720000D03*
X91261000Y-117420000D03*
D18*
G36*
X124761104Y-109561302D02*
G01*
X124787352Y-109565196D01*
X124813093Y-109571643D01*
X124838078Y-109580583D01*
X124862066Y-109591928D01*
X124884826Y-109605571D01*
X124906140Y-109621378D01*
X124925802Y-109639198D01*
X124943622Y-109658860D01*
X124959429Y-109680174D01*
X124973072Y-109702934D01*
X124984417Y-109726922D01*
X124993357Y-109751907D01*
X124999804Y-109777648D01*
X125003698Y-109803896D01*
X125005000Y-109830400D01*
X125005000Y-110641600D01*
X125003698Y-110668104D01*
X124999804Y-110694352D01*
X124993357Y-110720093D01*
X124984417Y-110745078D01*
X124973072Y-110769066D01*
X124959429Y-110791826D01*
X124943622Y-110813140D01*
X124925802Y-110832802D01*
X124906140Y-110850622D01*
X124884826Y-110866429D01*
X124862066Y-110880072D01*
X124838078Y-110891417D01*
X124813093Y-110900357D01*
X124787352Y-110906804D01*
X124761104Y-110910698D01*
X124734600Y-110912000D01*
X123423400Y-110912000D01*
X123396896Y-110910698D01*
X123370648Y-110906804D01*
X123344907Y-110900357D01*
X123319922Y-110891417D01*
X123295934Y-110880072D01*
X123273174Y-110866429D01*
X123251860Y-110850622D01*
X123232198Y-110832802D01*
X123214378Y-110813140D01*
X123198571Y-110791826D01*
X123184928Y-110769066D01*
X123173583Y-110745078D01*
X123164643Y-110720093D01*
X123158196Y-110694352D01*
X123154302Y-110668104D01*
X123153000Y-110641600D01*
X123153000Y-109830400D01*
X123154302Y-109803896D01*
X123158196Y-109777648D01*
X123164643Y-109751907D01*
X123173583Y-109726922D01*
X123184928Y-109702934D01*
X123198571Y-109680174D01*
X123214378Y-109658860D01*
X123232198Y-109639198D01*
X123251860Y-109621378D01*
X123273174Y-109605571D01*
X123295934Y-109591928D01*
X123319922Y-109580583D01*
X123344907Y-109571643D01*
X123370648Y-109565196D01*
X123396896Y-109561302D01*
X123423400Y-109560000D01*
X124734600Y-109560000D01*
X124761104Y-109561302D01*
X124761104Y-109561302D01*
G37*
D19*
X124079000Y-110236000D03*
D18*
G36*
X124761104Y-112361302D02*
G01*
X124787352Y-112365196D01*
X124813093Y-112371643D01*
X124838078Y-112380583D01*
X124862066Y-112391928D01*
X124884826Y-112405571D01*
X124906140Y-112421378D01*
X124925802Y-112439198D01*
X124943622Y-112458860D01*
X124959429Y-112480174D01*
X124973072Y-112502934D01*
X124984417Y-112526922D01*
X124993357Y-112551907D01*
X124999804Y-112577648D01*
X125003698Y-112603896D01*
X125005000Y-112630400D01*
X125005000Y-113441600D01*
X125003698Y-113468104D01*
X124999804Y-113494352D01*
X124993357Y-113520093D01*
X124984417Y-113545078D01*
X124973072Y-113569066D01*
X124959429Y-113591826D01*
X124943622Y-113613140D01*
X124925802Y-113632802D01*
X124906140Y-113650622D01*
X124884826Y-113666429D01*
X124862066Y-113680072D01*
X124838078Y-113691417D01*
X124813093Y-113700357D01*
X124787352Y-113706804D01*
X124761104Y-113710698D01*
X124734600Y-113712000D01*
X123423400Y-113712000D01*
X123396896Y-113710698D01*
X123370648Y-113706804D01*
X123344907Y-113700357D01*
X123319922Y-113691417D01*
X123295934Y-113680072D01*
X123273174Y-113666429D01*
X123251860Y-113650622D01*
X123232198Y-113632802D01*
X123214378Y-113613140D01*
X123198571Y-113591826D01*
X123184928Y-113569066D01*
X123173583Y-113545078D01*
X123164643Y-113520093D01*
X123158196Y-113494352D01*
X123154302Y-113468104D01*
X123153000Y-113441600D01*
X123153000Y-112630400D01*
X123154302Y-112603896D01*
X123158196Y-112577648D01*
X123164643Y-112551907D01*
X123173583Y-112526922D01*
X123184928Y-112502934D01*
X123198571Y-112480174D01*
X123214378Y-112458860D01*
X123232198Y-112439198D01*
X123251860Y-112421378D01*
X123273174Y-112405571D01*
X123295934Y-112391928D01*
X123319922Y-112380583D01*
X123344907Y-112371643D01*
X123370648Y-112365196D01*
X123396896Y-112361302D01*
X123423400Y-112360000D01*
X124734600Y-112360000D01*
X124761104Y-112361302D01*
X124761104Y-112361302D01*
G37*
D19*
X124079000Y-113036000D03*
D18*
G36*
X95170104Y-90378302D02*
G01*
X95196352Y-90382196D01*
X95222093Y-90388643D01*
X95247078Y-90397583D01*
X95271066Y-90408928D01*
X95293826Y-90422571D01*
X95315140Y-90438378D01*
X95334802Y-90456198D01*
X95352622Y-90475860D01*
X95368429Y-90497174D01*
X95382072Y-90519934D01*
X95393417Y-90543922D01*
X95402357Y-90568907D01*
X95408804Y-90594648D01*
X95412698Y-90620896D01*
X95414000Y-90647400D01*
X95414000Y-91458600D01*
X95412698Y-91485104D01*
X95408804Y-91511352D01*
X95402357Y-91537093D01*
X95393417Y-91562078D01*
X95382072Y-91586066D01*
X95368429Y-91608826D01*
X95352622Y-91630140D01*
X95334802Y-91649802D01*
X95315140Y-91667622D01*
X95293826Y-91683429D01*
X95271066Y-91697072D01*
X95247078Y-91708417D01*
X95222093Y-91717357D01*
X95196352Y-91723804D01*
X95170104Y-91727698D01*
X95143600Y-91729000D01*
X93832400Y-91729000D01*
X93805896Y-91727698D01*
X93779648Y-91723804D01*
X93753907Y-91717357D01*
X93728922Y-91708417D01*
X93704934Y-91697072D01*
X93682174Y-91683429D01*
X93660860Y-91667622D01*
X93641198Y-91649802D01*
X93623378Y-91630140D01*
X93607571Y-91608826D01*
X93593928Y-91586066D01*
X93582583Y-91562078D01*
X93573643Y-91537093D01*
X93567196Y-91511352D01*
X93563302Y-91485104D01*
X93562000Y-91458600D01*
X93562000Y-90647400D01*
X93563302Y-90620896D01*
X93567196Y-90594648D01*
X93573643Y-90568907D01*
X93582583Y-90543922D01*
X93593928Y-90519934D01*
X93607571Y-90497174D01*
X93623378Y-90475860D01*
X93641198Y-90456198D01*
X93660860Y-90438378D01*
X93682174Y-90422571D01*
X93704934Y-90408928D01*
X93728922Y-90397583D01*
X93753907Y-90388643D01*
X93779648Y-90382196D01*
X93805896Y-90378302D01*
X93832400Y-90377000D01*
X95143600Y-90377000D01*
X95170104Y-90378302D01*
X95170104Y-90378302D01*
G37*
D19*
X94488000Y-91053000D03*
D18*
G36*
X95170104Y-93178302D02*
G01*
X95196352Y-93182196D01*
X95222093Y-93188643D01*
X95247078Y-93197583D01*
X95271066Y-93208928D01*
X95293826Y-93222571D01*
X95315140Y-93238378D01*
X95334802Y-93256198D01*
X95352622Y-93275860D01*
X95368429Y-93297174D01*
X95382072Y-93319934D01*
X95393417Y-93343922D01*
X95402357Y-93368907D01*
X95408804Y-93394648D01*
X95412698Y-93420896D01*
X95414000Y-93447400D01*
X95414000Y-94258600D01*
X95412698Y-94285104D01*
X95408804Y-94311352D01*
X95402357Y-94337093D01*
X95393417Y-94362078D01*
X95382072Y-94386066D01*
X95368429Y-94408826D01*
X95352622Y-94430140D01*
X95334802Y-94449802D01*
X95315140Y-94467622D01*
X95293826Y-94483429D01*
X95271066Y-94497072D01*
X95247078Y-94508417D01*
X95222093Y-94517357D01*
X95196352Y-94523804D01*
X95170104Y-94527698D01*
X95143600Y-94529000D01*
X93832400Y-94529000D01*
X93805896Y-94527698D01*
X93779648Y-94523804D01*
X93753907Y-94517357D01*
X93728922Y-94508417D01*
X93704934Y-94497072D01*
X93682174Y-94483429D01*
X93660860Y-94467622D01*
X93641198Y-94449802D01*
X93623378Y-94430140D01*
X93607571Y-94408826D01*
X93593928Y-94386066D01*
X93582583Y-94362078D01*
X93573643Y-94337093D01*
X93567196Y-94311352D01*
X93563302Y-94285104D01*
X93562000Y-94258600D01*
X93562000Y-93447400D01*
X93563302Y-93420896D01*
X93567196Y-93394648D01*
X93573643Y-93368907D01*
X93582583Y-93343922D01*
X93593928Y-93319934D01*
X93607571Y-93297174D01*
X93623378Y-93275860D01*
X93641198Y-93256198D01*
X93660860Y-93238378D01*
X93682174Y-93222571D01*
X93704934Y-93208928D01*
X93728922Y-93197583D01*
X93753907Y-93188643D01*
X93779648Y-93182196D01*
X93805896Y-93178302D01*
X93832400Y-93177000D01*
X95143600Y-93177000D01*
X95170104Y-93178302D01*
X95170104Y-93178302D01*
G37*
D19*
X94488000Y-93853000D03*
D18*
G36*
X99107104Y-90384302D02*
G01*
X99133352Y-90388196D01*
X99159093Y-90394643D01*
X99184078Y-90403583D01*
X99208066Y-90414928D01*
X99230826Y-90428571D01*
X99252140Y-90444378D01*
X99271802Y-90462198D01*
X99289622Y-90481860D01*
X99305429Y-90503174D01*
X99319072Y-90525934D01*
X99330417Y-90549922D01*
X99339357Y-90574907D01*
X99345804Y-90600648D01*
X99349698Y-90626896D01*
X99351000Y-90653400D01*
X99351000Y-91464600D01*
X99349698Y-91491104D01*
X99345804Y-91517352D01*
X99339357Y-91543093D01*
X99330417Y-91568078D01*
X99319072Y-91592066D01*
X99305429Y-91614826D01*
X99289622Y-91636140D01*
X99271802Y-91655802D01*
X99252140Y-91673622D01*
X99230826Y-91689429D01*
X99208066Y-91703072D01*
X99184078Y-91714417D01*
X99159093Y-91723357D01*
X99133352Y-91729804D01*
X99107104Y-91733698D01*
X99080600Y-91735000D01*
X97769400Y-91735000D01*
X97742896Y-91733698D01*
X97716648Y-91729804D01*
X97690907Y-91723357D01*
X97665922Y-91714417D01*
X97641934Y-91703072D01*
X97619174Y-91689429D01*
X97597860Y-91673622D01*
X97578198Y-91655802D01*
X97560378Y-91636140D01*
X97544571Y-91614826D01*
X97530928Y-91592066D01*
X97519583Y-91568078D01*
X97510643Y-91543093D01*
X97504196Y-91517352D01*
X97500302Y-91491104D01*
X97499000Y-91464600D01*
X97499000Y-90653400D01*
X97500302Y-90626896D01*
X97504196Y-90600648D01*
X97510643Y-90574907D01*
X97519583Y-90549922D01*
X97530928Y-90525934D01*
X97544571Y-90503174D01*
X97560378Y-90481860D01*
X97578198Y-90462198D01*
X97597860Y-90444378D01*
X97619174Y-90428571D01*
X97641934Y-90414928D01*
X97665922Y-90403583D01*
X97690907Y-90394643D01*
X97716648Y-90388196D01*
X97742896Y-90384302D01*
X97769400Y-90383000D01*
X99080600Y-90383000D01*
X99107104Y-90384302D01*
X99107104Y-90384302D01*
G37*
D19*
X98425000Y-91059000D03*
D18*
G36*
X99107104Y-93184302D02*
G01*
X99133352Y-93188196D01*
X99159093Y-93194643D01*
X99184078Y-93203583D01*
X99208066Y-93214928D01*
X99230826Y-93228571D01*
X99252140Y-93244378D01*
X99271802Y-93262198D01*
X99289622Y-93281860D01*
X99305429Y-93303174D01*
X99319072Y-93325934D01*
X99330417Y-93349922D01*
X99339357Y-93374907D01*
X99345804Y-93400648D01*
X99349698Y-93426896D01*
X99351000Y-93453400D01*
X99351000Y-94264600D01*
X99349698Y-94291104D01*
X99345804Y-94317352D01*
X99339357Y-94343093D01*
X99330417Y-94368078D01*
X99319072Y-94392066D01*
X99305429Y-94414826D01*
X99289622Y-94436140D01*
X99271802Y-94455802D01*
X99252140Y-94473622D01*
X99230826Y-94489429D01*
X99208066Y-94503072D01*
X99184078Y-94514417D01*
X99159093Y-94523357D01*
X99133352Y-94529804D01*
X99107104Y-94533698D01*
X99080600Y-94535000D01*
X97769400Y-94535000D01*
X97742896Y-94533698D01*
X97716648Y-94529804D01*
X97690907Y-94523357D01*
X97665922Y-94514417D01*
X97641934Y-94503072D01*
X97619174Y-94489429D01*
X97597860Y-94473622D01*
X97578198Y-94455802D01*
X97560378Y-94436140D01*
X97544571Y-94414826D01*
X97530928Y-94392066D01*
X97519583Y-94368078D01*
X97510643Y-94343093D01*
X97504196Y-94317352D01*
X97500302Y-94291104D01*
X97499000Y-94264600D01*
X97499000Y-93453400D01*
X97500302Y-93426896D01*
X97504196Y-93400648D01*
X97510643Y-93374907D01*
X97519583Y-93349922D01*
X97530928Y-93325934D01*
X97544571Y-93303174D01*
X97560378Y-93281860D01*
X97578198Y-93262198D01*
X97597860Y-93244378D01*
X97619174Y-93228571D01*
X97641934Y-93214928D01*
X97665922Y-93203583D01*
X97690907Y-93194643D01*
X97716648Y-93188196D01*
X97742896Y-93184302D01*
X97769400Y-93183000D01*
X99080600Y-93183000D01*
X99107104Y-93184302D01*
X99107104Y-93184302D01*
G37*
D19*
X98425000Y-93859000D03*
D18*
G36*
X101645104Y-96611302D02*
G01*
X101671352Y-96615196D01*
X101697093Y-96621643D01*
X101722078Y-96630583D01*
X101746066Y-96641928D01*
X101768826Y-96655571D01*
X101790140Y-96671378D01*
X101809802Y-96689198D01*
X101827622Y-96708860D01*
X101843429Y-96730174D01*
X101857072Y-96752934D01*
X101868417Y-96776922D01*
X101877357Y-96801907D01*
X101883804Y-96827648D01*
X101887698Y-96853896D01*
X101889000Y-96880400D01*
X101889000Y-98191600D01*
X101887698Y-98218104D01*
X101883804Y-98244352D01*
X101877357Y-98270093D01*
X101868417Y-98295078D01*
X101857072Y-98319066D01*
X101843429Y-98341826D01*
X101827622Y-98363140D01*
X101809802Y-98382802D01*
X101790140Y-98400622D01*
X101768826Y-98416429D01*
X101746066Y-98430072D01*
X101722078Y-98441417D01*
X101697093Y-98450357D01*
X101671352Y-98456804D01*
X101645104Y-98460698D01*
X101618600Y-98462000D01*
X100807400Y-98462000D01*
X100780896Y-98460698D01*
X100754648Y-98456804D01*
X100728907Y-98450357D01*
X100703922Y-98441417D01*
X100679934Y-98430072D01*
X100657174Y-98416429D01*
X100635860Y-98400622D01*
X100616198Y-98382802D01*
X100598378Y-98363140D01*
X100582571Y-98341826D01*
X100568928Y-98319066D01*
X100557583Y-98295078D01*
X100548643Y-98270093D01*
X100542196Y-98244352D01*
X100538302Y-98218104D01*
X100537000Y-98191600D01*
X100537000Y-96880400D01*
X100538302Y-96853896D01*
X100542196Y-96827648D01*
X100548643Y-96801907D01*
X100557583Y-96776922D01*
X100568928Y-96752934D01*
X100582571Y-96730174D01*
X100598378Y-96708860D01*
X100616198Y-96689198D01*
X100635860Y-96671378D01*
X100657174Y-96655571D01*
X100679934Y-96641928D01*
X100703922Y-96630583D01*
X100728907Y-96621643D01*
X100754648Y-96615196D01*
X100780896Y-96611302D01*
X100807400Y-96610000D01*
X101618600Y-96610000D01*
X101645104Y-96611302D01*
X101645104Y-96611302D01*
G37*
D19*
X101213000Y-97536000D03*
D18*
G36*
X104445104Y-96611302D02*
G01*
X104471352Y-96615196D01*
X104497093Y-96621643D01*
X104522078Y-96630583D01*
X104546066Y-96641928D01*
X104568826Y-96655571D01*
X104590140Y-96671378D01*
X104609802Y-96689198D01*
X104627622Y-96708860D01*
X104643429Y-96730174D01*
X104657072Y-96752934D01*
X104668417Y-96776922D01*
X104677357Y-96801907D01*
X104683804Y-96827648D01*
X104687698Y-96853896D01*
X104689000Y-96880400D01*
X104689000Y-98191600D01*
X104687698Y-98218104D01*
X104683804Y-98244352D01*
X104677357Y-98270093D01*
X104668417Y-98295078D01*
X104657072Y-98319066D01*
X104643429Y-98341826D01*
X104627622Y-98363140D01*
X104609802Y-98382802D01*
X104590140Y-98400622D01*
X104568826Y-98416429D01*
X104546066Y-98430072D01*
X104522078Y-98441417D01*
X104497093Y-98450357D01*
X104471352Y-98456804D01*
X104445104Y-98460698D01*
X104418600Y-98462000D01*
X103607400Y-98462000D01*
X103580896Y-98460698D01*
X103554648Y-98456804D01*
X103528907Y-98450357D01*
X103503922Y-98441417D01*
X103479934Y-98430072D01*
X103457174Y-98416429D01*
X103435860Y-98400622D01*
X103416198Y-98382802D01*
X103398378Y-98363140D01*
X103382571Y-98341826D01*
X103368928Y-98319066D01*
X103357583Y-98295078D01*
X103348643Y-98270093D01*
X103342196Y-98244352D01*
X103338302Y-98218104D01*
X103337000Y-98191600D01*
X103337000Y-96880400D01*
X103338302Y-96853896D01*
X103342196Y-96827648D01*
X103348643Y-96801907D01*
X103357583Y-96776922D01*
X103368928Y-96752934D01*
X103382571Y-96730174D01*
X103398378Y-96708860D01*
X103416198Y-96689198D01*
X103435860Y-96671378D01*
X103457174Y-96655571D01*
X103479934Y-96641928D01*
X103503922Y-96630583D01*
X103528907Y-96621643D01*
X103554648Y-96615196D01*
X103580896Y-96611302D01*
X103607400Y-96610000D01*
X104418600Y-96610000D01*
X104445104Y-96611302D01*
X104445104Y-96611302D01*
G37*
D19*
X104013000Y-97536000D03*
D20*
X161798000Y-110775750D03*
X151638000Y-110775750D03*
D21*
X154218000Y-106775750D03*
D22*
X156718000Y-110775750D03*
D21*
X153563001Y-107505750D03*
D23*
X152908000Y-108235750D02*
X154218002Y-106775750D01*
D21*
X159258000Y-105695750D03*
X159238000Y-105985750D03*
D23*
X159218000Y-106275750D02*
X159258000Y-105695750D01*
D20*
X142748000Y-110775750D03*
X132588000Y-110775750D03*
D21*
X135168000Y-106775750D03*
D22*
X137668000Y-110775750D03*
D21*
X134513001Y-107505750D03*
D23*
X133858000Y-108235750D02*
X135168002Y-106775750D01*
D21*
X140208000Y-105695750D03*
X140188000Y-105985750D03*
D23*
X140168000Y-106275750D02*
X140208000Y-105695750D01*
D20*
X161798000Y-91725750D03*
X151638000Y-91725750D03*
D21*
X154218000Y-87725750D03*
D22*
X156718000Y-91725750D03*
D21*
X153563001Y-88455750D03*
D23*
X152908000Y-89185750D02*
X154218002Y-87725750D01*
D21*
X159258000Y-86645750D03*
X159238000Y-86935750D03*
D23*
X159218000Y-87225750D02*
X159258000Y-86645750D01*
D20*
X142748000Y-91725750D03*
X132588000Y-91725750D03*
D21*
X135168000Y-87725750D03*
D22*
X137668000Y-91725750D03*
D21*
X134513001Y-88455750D03*
D23*
X133858000Y-89185750D02*
X135168002Y-87725750D01*
D21*
X140208000Y-86645750D03*
X140188000Y-86935750D03*
D23*
X140168000Y-87225750D02*
X140208000Y-86645750D01*
D18*
G36*
X91868104Y-98893302D02*
G01*
X91894352Y-98897196D01*
X91920093Y-98903643D01*
X91945078Y-98912583D01*
X91969066Y-98923928D01*
X91991826Y-98937571D01*
X92013140Y-98953378D01*
X92032802Y-98971198D01*
X92050622Y-98990860D01*
X92066429Y-99012174D01*
X92080072Y-99034934D01*
X92091417Y-99058922D01*
X92100357Y-99083907D01*
X92106804Y-99109648D01*
X92110698Y-99135896D01*
X92112000Y-99162400D01*
X92112000Y-99973600D01*
X92110698Y-100000104D01*
X92106804Y-100026352D01*
X92100357Y-100052093D01*
X92091417Y-100077078D01*
X92080072Y-100101066D01*
X92066429Y-100123826D01*
X92050622Y-100145140D01*
X92032802Y-100164802D01*
X92013140Y-100182622D01*
X91991826Y-100198429D01*
X91969066Y-100212072D01*
X91945078Y-100223417D01*
X91920093Y-100232357D01*
X91894352Y-100238804D01*
X91868104Y-100242698D01*
X91841600Y-100244000D01*
X90530400Y-100244000D01*
X90503896Y-100242698D01*
X90477648Y-100238804D01*
X90451907Y-100232357D01*
X90426922Y-100223417D01*
X90402934Y-100212072D01*
X90380174Y-100198429D01*
X90358860Y-100182622D01*
X90339198Y-100164802D01*
X90321378Y-100145140D01*
X90305571Y-100123826D01*
X90291928Y-100101066D01*
X90280583Y-100077078D01*
X90271643Y-100052093D01*
X90265196Y-100026352D01*
X90261302Y-100000104D01*
X90260000Y-99973600D01*
X90260000Y-99162400D01*
X90261302Y-99135896D01*
X90265196Y-99109648D01*
X90271643Y-99083907D01*
X90280583Y-99058922D01*
X90291928Y-99034934D01*
X90305571Y-99012174D01*
X90321378Y-98990860D01*
X90339198Y-98971198D01*
X90358860Y-98953378D01*
X90380174Y-98937571D01*
X90402934Y-98923928D01*
X90426922Y-98912583D01*
X90451907Y-98903643D01*
X90477648Y-98897196D01*
X90503896Y-98893302D01*
X90530400Y-98892000D01*
X91841600Y-98892000D01*
X91868104Y-98893302D01*
X91868104Y-98893302D01*
G37*
D19*
X91186000Y-99568000D03*
D18*
G36*
X91868104Y-101693302D02*
G01*
X91894352Y-101697196D01*
X91920093Y-101703643D01*
X91945078Y-101712583D01*
X91969066Y-101723928D01*
X91991826Y-101737571D01*
X92013140Y-101753378D01*
X92032802Y-101771198D01*
X92050622Y-101790860D01*
X92066429Y-101812174D01*
X92080072Y-101834934D01*
X92091417Y-101858922D01*
X92100357Y-101883907D01*
X92106804Y-101909648D01*
X92110698Y-101935896D01*
X92112000Y-101962400D01*
X92112000Y-102773600D01*
X92110698Y-102800104D01*
X92106804Y-102826352D01*
X92100357Y-102852093D01*
X92091417Y-102877078D01*
X92080072Y-102901066D01*
X92066429Y-102923826D01*
X92050622Y-102945140D01*
X92032802Y-102964802D01*
X92013140Y-102982622D01*
X91991826Y-102998429D01*
X91969066Y-103012072D01*
X91945078Y-103023417D01*
X91920093Y-103032357D01*
X91894352Y-103038804D01*
X91868104Y-103042698D01*
X91841600Y-103044000D01*
X90530400Y-103044000D01*
X90503896Y-103042698D01*
X90477648Y-103038804D01*
X90451907Y-103032357D01*
X90426922Y-103023417D01*
X90402934Y-103012072D01*
X90380174Y-102998429D01*
X90358860Y-102982622D01*
X90339198Y-102964802D01*
X90321378Y-102945140D01*
X90305571Y-102923826D01*
X90291928Y-102901066D01*
X90280583Y-102877078D01*
X90271643Y-102852093D01*
X90265196Y-102826352D01*
X90261302Y-102800104D01*
X90260000Y-102773600D01*
X90260000Y-101962400D01*
X90261302Y-101935896D01*
X90265196Y-101909648D01*
X90271643Y-101883907D01*
X90280583Y-101858922D01*
X90291928Y-101834934D01*
X90305571Y-101812174D01*
X90321378Y-101790860D01*
X90339198Y-101771198D01*
X90358860Y-101753378D01*
X90380174Y-101737571D01*
X90402934Y-101723928D01*
X90426922Y-101712583D01*
X90451907Y-101703643D01*
X90477648Y-101697196D01*
X90503896Y-101693302D01*
X90530400Y-101692000D01*
X91841600Y-101692000D01*
X91868104Y-101693302D01*
X91868104Y-101693302D01*
G37*
D19*
X91186000Y-102368000D03*
D24*
X164973000Y-109378750D03*
X164973000Y-112678750D03*
X145669000Y-109252750D03*
X145669000Y-112552750D03*
X164846000Y-90328750D03*
X164846000Y-93628750D03*
X145796000Y-89949750D03*
X145796000Y-93249750D03*
D18*
G36*
X111517641Y-111804047D02*
G01*
X111543778Y-111807924D01*
X111569409Y-111814344D01*
X111594288Y-111823245D01*
X111618174Y-111834543D01*
X111640837Y-111848127D01*
X111662060Y-111863867D01*
X111681639Y-111881611D01*
X111699383Y-111901190D01*
X111715123Y-111922413D01*
X111728707Y-111945076D01*
X111740005Y-111968962D01*
X111748906Y-111993841D01*
X111755326Y-112019472D01*
X111759203Y-112045609D01*
X111760500Y-112072000D01*
X111760500Y-113035500D01*
X111759203Y-113061891D01*
X111755326Y-113088028D01*
X111748906Y-113113659D01*
X111740005Y-113138538D01*
X111728707Y-113162424D01*
X111715123Y-113185087D01*
X111699383Y-113206310D01*
X111681639Y-113225889D01*
X111662060Y-113243633D01*
X111640837Y-113259373D01*
X111618174Y-113272957D01*
X111594288Y-113284255D01*
X111569409Y-113293156D01*
X111543778Y-113299576D01*
X111517641Y-113303453D01*
X111491250Y-113304750D01*
X110952750Y-113304750D01*
X110926359Y-113303453D01*
X110900222Y-113299576D01*
X110874591Y-113293156D01*
X110849712Y-113284255D01*
X110825826Y-113272957D01*
X110803163Y-113259373D01*
X110781940Y-113243633D01*
X110762361Y-113225889D01*
X110744617Y-113206310D01*
X110728877Y-113185087D01*
X110715293Y-113162424D01*
X110703995Y-113138538D01*
X110695094Y-113113659D01*
X110688674Y-113088028D01*
X110684797Y-113061891D01*
X110683500Y-113035500D01*
X110683500Y-112072000D01*
X110684797Y-112045609D01*
X110688674Y-112019472D01*
X110695094Y-111993841D01*
X110703995Y-111968962D01*
X110715293Y-111945076D01*
X110728877Y-111922413D01*
X110744617Y-111901190D01*
X110762361Y-111881611D01*
X110781940Y-111863867D01*
X110803163Y-111848127D01*
X110825826Y-111834543D01*
X110849712Y-111823245D01*
X110874591Y-111814344D01*
X110900222Y-111807924D01*
X110926359Y-111804047D01*
X110952750Y-111802750D01*
X111491250Y-111802750D01*
X111517641Y-111804047D01*
X111517641Y-111804047D01*
G37*
D25*
X111222000Y-112553750D03*
D18*
G36*
X109642641Y-111804047D02*
G01*
X109668778Y-111807924D01*
X109694409Y-111814344D01*
X109719288Y-111823245D01*
X109743174Y-111834543D01*
X109765837Y-111848127D01*
X109787060Y-111863867D01*
X109806639Y-111881611D01*
X109824383Y-111901190D01*
X109840123Y-111922413D01*
X109853707Y-111945076D01*
X109865005Y-111968962D01*
X109873906Y-111993841D01*
X109880326Y-112019472D01*
X109884203Y-112045609D01*
X109885500Y-112072000D01*
X109885500Y-113035500D01*
X109884203Y-113061891D01*
X109880326Y-113088028D01*
X109873906Y-113113659D01*
X109865005Y-113138538D01*
X109853707Y-113162424D01*
X109840123Y-113185087D01*
X109824383Y-113206310D01*
X109806639Y-113225889D01*
X109787060Y-113243633D01*
X109765837Y-113259373D01*
X109743174Y-113272957D01*
X109719288Y-113284255D01*
X109694409Y-113293156D01*
X109668778Y-113299576D01*
X109642641Y-113303453D01*
X109616250Y-113304750D01*
X109077750Y-113304750D01*
X109051359Y-113303453D01*
X109025222Y-113299576D01*
X108999591Y-113293156D01*
X108974712Y-113284255D01*
X108950826Y-113272957D01*
X108928163Y-113259373D01*
X108906940Y-113243633D01*
X108887361Y-113225889D01*
X108869617Y-113206310D01*
X108853877Y-113185087D01*
X108840293Y-113162424D01*
X108828995Y-113138538D01*
X108820094Y-113113659D01*
X108813674Y-113088028D01*
X108809797Y-113061891D01*
X108808500Y-113035500D01*
X108808500Y-112072000D01*
X108809797Y-112045609D01*
X108813674Y-112019472D01*
X108820094Y-111993841D01*
X108828995Y-111968962D01*
X108840293Y-111945076D01*
X108853877Y-111922413D01*
X108869617Y-111901190D01*
X108887361Y-111881611D01*
X108906940Y-111863867D01*
X108928163Y-111848127D01*
X108950826Y-111834543D01*
X108974712Y-111823245D01*
X108999591Y-111814344D01*
X109025222Y-111807924D01*
X109051359Y-111804047D01*
X109077750Y-111802750D01*
X109616250Y-111802750D01*
X109642641Y-111804047D01*
X109642641Y-111804047D01*
G37*
D25*
X109347000Y-112553750D03*
D18*
G36*
X125476141Y-98427547D02*
G01*
X125502278Y-98431424D01*
X125527909Y-98437844D01*
X125552788Y-98446745D01*
X125576674Y-98458043D01*
X125599337Y-98471627D01*
X125620560Y-98487367D01*
X125640139Y-98505111D01*
X125657883Y-98524690D01*
X125673623Y-98545913D01*
X125687207Y-98568576D01*
X125698505Y-98592462D01*
X125707406Y-98617341D01*
X125713826Y-98642972D01*
X125717703Y-98669109D01*
X125719000Y-98695500D01*
X125719000Y-99234000D01*
X125717703Y-99260391D01*
X125713826Y-99286528D01*
X125707406Y-99312159D01*
X125698505Y-99337038D01*
X125687207Y-99360924D01*
X125673623Y-99383587D01*
X125657883Y-99404810D01*
X125640139Y-99424389D01*
X125620560Y-99442133D01*
X125599337Y-99457873D01*
X125576674Y-99471457D01*
X125552788Y-99482755D01*
X125527909Y-99491656D01*
X125502278Y-99498076D01*
X125476141Y-99501953D01*
X125449750Y-99503250D01*
X124486250Y-99503250D01*
X124459859Y-99501953D01*
X124433722Y-99498076D01*
X124408091Y-99491656D01*
X124383212Y-99482755D01*
X124359326Y-99471457D01*
X124336663Y-99457873D01*
X124315440Y-99442133D01*
X124295861Y-99424389D01*
X124278117Y-99404810D01*
X124262377Y-99383587D01*
X124248793Y-99360924D01*
X124237495Y-99337038D01*
X124228594Y-99312159D01*
X124222174Y-99286528D01*
X124218297Y-99260391D01*
X124217000Y-99234000D01*
X124217000Y-98695500D01*
X124218297Y-98669109D01*
X124222174Y-98642972D01*
X124228594Y-98617341D01*
X124237495Y-98592462D01*
X124248793Y-98568576D01*
X124262377Y-98545913D01*
X124278117Y-98524690D01*
X124295861Y-98505111D01*
X124315440Y-98487367D01*
X124336663Y-98471627D01*
X124359326Y-98458043D01*
X124383212Y-98446745D01*
X124408091Y-98437844D01*
X124433722Y-98431424D01*
X124459859Y-98427547D01*
X124486250Y-98426250D01*
X125449750Y-98426250D01*
X125476141Y-98427547D01*
X125476141Y-98427547D01*
G37*
D25*
X124968000Y-98964750D03*
D18*
G36*
X125476141Y-100302547D02*
G01*
X125502278Y-100306424D01*
X125527909Y-100312844D01*
X125552788Y-100321745D01*
X125576674Y-100333043D01*
X125599337Y-100346627D01*
X125620560Y-100362367D01*
X125640139Y-100380111D01*
X125657883Y-100399690D01*
X125673623Y-100420913D01*
X125687207Y-100443576D01*
X125698505Y-100467462D01*
X125707406Y-100492341D01*
X125713826Y-100517972D01*
X125717703Y-100544109D01*
X125719000Y-100570500D01*
X125719000Y-101109000D01*
X125717703Y-101135391D01*
X125713826Y-101161528D01*
X125707406Y-101187159D01*
X125698505Y-101212038D01*
X125687207Y-101235924D01*
X125673623Y-101258587D01*
X125657883Y-101279810D01*
X125640139Y-101299389D01*
X125620560Y-101317133D01*
X125599337Y-101332873D01*
X125576674Y-101346457D01*
X125552788Y-101357755D01*
X125527909Y-101366656D01*
X125502278Y-101373076D01*
X125476141Y-101376953D01*
X125449750Y-101378250D01*
X124486250Y-101378250D01*
X124459859Y-101376953D01*
X124433722Y-101373076D01*
X124408091Y-101366656D01*
X124383212Y-101357755D01*
X124359326Y-101346457D01*
X124336663Y-101332873D01*
X124315440Y-101317133D01*
X124295861Y-101299389D01*
X124278117Y-101279810D01*
X124262377Y-101258587D01*
X124248793Y-101235924D01*
X124237495Y-101212038D01*
X124228594Y-101187159D01*
X124222174Y-101161528D01*
X124218297Y-101135391D01*
X124217000Y-101109000D01*
X124217000Y-100570500D01*
X124218297Y-100544109D01*
X124222174Y-100517972D01*
X124228594Y-100492341D01*
X124237495Y-100467462D01*
X124248793Y-100443576D01*
X124262377Y-100420913D01*
X124278117Y-100399690D01*
X124295861Y-100380111D01*
X124315440Y-100362367D01*
X124336663Y-100346627D01*
X124359326Y-100333043D01*
X124383212Y-100321745D01*
X124408091Y-100312844D01*
X124433722Y-100306424D01*
X124459859Y-100302547D01*
X124486250Y-100301250D01*
X125449750Y-100301250D01*
X125476141Y-100302547D01*
X125476141Y-100302547D01*
G37*
D25*
X124968000Y-100839750D03*
D18*
G36*
X116784641Y-111804047D02*
G01*
X116810778Y-111807924D01*
X116836409Y-111814344D01*
X116861288Y-111823245D01*
X116885174Y-111834543D01*
X116907837Y-111848127D01*
X116929060Y-111863867D01*
X116948639Y-111881611D01*
X116966383Y-111901190D01*
X116982123Y-111922413D01*
X116995707Y-111945076D01*
X117007005Y-111968962D01*
X117015906Y-111993841D01*
X117022326Y-112019472D01*
X117026203Y-112045609D01*
X117027500Y-112072000D01*
X117027500Y-113035500D01*
X117026203Y-113061891D01*
X117022326Y-113088028D01*
X117015906Y-113113659D01*
X117007005Y-113138538D01*
X116995707Y-113162424D01*
X116982123Y-113185087D01*
X116966383Y-113206310D01*
X116948639Y-113225889D01*
X116929060Y-113243633D01*
X116907837Y-113259373D01*
X116885174Y-113272957D01*
X116861288Y-113284255D01*
X116836409Y-113293156D01*
X116810778Y-113299576D01*
X116784641Y-113303453D01*
X116758250Y-113304750D01*
X116219750Y-113304750D01*
X116193359Y-113303453D01*
X116167222Y-113299576D01*
X116141591Y-113293156D01*
X116116712Y-113284255D01*
X116092826Y-113272957D01*
X116070163Y-113259373D01*
X116048940Y-113243633D01*
X116029361Y-113225889D01*
X116011617Y-113206310D01*
X115995877Y-113185087D01*
X115982293Y-113162424D01*
X115970995Y-113138538D01*
X115962094Y-113113659D01*
X115955674Y-113088028D01*
X115951797Y-113061891D01*
X115950500Y-113035500D01*
X115950500Y-112072000D01*
X115951797Y-112045609D01*
X115955674Y-112019472D01*
X115962094Y-111993841D01*
X115970995Y-111968962D01*
X115982293Y-111945076D01*
X115995877Y-111922413D01*
X116011617Y-111901190D01*
X116029361Y-111881611D01*
X116048940Y-111863867D01*
X116070163Y-111848127D01*
X116092826Y-111834543D01*
X116116712Y-111823245D01*
X116141591Y-111814344D01*
X116167222Y-111807924D01*
X116193359Y-111804047D01*
X116219750Y-111802750D01*
X116758250Y-111802750D01*
X116784641Y-111804047D01*
X116784641Y-111804047D01*
G37*
D25*
X116489000Y-112553750D03*
D18*
G36*
X118659641Y-111804047D02*
G01*
X118685778Y-111807924D01*
X118711409Y-111814344D01*
X118736288Y-111823245D01*
X118760174Y-111834543D01*
X118782837Y-111848127D01*
X118804060Y-111863867D01*
X118823639Y-111881611D01*
X118841383Y-111901190D01*
X118857123Y-111922413D01*
X118870707Y-111945076D01*
X118882005Y-111968962D01*
X118890906Y-111993841D01*
X118897326Y-112019472D01*
X118901203Y-112045609D01*
X118902500Y-112072000D01*
X118902500Y-113035500D01*
X118901203Y-113061891D01*
X118897326Y-113088028D01*
X118890906Y-113113659D01*
X118882005Y-113138538D01*
X118870707Y-113162424D01*
X118857123Y-113185087D01*
X118841383Y-113206310D01*
X118823639Y-113225889D01*
X118804060Y-113243633D01*
X118782837Y-113259373D01*
X118760174Y-113272957D01*
X118736288Y-113284255D01*
X118711409Y-113293156D01*
X118685778Y-113299576D01*
X118659641Y-113303453D01*
X118633250Y-113304750D01*
X118094750Y-113304750D01*
X118068359Y-113303453D01*
X118042222Y-113299576D01*
X118016591Y-113293156D01*
X117991712Y-113284255D01*
X117967826Y-113272957D01*
X117945163Y-113259373D01*
X117923940Y-113243633D01*
X117904361Y-113225889D01*
X117886617Y-113206310D01*
X117870877Y-113185087D01*
X117857293Y-113162424D01*
X117845995Y-113138538D01*
X117837094Y-113113659D01*
X117830674Y-113088028D01*
X117826797Y-113061891D01*
X117825500Y-113035500D01*
X117825500Y-112072000D01*
X117826797Y-112045609D01*
X117830674Y-112019472D01*
X117837094Y-111993841D01*
X117845995Y-111968962D01*
X117857293Y-111945076D01*
X117870877Y-111922413D01*
X117886617Y-111901190D01*
X117904361Y-111881611D01*
X117923940Y-111863867D01*
X117945163Y-111848127D01*
X117967826Y-111834543D01*
X117991712Y-111823245D01*
X118016591Y-111814344D01*
X118042222Y-111807924D01*
X118068359Y-111804047D01*
X118094750Y-111802750D01*
X118633250Y-111802750D01*
X118659641Y-111804047D01*
X118659641Y-111804047D01*
G37*
D25*
X118364000Y-112553750D03*
D18*
G36*
X112660641Y-94119297D02*
G01*
X112686778Y-94123174D01*
X112712409Y-94129594D01*
X112737288Y-94138495D01*
X112761174Y-94149793D01*
X112783837Y-94163377D01*
X112805060Y-94179117D01*
X112824639Y-94196861D01*
X112842383Y-94216440D01*
X112858123Y-94237663D01*
X112871707Y-94260326D01*
X112883005Y-94284212D01*
X112891906Y-94309091D01*
X112898326Y-94334722D01*
X112902203Y-94360859D01*
X112903500Y-94387250D01*
X112903500Y-95350750D01*
X112902203Y-95377141D01*
X112898326Y-95403278D01*
X112891906Y-95428909D01*
X112883005Y-95453788D01*
X112871707Y-95477674D01*
X112858123Y-95500337D01*
X112842383Y-95521560D01*
X112824639Y-95541139D01*
X112805060Y-95558883D01*
X112783837Y-95574623D01*
X112761174Y-95588207D01*
X112737288Y-95599505D01*
X112712409Y-95608406D01*
X112686778Y-95614826D01*
X112660641Y-95618703D01*
X112634250Y-95620000D01*
X112095750Y-95620000D01*
X112069359Y-95618703D01*
X112043222Y-95614826D01*
X112017591Y-95608406D01*
X111992712Y-95599505D01*
X111968826Y-95588207D01*
X111946163Y-95574623D01*
X111924940Y-95558883D01*
X111905361Y-95541139D01*
X111887617Y-95521560D01*
X111871877Y-95500337D01*
X111858293Y-95477674D01*
X111846995Y-95453788D01*
X111838094Y-95428909D01*
X111831674Y-95403278D01*
X111827797Y-95377141D01*
X111826500Y-95350750D01*
X111826500Y-94387250D01*
X111827797Y-94360859D01*
X111831674Y-94334722D01*
X111838094Y-94309091D01*
X111846995Y-94284212D01*
X111858293Y-94260326D01*
X111871877Y-94237663D01*
X111887617Y-94216440D01*
X111905361Y-94196861D01*
X111924940Y-94179117D01*
X111946163Y-94163377D01*
X111968826Y-94149793D01*
X111992712Y-94138495D01*
X112017591Y-94129594D01*
X112043222Y-94123174D01*
X112069359Y-94119297D01*
X112095750Y-94118000D01*
X112634250Y-94118000D01*
X112660641Y-94119297D01*
X112660641Y-94119297D01*
G37*
D25*
X112365000Y-94869000D03*
D18*
G36*
X110785641Y-94119297D02*
G01*
X110811778Y-94123174D01*
X110837409Y-94129594D01*
X110862288Y-94138495D01*
X110886174Y-94149793D01*
X110908837Y-94163377D01*
X110930060Y-94179117D01*
X110949639Y-94196861D01*
X110967383Y-94216440D01*
X110983123Y-94237663D01*
X110996707Y-94260326D01*
X111008005Y-94284212D01*
X111016906Y-94309091D01*
X111023326Y-94334722D01*
X111027203Y-94360859D01*
X111028500Y-94387250D01*
X111028500Y-95350750D01*
X111027203Y-95377141D01*
X111023326Y-95403278D01*
X111016906Y-95428909D01*
X111008005Y-95453788D01*
X110996707Y-95477674D01*
X110983123Y-95500337D01*
X110967383Y-95521560D01*
X110949639Y-95541139D01*
X110930060Y-95558883D01*
X110908837Y-95574623D01*
X110886174Y-95588207D01*
X110862288Y-95599505D01*
X110837409Y-95608406D01*
X110811778Y-95614826D01*
X110785641Y-95618703D01*
X110759250Y-95620000D01*
X110220750Y-95620000D01*
X110194359Y-95618703D01*
X110168222Y-95614826D01*
X110142591Y-95608406D01*
X110117712Y-95599505D01*
X110093826Y-95588207D01*
X110071163Y-95574623D01*
X110049940Y-95558883D01*
X110030361Y-95541139D01*
X110012617Y-95521560D01*
X109996877Y-95500337D01*
X109983293Y-95477674D01*
X109971995Y-95453788D01*
X109963094Y-95428909D01*
X109956674Y-95403278D01*
X109952797Y-95377141D01*
X109951500Y-95350750D01*
X109951500Y-94387250D01*
X109952797Y-94360859D01*
X109956674Y-94334722D01*
X109963094Y-94309091D01*
X109971995Y-94284212D01*
X109983293Y-94260326D01*
X109996877Y-94237663D01*
X110012617Y-94216440D01*
X110030361Y-94196861D01*
X110049940Y-94179117D01*
X110071163Y-94163377D01*
X110093826Y-94149793D01*
X110117712Y-94138495D01*
X110142591Y-94129594D01*
X110168222Y-94123174D01*
X110194359Y-94119297D01*
X110220750Y-94118000D01*
X110759250Y-94118000D01*
X110785641Y-94119297D01*
X110785641Y-94119297D01*
G37*
D25*
X110490000Y-94869000D03*
D18*
G36*
X103124141Y-111065797D02*
G01*
X103150278Y-111069674D01*
X103175909Y-111076094D01*
X103200788Y-111084995D01*
X103224674Y-111096293D01*
X103247337Y-111109877D01*
X103268560Y-111125617D01*
X103288139Y-111143361D01*
X103305883Y-111162940D01*
X103321623Y-111184163D01*
X103335207Y-111206826D01*
X103346505Y-111230712D01*
X103355406Y-111255591D01*
X103361826Y-111281222D01*
X103365703Y-111307359D01*
X103367000Y-111333750D01*
X103367000Y-111872250D01*
X103365703Y-111898641D01*
X103361826Y-111924778D01*
X103355406Y-111950409D01*
X103346505Y-111975288D01*
X103335207Y-111999174D01*
X103321623Y-112021837D01*
X103305883Y-112043060D01*
X103288139Y-112062639D01*
X103268560Y-112080383D01*
X103247337Y-112096123D01*
X103224674Y-112109707D01*
X103200788Y-112121005D01*
X103175909Y-112129906D01*
X103150278Y-112136326D01*
X103124141Y-112140203D01*
X103097750Y-112141500D01*
X102134250Y-112141500D01*
X102107859Y-112140203D01*
X102081722Y-112136326D01*
X102056091Y-112129906D01*
X102031212Y-112121005D01*
X102007326Y-112109707D01*
X101984663Y-112096123D01*
X101963440Y-112080383D01*
X101943861Y-112062639D01*
X101926117Y-112043060D01*
X101910377Y-112021837D01*
X101896793Y-111999174D01*
X101885495Y-111975288D01*
X101876594Y-111950409D01*
X101870174Y-111924778D01*
X101866297Y-111898641D01*
X101865000Y-111872250D01*
X101865000Y-111333750D01*
X101866297Y-111307359D01*
X101870174Y-111281222D01*
X101876594Y-111255591D01*
X101885495Y-111230712D01*
X101896793Y-111206826D01*
X101910377Y-111184163D01*
X101926117Y-111162940D01*
X101943861Y-111143361D01*
X101963440Y-111125617D01*
X101984663Y-111109877D01*
X102007326Y-111096293D01*
X102031212Y-111084995D01*
X102056091Y-111076094D01*
X102081722Y-111069674D01*
X102107859Y-111065797D01*
X102134250Y-111064500D01*
X103097750Y-111064500D01*
X103124141Y-111065797D01*
X103124141Y-111065797D01*
G37*
D25*
X102616000Y-111603000D03*
D18*
G36*
X103124141Y-109190797D02*
G01*
X103150278Y-109194674D01*
X103175909Y-109201094D01*
X103200788Y-109209995D01*
X103224674Y-109221293D01*
X103247337Y-109234877D01*
X103268560Y-109250617D01*
X103288139Y-109268361D01*
X103305883Y-109287940D01*
X103321623Y-109309163D01*
X103335207Y-109331826D01*
X103346505Y-109355712D01*
X103355406Y-109380591D01*
X103361826Y-109406222D01*
X103365703Y-109432359D01*
X103367000Y-109458750D01*
X103367000Y-109997250D01*
X103365703Y-110023641D01*
X103361826Y-110049778D01*
X103355406Y-110075409D01*
X103346505Y-110100288D01*
X103335207Y-110124174D01*
X103321623Y-110146837D01*
X103305883Y-110168060D01*
X103288139Y-110187639D01*
X103268560Y-110205383D01*
X103247337Y-110221123D01*
X103224674Y-110234707D01*
X103200788Y-110246005D01*
X103175909Y-110254906D01*
X103150278Y-110261326D01*
X103124141Y-110265203D01*
X103097750Y-110266500D01*
X102134250Y-110266500D01*
X102107859Y-110265203D01*
X102081722Y-110261326D01*
X102056091Y-110254906D01*
X102031212Y-110246005D01*
X102007326Y-110234707D01*
X101984663Y-110221123D01*
X101963440Y-110205383D01*
X101943861Y-110187639D01*
X101926117Y-110168060D01*
X101910377Y-110146837D01*
X101896793Y-110124174D01*
X101885495Y-110100288D01*
X101876594Y-110075409D01*
X101870174Y-110049778D01*
X101866297Y-110023641D01*
X101865000Y-109997250D01*
X101865000Y-109458750D01*
X101866297Y-109432359D01*
X101870174Y-109406222D01*
X101876594Y-109380591D01*
X101885495Y-109355712D01*
X101896793Y-109331826D01*
X101910377Y-109309163D01*
X101926117Y-109287940D01*
X101943861Y-109268361D01*
X101963440Y-109250617D01*
X101984663Y-109234877D01*
X102007326Y-109221293D01*
X102031212Y-109209995D01*
X102056091Y-109201094D01*
X102081722Y-109194674D01*
X102107859Y-109190797D01*
X102134250Y-109189500D01*
X103097750Y-109189500D01*
X103124141Y-109190797D01*
X103124141Y-109190797D01*
G37*
D25*
X102616000Y-109728000D03*
D18*
G36*
X107188141Y-91188547D02*
G01*
X107214278Y-91192424D01*
X107239909Y-91198844D01*
X107264788Y-91207745D01*
X107288674Y-91219043D01*
X107311337Y-91232627D01*
X107332560Y-91248367D01*
X107352139Y-91266111D01*
X107369883Y-91285690D01*
X107385623Y-91306913D01*
X107399207Y-91329576D01*
X107410505Y-91353462D01*
X107419406Y-91378341D01*
X107425826Y-91403972D01*
X107429703Y-91430109D01*
X107431000Y-91456500D01*
X107431000Y-91995000D01*
X107429703Y-92021391D01*
X107425826Y-92047528D01*
X107419406Y-92073159D01*
X107410505Y-92098038D01*
X107399207Y-92121924D01*
X107385623Y-92144587D01*
X107369883Y-92165810D01*
X107352139Y-92185389D01*
X107332560Y-92203133D01*
X107311337Y-92218873D01*
X107288674Y-92232457D01*
X107264788Y-92243755D01*
X107239909Y-92252656D01*
X107214278Y-92259076D01*
X107188141Y-92262953D01*
X107161750Y-92264250D01*
X106198250Y-92264250D01*
X106171859Y-92262953D01*
X106145722Y-92259076D01*
X106120091Y-92252656D01*
X106095212Y-92243755D01*
X106071326Y-92232457D01*
X106048663Y-92218873D01*
X106027440Y-92203133D01*
X106007861Y-92185389D01*
X105990117Y-92165810D01*
X105974377Y-92144587D01*
X105960793Y-92121924D01*
X105949495Y-92098038D01*
X105940594Y-92073159D01*
X105934174Y-92047528D01*
X105930297Y-92021391D01*
X105929000Y-91995000D01*
X105929000Y-91456500D01*
X105930297Y-91430109D01*
X105934174Y-91403972D01*
X105940594Y-91378341D01*
X105949495Y-91353462D01*
X105960793Y-91329576D01*
X105974377Y-91306913D01*
X105990117Y-91285690D01*
X106007861Y-91266111D01*
X106027440Y-91248367D01*
X106048663Y-91232627D01*
X106071326Y-91219043D01*
X106095212Y-91207745D01*
X106120091Y-91198844D01*
X106145722Y-91192424D01*
X106171859Y-91188547D01*
X106198250Y-91187250D01*
X107161750Y-91187250D01*
X107188141Y-91188547D01*
X107188141Y-91188547D01*
G37*
D25*
X106680000Y-91725750D03*
D18*
G36*
X107188141Y-89313547D02*
G01*
X107214278Y-89317424D01*
X107239909Y-89323844D01*
X107264788Y-89332745D01*
X107288674Y-89344043D01*
X107311337Y-89357627D01*
X107332560Y-89373367D01*
X107352139Y-89391111D01*
X107369883Y-89410690D01*
X107385623Y-89431913D01*
X107399207Y-89454576D01*
X107410505Y-89478462D01*
X107419406Y-89503341D01*
X107425826Y-89528972D01*
X107429703Y-89555109D01*
X107431000Y-89581500D01*
X107431000Y-90120000D01*
X107429703Y-90146391D01*
X107425826Y-90172528D01*
X107419406Y-90198159D01*
X107410505Y-90223038D01*
X107399207Y-90246924D01*
X107385623Y-90269587D01*
X107369883Y-90290810D01*
X107352139Y-90310389D01*
X107332560Y-90328133D01*
X107311337Y-90343873D01*
X107288674Y-90357457D01*
X107264788Y-90368755D01*
X107239909Y-90377656D01*
X107214278Y-90384076D01*
X107188141Y-90387953D01*
X107161750Y-90389250D01*
X106198250Y-90389250D01*
X106171859Y-90387953D01*
X106145722Y-90384076D01*
X106120091Y-90377656D01*
X106095212Y-90368755D01*
X106071326Y-90357457D01*
X106048663Y-90343873D01*
X106027440Y-90328133D01*
X106007861Y-90310389D01*
X105990117Y-90290810D01*
X105974377Y-90269587D01*
X105960793Y-90246924D01*
X105949495Y-90223038D01*
X105940594Y-90198159D01*
X105934174Y-90172528D01*
X105930297Y-90146391D01*
X105929000Y-90120000D01*
X105929000Y-89581500D01*
X105930297Y-89555109D01*
X105934174Y-89528972D01*
X105940594Y-89503341D01*
X105949495Y-89478462D01*
X105960793Y-89454576D01*
X105974377Y-89431913D01*
X105990117Y-89410690D01*
X106007861Y-89391111D01*
X106027440Y-89373367D01*
X106048663Y-89357627D01*
X106071326Y-89344043D01*
X106095212Y-89332745D01*
X106120091Y-89323844D01*
X106145722Y-89317424D01*
X106171859Y-89313547D01*
X106198250Y-89312250D01*
X107161750Y-89312250D01*
X107188141Y-89313547D01*
X107188141Y-89313547D01*
G37*
D25*
X106680000Y-89850750D03*
D18*
G36*
X119507141Y-89108047D02*
G01*
X119533278Y-89111924D01*
X119558909Y-89118344D01*
X119583788Y-89127245D01*
X119607674Y-89138543D01*
X119630337Y-89152127D01*
X119651560Y-89167867D01*
X119671139Y-89185611D01*
X119688883Y-89205190D01*
X119704623Y-89226413D01*
X119718207Y-89249076D01*
X119729505Y-89272962D01*
X119738406Y-89297841D01*
X119744826Y-89323472D01*
X119748703Y-89349609D01*
X119750000Y-89376000D01*
X119750000Y-89914500D01*
X119748703Y-89940891D01*
X119744826Y-89967028D01*
X119738406Y-89992659D01*
X119729505Y-90017538D01*
X119718207Y-90041424D01*
X119704623Y-90064087D01*
X119688883Y-90085310D01*
X119671139Y-90104889D01*
X119651560Y-90122633D01*
X119630337Y-90138373D01*
X119607674Y-90151957D01*
X119583788Y-90163255D01*
X119558909Y-90172156D01*
X119533278Y-90178576D01*
X119507141Y-90182453D01*
X119480750Y-90183750D01*
X118517250Y-90183750D01*
X118490859Y-90182453D01*
X118464722Y-90178576D01*
X118439091Y-90172156D01*
X118414212Y-90163255D01*
X118390326Y-90151957D01*
X118367663Y-90138373D01*
X118346440Y-90122633D01*
X118326861Y-90104889D01*
X118309117Y-90085310D01*
X118293377Y-90064087D01*
X118279793Y-90041424D01*
X118268495Y-90017538D01*
X118259594Y-89992659D01*
X118253174Y-89967028D01*
X118249297Y-89940891D01*
X118248000Y-89914500D01*
X118248000Y-89376000D01*
X118249297Y-89349609D01*
X118253174Y-89323472D01*
X118259594Y-89297841D01*
X118268495Y-89272962D01*
X118279793Y-89249076D01*
X118293377Y-89226413D01*
X118309117Y-89205190D01*
X118326861Y-89185611D01*
X118346440Y-89167867D01*
X118367663Y-89152127D01*
X118390326Y-89138543D01*
X118414212Y-89127245D01*
X118439091Y-89118344D01*
X118464722Y-89111924D01*
X118490859Y-89108047D01*
X118517250Y-89106750D01*
X119480750Y-89106750D01*
X119507141Y-89108047D01*
X119507141Y-89108047D01*
G37*
D25*
X118999000Y-89645250D03*
D18*
G36*
X119507141Y-90983047D02*
G01*
X119533278Y-90986924D01*
X119558909Y-90993344D01*
X119583788Y-91002245D01*
X119607674Y-91013543D01*
X119630337Y-91027127D01*
X119651560Y-91042867D01*
X119671139Y-91060611D01*
X119688883Y-91080190D01*
X119704623Y-91101413D01*
X119718207Y-91124076D01*
X119729505Y-91147962D01*
X119738406Y-91172841D01*
X119744826Y-91198472D01*
X119748703Y-91224609D01*
X119750000Y-91251000D01*
X119750000Y-91789500D01*
X119748703Y-91815891D01*
X119744826Y-91842028D01*
X119738406Y-91867659D01*
X119729505Y-91892538D01*
X119718207Y-91916424D01*
X119704623Y-91939087D01*
X119688883Y-91960310D01*
X119671139Y-91979889D01*
X119651560Y-91997633D01*
X119630337Y-92013373D01*
X119607674Y-92026957D01*
X119583788Y-92038255D01*
X119558909Y-92047156D01*
X119533278Y-92053576D01*
X119507141Y-92057453D01*
X119480750Y-92058750D01*
X118517250Y-92058750D01*
X118490859Y-92057453D01*
X118464722Y-92053576D01*
X118439091Y-92047156D01*
X118414212Y-92038255D01*
X118390326Y-92026957D01*
X118367663Y-92013373D01*
X118346440Y-91997633D01*
X118326861Y-91979889D01*
X118309117Y-91960310D01*
X118293377Y-91939087D01*
X118279793Y-91916424D01*
X118268495Y-91892538D01*
X118259594Y-91867659D01*
X118253174Y-91842028D01*
X118249297Y-91815891D01*
X118248000Y-91789500D01*
X118248000Y-91251000D01*
X118249297Y-91224609D01*
X118253174Y-91198472D01*
X118259594Y-91172841D01*
X118268495Y-91147962D01*
X118279793Y-91124076D01*
X118293377Y-91101413D01*
X118309117Y-91080190D01*
X118326861Y-91060611D01*
X118346440Y-91042867D01*
X118367663Y-91027127D01*
X118390326Y-91013543D01*
X118414212Y-91002245D01*
X118439091Y-90993344D01*
X118464722Y-90986924D01*
X118490859Y-90983047D01*
X118517250Y-90981750D01*
X119480750Y-90981750D01*
X119507141Y-90983047D01*
X119507141Y-90983047D01*
G37*
D25*
X118999000Y-91520250D03*
M02*
