M48
; DRILL file {KiCad (5.1.4)-1} date 02/03/2021 11:58:15
; FORMAT={-:-/ absolute / inch / decimal}
; #@! TF.CreationDate,2021-03-02T11:58:15-08:00
; #@! TF.GenerationSoftware,Kicad,Pcbnew,(5.1.4)-1
; #@! TF.FileFunction,Plated,1,2,PTH
FMAT,2
INCH
T1C0.0157
T2C0.0276
T3C0.0579
%
G90
G05
T1
X3.84Y-4.425
X3.915Y-3.85
X4.04Y-4.275
X4.095Y-3.68
X4.125Y-4.06
X4.155Y-4.19
X4.17Y-4.02
X4.185Y-3.735
X4.305Y-4.525
X4.4555Y-3.687
X4.75Y-4.52
X4.985Y-3.97
T3
X6.02Y-3.5112
X6.0716Y-3.4538
X6.2684Y-3.4341
X6.27Y-3.4112
X5.27Y-4.2612
X5.3216Y-4.2038
X5.5184Y-4.1841
X5.52Y-4.1612
X6.02Y-4.2612
X6.0716Y-4.2038
X6.2684Y-4.1841
X6.27Y-4.1612
X5.27Y-3.5112
X5.3216Y-3.4538
X5.5184Y-3.4341
X5.52Y-3.4112
T2
G00X3.6713Y-3.2642
M15
G01X3.6713Y-3.3115
M16
G05
G00X3.6713Y-3.4414
M15
G01X3.6713Y-3.4886
M16
G05
G00X3.9587Y-3.2642
M15
G01X3.9587Y-3.3115
M16
G05
G00X3.9587Y-3.4414
M15
G01X3.9587Y-3.4886
M16
G05
T0
M30
