G04 #@! TF.GenerationSoftware,KiCad,Pcbnew,(5.1.4)-1*
G04 #@! TF.CreationDate,2021-03-02T11:58:10-08:00*
G04 #@! TF.ProjectId,NMB-75,4e4d422d-3735-42e6-9b69-6361645f7063,rev?*
G04 #@! TF.SameCoordinates,Original*
G04 #@! TF.FileFunction,Copper,L2,Bot*
G04 #@! TF.FilePolarity,Positive*
%FSLAX46Y46*%
G04 Gerber Fmt 4.6, Leading zero omitted, Abs format (unit mm)*
G04 Created by KiCad (PCBNEW (5.1.4)-1) date 2021-03-02 11:58:10*
%MOMM*%
%LPD*%
G04 APERTURE LIST*
%ADD10R,1.200000X1.400000*%
%ADD11O,1.700000X2.700000*%
%ADD12R,0.500000X2.250000*%
%ADD13R,0.550000X1.500000*%
%ADD14R,1.500000X0.550000*%
%ADD15R,1.800000X1.100000*%
%ADD16C,0.100000*%
%ADD17C,1.250000*%
%ADD18C,2.250000*%
%ADD19C,2.250000*%
%ADD20R,1.200000X0.900000*%
%ADD21C,0.975000*%
%ADD22C,0.800000*%
%ADD23C,0.381000*%
%ADD24C,0.254000*%
G04 APERTURE END LIST*
D10*
X114261000Y-92063750D03*
X114261000Y-89863750D03*
X112561000Y-89863750D03*
X112561000Y-92063750D03*
D11*
X93251000Y-83511000D03*
X100551000Y-83511000D03*
X100551000Y-88011000D03*
X93251000Y-88011000D03*
D12*
X95301000Y-88011000D03*
X96101000Y-88011000D03*
X96901000Y-88011000D03*
X97701000Y-88011000D03*
X98501000Y-88011000D03*
D13*
X109919000Y-108855750D03*
X110719000Y-108855750D03*
X111519000Y-108855750D03*
X112319000Y-108855750D03*
X113119000Y-108855750D03*
X113919000Y-108855750D03*
X114719000Y-108855750D03*
X115519000Y-108855750D03*
X116319000Y-108855750D03*
X117119000Y-108855750D03*
X117919000Y-108855750D03*
D14*
X119619000Y-107155750D03*
X119619000Y-106355750D03*
X119619000Y-105555750D03*
X119619000Y-104755750D03*
X119619000Y-103955750D03*
X119619000Y-103155750D03*
X119619000Y-102355750D03*
X119619000Y-101555750D03*
X119619000Y-100755750D03*
X119619000Y-99955750D03*
X119619000Y-99155750D03*
D13*
X117919000Y-97455750D03*
X117119000Y-97455750D03*
X116319000Y-97455750D03*
X115519000Y-97455750D03*
X114719000Y-97455750D03*
X113919000Y-97455750D03*
X113119000Y-97455750D03*
X112319000Y-97455750D03*
X111519000Y-97455750D03*
X110719000Y-97455750D03*
X109919000Y-97455750D03*
D14*
X108219000Y-99155750D03*
X108219000Y-99955750D03*
X108219000Y-100755750D03*
X108219000Y-101555750D03*
X108219000Y-102355750D03*
X108219000Y-103155750D03*
X108219000Y-103955750D03*
X108219000Y-104755750D03*
X108219000Y-105555750D03*
X108219000Y-106355750D03*
X108219000Y-107155750D03*
D15*
X97461000Y-117420000D03*
X91261000Y-113720000D03*
X97461000Y-113720000D03*
X91261000Y-117420000D03*
D16*
G36*
X124728504Y-109612204D02*
G01*
X124752773Y-109615804D01*
X124776571Y-109621765D01*
X124799671Y-109630030D01*
X124821849Y-109640520D01*
X124842893Y-109653133D01*
X124862598Y-109667747D01*
X124880777Y-109684223D01*
X124897253Y-109702402D01*
X124911867Y-109722107D01*
X124924480Y-109743151D01*
X124934970Y-109765329D01*
X124943235Y-109788429D01*
X124949196Y-109812227D01*
X124952796Y-109836496D01*
X124954000Y-109861000D01*
X124954000Y-110611000D01*
X124952796Y-110635504D01*
X124949196Y-110659773D01*
X124943235Y-110683571D01*
X124934970Y-110706671D01*
X124924480Y-110728849D01*
X124911867Y-110749893D01*
X124897253Y-110769598D01*
X124880777Y-110787777D01*
X124862598Y-110804253D01*
X124842893Y-110818867D01*
X124821849Y-110831480D01*
X124799671Y-110841970D01*
X124776571Y-110850235D01*
X124752773Y-110856196D01*
X124728504Y-110859796D01*
X124704000Y-110861000D01*
X123454000Y-110861000D01*
X123429496Y-110859796D01*
X123405227Y-110856196D01*
X123381429Y-110850235D01*
X123358329Y-110841970D01*
X123336151Y-110831480D01*
X123315107Y-110818867D01*
X123295402Y-110804253D01*
X123277223Y-110787777D01*
X123260747Y-110769598D01*
X123246133Y-110749893D01*
X123233520Y-110728849D01*
X123223030Y-110706671D01*
X123214765Y-110683571D01*
X123208804Y-110659773D01*
X123205204Y-110635504D01*
X123204000Y-110611000D01*
X123204000Y-109861000D01*
X123205204Y-109836496D01*
X123208804Y-109812227D01*
X123214765Y-109788429D01*
X123223030Y-109765329D01*
X123233520Y-109743151D01*
X123246133Y-109722107D01*
X123260747Y-109702402D01*
X123277223Y-109684223D01*
X123295402Y-109667747D01*
X123315107Y-109653133D01*
X123336151Y-109640520D01*
X123358329Y-109630030D01*
X123381429Y-109621765D01*
X123405227Y-109615804D01*
X123429496Y-109612204D01*
X123454000Y-109611000D01*
X124704000Y-109611000D01*
X124728504Y-109612204D01*
X124728504Y-109612204D01*
G37*
D17*
X124079000Y-110236000D03*
D16*
G36*
X124728504Y-112412204D02*
G01*
X124752773Y-112415804D01*
X124776571Y-112421765D01*
X124799671Y-112430030D01*
X124821849Y-112440520D01*
X124842893Y-112453133D01*
X124862598Y-112467747D01*
X124880777Y-112484223D01*
X124897253Y-112502402D01*
X124911867Y-112522107D01*
X124924480Y-112543151D01*
X124934970Y-112565329D01*
X124943235Y-112588429D01*
X124949196Y-112612227D01*
X124952796Y-112636496D01*
X124954000Y-112661000D01*
X124954000Y-113411000D01*
X124952796Y-113435504D01*
X124949196Y-113459773D01*
X124943235Y-113483571D01*
X124934970Y-113506671D01*
X124924480Y-113528849D01*
X124911867Y-113549893D01*
X124897253Y-113569598D01*
X124880777Y-113587777D01*
X124862598Y-113604253D01*
X124842893Y-113618867D01*
X124821849Y-113631480D01*
X124799671Y-113641970D01*
X124776571Y-113650235D01*
X124752773Y-113656196D01*
X124728504Y-113659796D01*
X124704000Y-113661000D01*
X123454000Y-113661000D01*
X123429496Y-113659796D01*
X123405227Y-113656196D01*
X123381429Y-113650235D01*
X123358329Y-113641970D01*
X123336151Y-113631480D01*
X123315107Y-113618867D01*
X123295402Y-113604253D01*
X123277223Y-113587777D01*
X123260747Y-113569598D01*
X123246133Y-113549893D01*
X123233520Y-113528849D01*
X123223030Y-113506671D01*
X123214765Y-113483571D01*
X123208804Y-113459773D01*
X123205204Y-113435504D01*
X123204000Y-113411000D01*
X123204000Y-112661000D01*
X123205204Y-112636496D01*
X123208804Y-112612227D01*
X123214765Y-112588429D01*
X123223030Y-112565329D01*
X123233520Y-112543151D01*
X123246133Y-112522107D01*
X123260747Y-112502402D01*
X123277223Y-112484223D01*
X123295402Y-112467747D01*
X123315107Y-112453133D01*
X123336151Y-112440520D01*
X123358329Y-112430030D01*
X123381429Y-112421765D01*
X123405227Y-112415804D01*
X123429496Y-112412204D01*
X123454000Y-112411000D01*
X124704000Y-112411000D01*
X124728504Y-112412204D01*
X124728504Y-112412204D01*
G37*
D17*
X124079000Y-113036000D03*
D16*
G36*
X95137504Y-90429204D02*
G01*
X95161773Y-90432804D01*
X95185571Y-90438765D01*
X95208671Y-90447030D01*
X95230849Y-90457520D01*
X95251893Y-90470133D01*
X95271598Y-90484747D01*
X95289777Y-90501223D01*
X95306253Y-90519402D01*
X95320867Y-90539107D01*
X95333480Y-90560151D01*
X95343970Y-90582329D01*
X95352235Y-90605429D01*
X95358196Y-90629227D01*
X95361796Y-90653496D01*
X95363000Y-90678000D01*
X95363000Y-91428000D01*
X95361796Y-91452504D01*
X95358196Y-91476773D01*
X95352235Y-91500571D01*
X95343970Y-91523671D01*
X95333480Y-91545849D01*
X95320867Y-91566893D01*
X95306253Y-91586598D01*
X95289777Y-91604777D01*
X95271598Y-91621253D01*
X95251893Y-91635867D01*
X95230849Y-91648480D01*
X95208671Y-91658970D01*
X95185571Y-91667235D01*
X95161773Y-91673196D01*
X95137504Y-91676796D01*
X95113000Y-91678000D01*
X93863000Y-91678000D01*
X93838496Y-91676796D01*
X93814227Y-91673196D01*
X93790429Y-91667235D01*
X93767329Y-91658970D01*
X93745151Y-91648480D01*
X93724107Y-91635867D01*
X93704402Y-91621253D01*
X93686223Y-91604777D01*
X93669747Y-91586598D01*
X93655133Y-91566893D01*
X93642520Y-91545849D01*
X93632030Y-91523671D01*
X93623765Y-91500571D01*
X93617804Y-91476773D01*
X93614204Y-91452504D01*
X93613000Y-91428000D01*
X93613000Y-90678000D01*
X93614204Y-90653496D01*
X93617804Y-90629227D01*
X93623765Y-90605429D01*
X93632030Y-90582329D01*
X93642520Y-90560151D01*
X93655133Y-90539107D01*
X93669747Y-90519402D01*
X93686223Y-90501223D01*
X93704402Y-90484747D01*
X93724107Y-90470133D01*
X93745151Y-90457520D01*
X93767329Y-90447030D01*
X93790429Y-90438765D01*
X93814227Y-90432804D01*
X93838496Y-90429204D01*
X93863000Y-90428000D01*
X95113000Y-90428000D01*
X95137504Y-90429204D01*
X95137504Y-90429204D01*
G37*
D17*
X94488000Y-91053000D03*
D16*
G36*
X95137504Y-93229204D02*
G01*
X95161773Y-93232804D01*
X95185571Y-93238765D01*
X95208671Y-93247030D01*
X95230849Y-93257520D01*
X95251893Y-93270133D01*
X95271598Y-93284747D01*
X95289777Y-93301223D01*
X95306253Y-93319402D01*
X95320867Y-93339107D01*
X95333480Y-93360151D01*
X95343970Y-93382329D01*
X95352235Y-93405429D01*
X95358196Y-93429227D01*
X95361796Y-93453496D01*
X95363000Y-93478000D01*
X95363000Y-94228000D01*
X95361796Y-94252504D01*
X95358196Y-94276773D01*
X95352235Y-94300571D01*
X95343970Y-94323671D01*
X95333480Y-94345849D01*
X95320867Y-94366893D01*
X95306253Y-94386598D01*
X95289777Y-94404777D01*
X95271598Y-94421253D01*
X95251893Y-94435867D01*
X95230849Y-94448480D01*
X95208671Y-94458970D01*
X95185571Y-94467235D01*
X95161773Y-94473196D01*
X95137504Y-94476796D01*
X95113000Y-94478000D01*
X93863000Y-94478000D01*
X93838496Y-94476796D01*
X93814227Y-94473196D01*
X93790429Y-94467235D01*
X93767329Y-94458970D01*
X93745151Y-94448480D01*
X93724107Y-94435867D01*
X93704402Y-94421253D01*
X93686223Y-94404777D01*
X93669747Y-94386598D01*
X93655133Y-94366893D01*
X93642520Y-94345849D01*
X93632030Y-94323671D01*
X93623765Y-94300571D01*
X93617804Y-94276773D01*
X93614204Y-94252504D01*
X93613000Y-94228000D01*
X93613000Y-93478000D01*
X93614204Y-93453496D01*
X93617804Y-93429227D01*
X93623765Y-93405429D01*
X93632030Y-93382329D01*
X93642520Y-93360151D01*
X93655133Y-93339107D01*
X93669747Y-93319402D01*
X93686223Y-93301223D01*
X93704402Y-93284747D01*
X93724107Y-93270133D01*
X93745151Y-93257520D01*
X93767329Y-93247030D01*
X93790429Y-93238765D01*
X93814227Y-93232804D01*
X93838496Y-93229204D01*
X93863000Y-93228000D01*
X95113000Y-93228000D01*
X95137504Y-93229204D01*
X95137504Y-93229204D01*
G37*
D17*
X94488000Y-93853000D03*
D16*
G36*
X99074504Y-90435204D02*
G01*
X99098773Y-90438804D01*
X99122571Y-90444765D01*
X99145671Y-90453030D01*
X99167849Y-90463520D01*
X99188893Y-90476133D01*
X99208598Y-90490747D01*
X99226777Y-90507223D01*
X99243253Y-90525402D01*
X99257867Y-90545107D01*
X99270480Y-90566151D01*
X99280970Y-90588329D01*
X99289235Y-90611429D01*
X99295196Y-90635227D01*
X99298796Y-90659496D01*
X99300000Y-90684000D01*
X99300000Y-91434000D01*
X99298796Y-91458504D01*
X99295196Y-91482773D01*
X99289235Y-91506571D01*
X99280970Y-91529671D01*
X99270480Y-91551849D01*
X99257867Y-91572893D01*
X99243253Y-91592598D01*
X99226777Y-91610777D01*
X99208598Y-91627253D01*
X99188893Y-91641867D01*
X99167849Y-91654480D01*
X99145671Y-91664970D01*
X99122571Y-91673235D01*
X99098773Y-91679196D01*
X99074504Y-91682796D01*
X99050000Y-91684000D01*
X97800000Y-91684000D01*
X97775496Y-91682796D01*
X97751227Y-91679196D01*
X97727429Y-91673235D01*
X97704329Y-91664970D01*
X97682151Y-91654480D01*
X97661107Y-91641867D01*
X97641402Y-91627253D01*
X97623223Y-91610777D01*
X97606747Y-91592598D01*
X97592133Y-91572893D01*
X97579520Y-91551849D01*
X97569030Y-91529671D01*
X97560765Y-91506571D01*
X97554804Y-91482773D01*
X97551204Y-91458504D01*
X97550000Y-91434000D01*
X97550000Y-90684000D01*
X97551204Y-90659496D01*
X97554804Y-90635227D01*
X97560765Y-90611429D01*
X97569030Y-90588329D01*
X97579520Y-90566151D01*
X97592133Y-90545107D01*
X97606747Y-90525402D01*
X97623223Y-90507223D01*
X97641402Y-90490747D01*
X97661107Y-90476133D01*
X97682151Y-90463520D01*
X97704329Y-90453030D01*
X97727429Y-90444765D01*
X97751227Y-90438804D01*
X97775496Y-90435204D01*
X97800000Y-90434000D01*
X99050000Y-90434000D01*
X99074504Y-90435204D01*
X99074504Y-90435204D01*
G37*
D17*
X98425000Y-91059000D03*
D16*
G36*
X99074504Y-93235204D02*
G01*
X99098773Y-93238804D01*
X99122571Y-93244765D01*
X99145671Y-93253030D01*
X99167849Y-93263520D01*
X99188893Y-93276133D01*
X99208598Y-93290747D01*
X99226777Y-93307223D01*
X99243253Y-93325402D01*
X99257867Y-93345107D01*
X99270480Y-93366151D01*
X99280970Y-93388329D01*
X99289235Y-93411429D01*
X99295196Y-93435227D01*
X99298796Y-93459496D01*
X99300000Y-93484000D01*
X99300000Y-94234000D01*
X99298796Y-94258504D01*
X99295196Y-94282773D01*
X99289235Y-94306571D01*
X99280970Y-94329671D01*
X99270480Y-94351849D01*
X99257867Y-94372893D01*
X99243253Y-94392598D01*
X99226777Y-94410777D01*
X99208598Y-94427253D01*
X99188893Y-94441867D01*
X99167849Y-94454480D01*
X99145671Y-94464970D01*
X99122571Y-94473235D01*
X99098773Y-94479196D01*
X99074504Y-94482796D01*
X99050000Y-94484000D01*
X97800000Y-94484000D01*
X97775496Y-94482796D01*
X97751227Y-94479196D01*
X97727429Y-94473235D01*
X97704329Y-94464970D01*
X97682151Y-94454480D01*
X97661107Y-94441867D01*
X97641402Y-94427253D01*
X97623223Y-94410777D01*
X97606747Y-94392598D01*
X97592133Y-94372893D01*
X97579520Y-94351849D01*
X97569030Y-94329671D01*
X97560765Y-94306571D01*
X97554804Y-94282773D01*
X97551204Y-94258504D01*
X97550000Y-94234000D01*
X97550000Y-93484000D01*
X97551204Y-93459496D01*
X97554804Y-93435227D01*
X97560765Y-93411429D01*
X97569030Y-93388329D01*
X97579520Y-93366151D01*
X97592133Y-93345107D01*
X97606747Y-93325402D01*
X97623223Y-93307223D01*
X97641402Y-93290747D01*
X97661107Y-93276133D01*
X97682151Y-93263520D01*
X97704329Y-93253030D01*
X97727429Y-93244765D01*
X97751227Y-93238804D01*
X97775496Y-93235204D01*
X97800000Y-93234000D01*
X99050000Y-93234000D01*
X99074504Y-93235204D01*
X99074504Y-93235204D01*
G37*
D17*
X98425000Y-93859000D03*
D16*
G36*
X101612504Y-96662204D02*
G01*
X101636773Y-96665804D01*
X101660571Y-96671765D01*
X101683671Y-96680030D01*
X101705849Y-96690520D01*
X101726893Y-96703133D01*
X101746598Y-96717747D01*
X101764777Y-96734223D01*
X101781253Y-96752402D01*
X101795867Y-96772107D01*
X101808480Y-96793151D01*
X101818970Y-96815329D01*
X101827235Y-96838429D01*
X101833196Y-96862227D01*
X101836796Y-96886496D01*
X101838000Y-96911000D01*
X101838000Y-98161000D01*
X101836796Y-98185504D01*
X101833196Y-98209773D01*
X101827235Y-98233571D01*
X101818970Y-98256671D01*
X101808480Y-98278849D01*
X101795867Y-98299893D01*
X101781253Y-98319598D01*
X101764777Y-98337777D01*
X101746598Y-98354253D01*
X101726893Y-98368867D01*
X101705849Y-98381480D01*
X101683671Y-98391970D01*
X101660571Y-98400235D01*
X101636773Y-98406196D01*
X101612504Y-98409796D01*
X101588000Y-98411000D01*
X100838000Y-98411000D01*
X100813496Y-98409796D01*
X100789227Y-98406196D01*
X100765429Y-98400235D01*
X100742329Y-98391970D01*
X100720151Y-98381480D01*
X100699107Y-98368867D01*
X100679402Y-98354253D01*
X100661223Y-98337777D01*
X100644747Y-98319598D01*
X100630133Y-98299893D01*
X100617520Y-98278849D01*
X100607030Y-98256671D01*
X100598765Y-98233571D01*
X100592804Y-98209773D01*
X100589204Y-98185504D01*
X100588000Y-98161000D01*
X100588000Y-96911000D01*
X100589204Y-96886496D01*
X100592804Y-96862227D01*
X100598765Y-96838429D01*
X100607030Y-96815329D01*
X100617520Y-96793151D01*
X100630133Y-96772107D01*
X100644747Y-96752402D01*
X100661223Y-96734223D01*
X100679402Y-96717747D01*
X100699107Y-96703133D01*
X100720151Y-96690520D01*
X100742329Y-96680030D01*
X100765429Y-96671765D01*
X100789227Y-96665804D01*
X100813496Y-96662204D01*
X100838000Y-96661000D01*
X101588000Y-96661000D01*
X101612504Y-96662204D01*
X101612504Y-96662204D01*
G37*
D17*
X101213000Y-97536000D03*
D16*
G36*
X104412504Y-96662204D02*
G01*
X104436773Y-96665804D01*
X104460571Y-96671765D01*
X104483671Y-96680030D01*
X104505849Y-96690520D01*
X104526893Y-96703133D01*
X104546598Y-96717747D01*
X104564777Y-96734223D01*
X104581253Y-96752402D01*
X104595867Y-96772107D01*
X104608480Y-96793151D01*
X104618970Y-96815329D01*
X104627235Y-96838429D01*
X104633196Y-96862227D01*
X104636796Y-96886496D01*
X104638000Y-96911000D01*
X104638000Y-98161000D01*
X104636796Y-98185504D01*
X104633196Y-98209773D01*
X104627235Y-98233571D01*
X104618970Y-98256671D01*
X104608480Y-98278849D01*
X104595867Y-98299893D01*
X104581253Y-98319598D01*
X104564777Y-98337777D01*
X104546598Y-98354253D01*
X104526893Y-98368867D01*
X104505849Y-98381480D01*
X104483671Y-98391970D01*
X104460571Y-98400235D01*
X104436773Y-98406196D01*
X104412504Y-98409796D01*
X104388000Y-98411000D01*
X103638000Y-98411000D01*
X103613496Y-98409796D01*
X103589227Y-98406196D01*
X103565429Y-98400235D01*
X103542329Y-98391970D01*
X103520151Y-98381480D01*
X103499107Y-98368867D01*
X103479402Y-98354253D01*
X103461223Y-98337777D01*
X103444747Y-98319598D01*
X103430133Y-98299893D01*
X103417520Y-98278849D01*
X103407030Y-98256671D01*
X103398765Y-98233571D01*
X103392804Y-98209773D01*
X103389204Y-98185504D01*
X103388000Y-98161000D01*
X103388000Y-96911000D01*
X103389204Y-96886496D01*
X103392804Y-96862227D01*
X103398765Y-96838429D01*
X103407030Y-96815329D01*
X103417520Y-96793151D01*
X103430133Y-96772107D01*
X103444747Y-96752402D01*
X103461223Y-96734223D01*
X103479402Y-96717747D01*
X103499107Y-96703133D01*
X103520151Y-96690520D01*
X103542329Y-96680030D01*
X103565429Y-96671765D01*
X103589227Y-96665804D01*
X103613496Y-96662204D01*
X103638000Y-96661000D01*
X104388000Y-96661000D01*
X104412504Y-96662204D01*
X104412504Y-96662204D01*
G37*
D17*
X104013000Y-97536000D03*
D18*
X154218000Y-106775750D03*
X153563001Y-107505750D03*
D19*
X152908000Y-108235750D02*
X154218002Y-106775750D01*
D18*
X159258000Y-105695750D03*
X159238000Y-105985750D03*
D19*
X159218000Y-106275750D02*
X159258000Y-105695750D01*
D18*
X135168000Y-106775750D03*
X134513001Y-107505750D03*
D19*
X133858000Y-108235750D02*
X135168002Y-106775750D01*
D18*
X140208000Y-105695750D03*
X140188000Y-105985750D03*
D19*
X140168000Y-106275750D02*
X140208000Y-105695750D01*
D18*
X154218000Y-87725750D03*
X153563001Y-88455750D03*
D19*
X152908000Y-89185750D02*
X154218002Y-87725750D01*
D18*
X159258000Y-86645750D03*
X159238000Y-86935750D03*
D19*
X159218000Y-87225750D02*
X159258000Y-86645750D01*
D18*
X135168000Y-87725750D03*
X134513001Y-88455750D03*
D19*
X133858000Y-89185750D02*
X135168002Y-87725750D01*
D18*
X140208000Y-86645750D03*
X140188000Y-86935750D03*
D19*
X140168000Y-87225750D02*
X140208000Y-86645750D01*
D16*
G36*
X91835504Y-98944204D02*
G01*
X91859773Y-98947804D01*
X91883571Y-98953765D01*
X91906671Y-98962030D01*
X91928849Y-98972520D01*
X91949893Y-98985133D01*
X91969598Y-98999747D01*
X91987777Y-99016223D01*
X92004253Y-99034402D01*
X92018867Y-99054107D01*
X92031480Y-99075151D01*
X92041970Y-99097329D01*
X92050235Y-99120429D01*
X92056196Y-99144227D01*
X92059796Y-99168496D01*
X92061000Y-99193000D01*
X92061000Y-99943000D01*
X92059796Y-99967504D01*
X92056196Y-99991773D01*
X92050235Y-100015571D01*
X92041970Y-100038671D01*
X92031480Y-100060849D01*
X92018867Y-100081893D01*
X92004253Y-100101598D01*
X91987777Y-100119777D01*
X91969598Y-100136253D01*
X91949893Y-100150867D01*
X91928849Y-100163480D01*
X91906671Y-100173970D01*
X91883571Y-100182235D01*
X91859773Y-100188196D01*
X91835504Y-100191796D01*
X91811000Y-100193000D01*
X90561000Y-100193000D01*
X90536496Y-100191796D01*
X90512227Y-100188196D01*
X90488429Y-100182235D01*
X90465329Y-100173970D01*
X90443151Y-100163480D01*
X90422107Y-100150867D01*
X90402402Y-100136253D01*
X90384223Y-100119777D01*
X90367747Y-100101598D01*
X90353133Y-100081893D01*
X90340520Y-100060849D01*
X90330030Y-100038671D01*
X90321765Y-100015571D01*
X90315804Y-99991773D01*
X90312204Y-99967504D01*
X90311000Y-99943000D01*
X90311000Y-99193000D01*
X90312204Y-99168496D01*
X90315804Y-99144227D01*
X90321765Y-99120429D01*
X90330030Y-99097329D01*
X90340520Y-99075151D01*
X90353133Y-99054107D01*
X90367747Y-99034402D01*
X90384223Y-99016223D01*
X90402402Y-98999747D01*
X90422107Y-98985133D01*
X90443151Y-98972520D01*
X90465329Y-98962030D01*
X90488429Y-98953765D01*
X90512227Y-98947804D01*
X90536496Y-98944204D01*
X90561000Y-98943000D01*
X91811000Y-98943000D01*
X91835504Y-98944204D01*
X91835504Y-98944204D01*
G37*
D17*
X91186000Y-99568000D03*
D16*
G36*
X91835504Y-101744204D02*
G01*
X91859773Y-101747804D01*
X91883571Y-101753765D01*
X91906671Y-101762030D01*
X91928849Y-101772520D01*
X91949893Y-101785133D01*
X91969598Y-101799747D01*
X91987777Y-101816223D01*
X92004253Y-101834402D01*
X92018867Y-101854107D01*
X92031480Y-101875151D01*
X92041970Y-101897329D01*
X92050235Y-101920429D01*
X92056196Y-101944227D01*
X92059796Y-101968496D01*
X92061000Y-101993000D01*
X92061000Y-102743000D01*
X92059796Y-102767504D01*
X92056196Y-102791773D01*
X92050235Y-102815571D01*
X92041970Y-102838671D01*
X92031480Y-102860849D01*
X92018867Y-102881893D01*
X92004253Y-102901598D01*
X91987777Y-102919777D01*
X91969598Y-102936253D01*
X91949893Y-102950867D01*
X91928849Y-102963480D01*
X91906671Y-102973970D01*
X91883571Y-102982235D01*
X91859773Y-102988196D01*
X91835504Y-102991796D01*
X91811000Y-102993000D01*
X90561000Y-102993000D01*
X90536496Y-102991796D01*
X90512227Y-102988196D01*
X90488429Y-102982235D01*
X90465329Y-102973970D01*
X90443151Y-102963480D01*
X90422107Y-102950867D01*
X90402402Y-102936253D01*
X90384223Y-102919777D01*
X90367747Y-102901598D01*
X90353133Y-102881893D01*
X90340520Y-102860849D01*
X90330030Y-102838671D01*
X90321765Y-102815571D01*
X90315804Y-102791773D01*
X90312204Y-102767504D01*
X90311000Y-102743000D01*
X90311000Y-101993000D01*
X90312204Y-101968496D01*
X90315804Y-101944227D01*
X90321765Y-101920429D01*
X90330030Y-101897329D01*
X90340520Y-101875151D01*
X90353133Y-101854107D01*
X90367747Y-101834402D01*
X90384223Y-101816223D01*
X90402402Y-101799747D01*
X90422107Y-101785133D01*
X90443151Y-101772520D01*
X90465329Y-101762030D01*
X90488429Y-101753765D01*
X90512227Y-101747804D01*
X90536496Y-101744204D01*
X90561000Y-101743000D01*
X91811000Y-101743000D01*
X91835504Y-101744204D01*
X91835504Y-101744204D01*
G37*
D17*
X91186000Y-102368000D03*
D20*
X164973000Y-109378750D03*
X164973000Y-112678750D03*
X145669000Y-109252750D03*
X145669000Y-112552750D03*
X164846000Y-90328750D03*
X164846000Y-93628750D03*
X145796000Y-89949750D03*
X145796000Y-93249750D03*
D16*
G36*
X111489642Y-111854924D02*
G01*
X111513303Y-111858434D01*
X111536507Y-111864246D01*
X111559029Y-111872304D01*
X111580653Y-111882532D01*
X111601170Y-111894829D01*
X111620383Y-111909079D01*
X111638107Y-111925143D01*
X111654171Y-111942867D01*
X111668421Y-111962080D01*
X111680718Y-111982597D01*
X111690946Y-112004221D01*
X111699004Y-112026743D01*
X111704816Y-112049947D01*
X111708326Y-112073608D01*
X111709500Y-112097500D01*
X111709500Y-113010000D01*
X111708326Y-113033892D01*
X111704816Y-113057553D01*
X111699004Y-113080757D01*
X111690946Y-113103279D01*
X111680718Y-113124903D01*
X111668421Y-113145420D01*
X111654171Y-113164633D01*
X111638107Y-113182357D01*
X111620383Y-113198421D01*
X111601170Y-113212671D01*
X111580653Y-113224968D01*
X111559029Y-113235196D01*
X111536507Y-113243254D01*
X111513303Y-113249066D01*
X111489642Y-113252576D01*
X111465750Y-113253750D01*
X110978250Y-113253750D01*
X110954358Y-113252576D01*
X110930697Y-113249066D01*
X110907493Y-113243254D01*
X110884971Y-113235196D01*
X110863347Y-113224968D01*
X110842830Y-113212671D01*
X110823617Y-113198421D01*
X110805893Y-113182357D01*
X110789829Y-113164633D01*
X110775579Y-113145420D01*
X110763282Y-113124903D01*
X110753054Y-113103279D01*
X110744996Y-113080757D01*
X110739184Y-113057553D01*
X110735674Y-113033892D01*
X110734500Y-113010000D01*
X110734500Y-112097500D01*
X110735674Y-112073608D01*
X110739184Y-112049947D01*
X110744996Y-112026743D01*
X110753054Y-112004221D01*
X110763282Y-111982597D01*
X110775579Y-111962080D01*
X110789829Y-111942867D01*
X110805893Y-111925143D01*
X110823617Y-111909079D01*
X110842830Y-111894829D01*
X110863347Y-111882532D01*
X110884971Y-111872304D01*
X110907493Y-111864246D01*
X110930697Y-111858434D01*
X110954358Y-111854924D01*
X110978250Y-111853750D01*
X111465750Y-111853750D01*
X111489642Y-111854924D01*
X111489642Y-111854924D01*
G37*
D21*
X111222000Y-112553750D03*
D16*
G36*
X109614642Y-111854924D02*
G01*
X109638303Y-111858434D01*
X109661507Y-111864246D01*
X109684029Y-111872304D01*
X109705653Y-111882532D01*
X109726170Y-111894829D01*
X109745383Y-111909079D01*
X109763107Y-111925143D01*
X109779171Y-111942867D01*
X109793421Y-111962080D01*
X109805718Y-111982597D01*
X109815946Y-112004221D01*
X109824004Y-112026743D01*
X109829816Y-112049947D01*
X109833326Y-112073608D01*
X109834500Y-112097500D01*
X109834500Y-113010000D01*
X109833326Y-113033892D01*
X109829816Y-113057553D01*
X109824004Y-113080757D01*
X109815946Y-113103279D01*
X109805718Y-113124903D01*
X109793421Y-113145420D01*
X109779171Y-113164633D01*
X109763107Y-113182357D01*
X109745383Y-113198421D01*
X109726170Y-113212671D01*
X109705653Y-113224968D01*
X109684029Y-113235196D01*
X109661507Y-113243254D01*
X109638303Y-113249066D01*
X109614642Y-113252576D01*
X109590750Y-113253750D01*
X109103250Y-113253750D01*
X109079358Y-113252576D01*
X109055697Y-113249066D01*
X109032493Y-113243254D01*
X109009971Y-113235196D01*
X108988347Y-113224968D01*
X108967830Y-113212671D01*
X108948617Y-113198421D01*
X108930893Y-113182357D01*
X108914829Y-113164633D01*
X108900579Y-113145420D01*
X108888282Y-113124903D01*
X108878054Y-113103279D01*
X108869996Y-113080757D01*
X108864184Y-113057553D01*
X108860674Y-113033892D01*
X108859500Y-113010000D01*
X108859500Y-112097500D01*
X108860674Y-112073608D01*
X108864184Y-112049947D01*
X108869996Y-112026743D01*
X108878054Y-112004221D01*
X108888282Y-111982597D01*
X108900579Y-111962080D01*
X108914829Y-111942867D01*
X108930893Y-111925143D01*
X108948617Y-111909079D01*
X108967830Y-111894829D01*
X108988347Y-111882532D01*
X109009971Y-111872304D01*
X109032493Y-111864246D01*
X109055697Y-111858434D01*
X109079358Y-111854924D01*
X109103250Y-111853750D01*
X109590750Y-111853750D01*
X109614642Y-111854924D01*
X109614642Y-111854924D01*
G37*
D21*
X109347000Y-112553750D03*
D16*
G36*
X125448142Y-98478424D02*
G01*
X125471803Y-98481934D01*
X125495007Y-98487746D01*
X125517529Y-98495804D01*
X125539153Y-98506032D01*
X125559670Y-98518329D01*
X125578883Y-98532579D01*
X125596607Y-98548643D01*
X125612671Y-98566367D01*
X125626921Y-98585580D01*
X125639218Y-98606097D01*
X125649446Y-98627721D01*
X125657504Y-98650243D01*
X125663316Y-98673447D01*
X125666826Y-98697108D01*
X125668000Y-98721000D01*
X125668000Y-99208500D01*
X125666826Y-99232392D01*
X125663316Y-99256053D01*
X125657504Y-99279257D01*
X125649446Y-99301779D01*
X125639218Y-99323403D01*
X125626921Y-99343920D01*
X125612671Y-99363133D01*
X125596607Y-99380857D01*
X125578883Y-99396921D01*
X125559670Y-99411171D01*
X125539153Y-99423468D01*
X125517529Y-99433696D01*
X125495007Y-99441754D01*
X125471803Y-99447566D01*
X125448142Y-99451076D01*
X125424250Y-99452250D01*
X124511750Y-99452250D01*
X124487858Y-99451076D01*
X124464197Y-99447566D01*
X124440993Y-99441754D01*
X124418471Y-99433696D01*
X124396847Y-99423468D01*
X124376330Y-99411171D01*
X124357117Y-99396921D01*
X124339393Y-99380857D01*
X124323329Y-99363133D01*
X124309079Y-99343920D01*
X124296782Y-99323403D01*
X124286554Y-99301779D01*
X124278496Y-99279257D01*
X124272684Y-99256053D01*
X124269174Y-99232392D01*
X124268000Y-99208500D01*
X124268000Y-98721000D01*
X124269174Y-98697108D01*
X124272684Y-98673447D01*
X124278496Y-98650243D01*
X124286554Y-98627721D01*
X124296782Y-98606097D01*
X124309079Y-98585580D01*
X124323329Y-98566367D01*
X124339393Y-98548643D01*
X124357117Y-98532579D01*
X124376330Y-98518329D01*
X124396847Y-98506032D01*
X124418471Y-98495804D01*
X124440993Y-98487746D01*
X124464197Y-98481934D01*
X124487858Y-98478424D01*
X124511750Y-98477250D01*
X125424250Y-98477250D01*
X125448142Y-98478424D01*
X125448142Y-98478424D01*
G37*
D21*
X124968000Y-98964750D03*
D16*
G36*
X125448142Y-100353424D02*
G01*
X125471803Y-100356934D01*
X125495007Y-100362746D01*
X125517529Y-100370804D01*
X125539153Y-100381032D01*
X125559670Y-100393329D01*
X125578883Y-100407579D01*
X125596607Y-100423643D01*
X125612671Y-100441367D01*
X125626921Y-100460580D01*
X125639218Y-100481097D01*
X125649446Y-100502721D01*
X125657504Y-100525243D01*
X125663316Y-100548447D01*
X125666826Y-100572108D01*
X125668000Y-100596000D01*
X125668000Y-101083500D01*
X125666826Y-101107392D01*
X125663316Y-101131053D01*
X125657504Y-101154257D01*
X125649446Y-101176779D01*
X125639218Y-101198403D01*
X125626921Y-101218920D01*
X125612671Y-101238133D01*
X125596607Y-101255857D01*
X125578883Y-101271921D01*
X125559670Y-101286171D01*
X125539153Y-101298468D01*
X125517529Y-101308696D01*
X125495007Y-101316754D01*
X125471803Y-101322566D01*
X125448142Y-101326076D01*
X125424250Y-101327250D01*
X124511750Y-101327250D01*
X124487858Y-101326076D01*
X124464197Y-101322566D01*
X124440993Y-101316754D01*
X124418471Y-101308696D01*
X124396847Y-101298468D01*
X124376330Y-101286171D01*
X124357117Y-101271921D01*
X124339393Y-101255857D01*
X124323329Y-101238133D01*
X124309079Y-101218920D01*
X124296782Y-101198403D01*
X124286554Y-101176779D01*
X124278496Y-101154257D01*
X124272684Y-101131053D01*
X124269174Y-101107392D01*
X124268000Y-101083500D01*
X124268000Y-100596000D01*
X124269174Y-100572108D01*
X124272684Y-100548447D01*
X124278496Y-100525243D01*
X124286554Y-100502721D01*
X124296782Y-100481097D01*
X124309079Y-100460580D01*
X124323329Y-100441367D01*
X124339393Y-100423643D01*
X124357117Y-100407579D01*
X124376330Y-100393329D01*
X124396847Y-100381032D01*
X124418471Y-100370804D01*
X124440993Y-100362746D01*
X124464197Y-100356934D01*
X124487858Y-100353424D01*
X124511750Y-100352250D01*
X125424250Y-100352250D01*
X125448142Y-100353424D01*
X125448142Y-100353424D01*
G37*
D21*
X124968000Y-100839750D03*
D16*
G36*
X116756642Y-111854924D02*
G01*
X116780303Y-111858434D01*
X116803507Y-111864246D01*
X116826029Y-111872304D01*
X116847653Y-111882532D01*
X116868170Y-111894829D01*
X116887383Y-111909079D01*
X116905107Y-111925143D01*
X116921171Y-111942867D01*
X116935421Y-111962080D01*
X116947718Y-111982597D01*
X116957946Y-112004221D01*
X116966004Y-112026743D01*
X116971816Y-112049947D01*
X116975326Y-112073608D01*
X116976500Y-112097500D01*
X116976500Y-113010000D01*
X116975326Y-113033892D01*
X116971816Y-113057553D01*
X116966004Y-113080757D01*
X116957946Y-113103279D01*
X116947718Y-113124903D01*
X116935421Y-113145420D01*
X116921171Y-113164633D01*
X116905107Y-113182357D01*
X116887383Y-113198421D01*
X116868170Y-113212671D01*
X116847653Y-113224968D01*
X116826029Y-113235196D01*
X116803507Y-113243254D01*
X116780303Y-113249066D01*
X116756642Y-113252576D01*
X116732750Y-113253750D01*
X116245250Y-113253750D01*
X116221358Y-113252576D01*
X116197697Y-113249066D01*
X116174493Y-113243254D01*
X116151971Y-113235196D01*
X116130347Y-113224968D01*
X116109830Y-113212671D01*
X116090617Y-113198421D01*
X116072893Y-113182357D01*
X116056829Y-113164633D01*
X116042579Y-113145420D01*
X116030282Y-113124903D01*
X116020054Y-113103279D01*
X116011996Y-113080757D01*
X116006184Y-113057553D01*
X116002674Y-113033892D01*
X116001500Y-113010000D01*
X116001500Y-112097500D01*
X116002674Y-112073608D01*
X116006184Y-112049947D01*
X116011996Y-112026743D01*
X116020054Y-112004221D01*
X116030282Y-111982597D01*
X116042579Y-111962080D01*
X116056829Y-111942867D01*
X116072893Y-111925143D01*
X116090617Y-111909079D01*
X116109830Y-111894829D01*
X116130347Y-111882532D01*
X116151971Y-111872304D01*
X116174493Y-111864246D01*
X116197697Y-111858434D01*
X116221358Y-111854924D01*
X116245250Y-111853750D01*
X116732750Y-111853750D01*
X116756642Y-111854924D01*
X116756642Y-111854924D01*
G37*
D21*
X116489000Y-112553750D03*
D16*
G36*
X118631642Y-111854924D02*
G01*
X118655303Y-111858434D01*
X118678507Y-111864246D01*
X118701029Y-111872304D01*
X118722653Y-111882532D01*
X118743170Y-111894829D01*
X118762383Y-111909079D01*
X118780107Y-111925143D01*
X118796171Y-111942867D01*
X118810421Y-111962080D01*
X118822718Y-111982597D01*
X118832946Y-112004221D01*
X118841004Y-112026743D01*
X118846816Y-112049947D01*
X118850326Y-112073608D01*
X118851500Y-112097500D01*
X118851500Y-113010000D01*
X118850326Y-113033892D01*
X118846816Y-113057553D01*
X118841004Y-113080757D01*
X118832946Y-113103279D01*
X118822718Y-113124903D01*
X118810421Y-113145420D01*
X118796171Y-113164633D01*
X118780107Y-113182357D01*
X118762383Y-113198421D01*
X118743170Y-113212671D01*
X118722653Y-113224968D01*
X118701029Y-113235196D01*
X118678507Y-113243254D01*
X118655303Y-113249066D01*
X118631642Y-113252576D01*
X118607750Y-113253750D01*
X118120250Y-113253750D01*
X118096358Y-113252576D01*
X118072697Y-113249066D01*
X118049493Y-113243254D01*
X118026971Y-113235196D01*
X118005347Y-113224968D01*
X117984830Y-113212671D01*
X117965617Y-113198421D01*
X117947893Y-113182357D01*
X117931829Y-113164633D01*
X117917579Y-113145420D01*
X117905282Y-113124903D01*
X117895054Y-113103279D01*
X117886996Y-113080757D01*
X117881184Y-113057553D01*
X117877674Y-113033892D01*
X117876500Y-113010000D01*
X117876500Y-112097500D01*
X117877674Y-112073608D01*
X117881184Y-112049947D01*
X117886996Y-112026743D01*
X117895054Y-112004221D01*
X117905282Y-111982597D01*
X117917579Y-111962080D01*
X117931829Y-111942867D01*
X117947893Y-111925143D01*
X117965617Y-111909079D01*
X117984830Y-111894829D01*
X118005347Y-111882532D01*
X118026971Y-111872304D01*
X118049493Y-111864246D01*
X118072697Y-111858434D01*
X118096358Y-111854924D01*
X118120250Y-111853750D01*
X118607750Y-111853750D01*
X118631642Y-111854924D01*
X118631642Y-111854924D01*
G37*
D21*
X118364000Y-112553750D03*
D16*
G36*
X112632642Y-94170174D02*
G01*
X112656303Y-94173684D01*
X112679507Y-94179496D01*
X112702029Y-94187554D01*
X112723653Y-94197782D01*
X112744170Y-94210079D01*
X112763383Y-94224329D01*
X112781107Y-94240393D01*
X112797171Y-94258117D01*
X112811421Y-94277330D01*
X112823718Y-94297847D01*
X112833946Y-94319471D01*
X112842004Y-94341993D01*
X112847816Y-94365197D01*
X112851326Y-94388858D01*
X112852500Y-94412750D01*
X112852500Y-95325250D01*
X112851326Y-95349142D01*
X112847816Y-95372803D01*
X112842004Y-95396007D01*
X112833946Y-95418529D01*
X112823718Y-95440153D01*
X112811421Y-95460670D01*
X112797171Y-95479883D01*
X112781107Y-95497607D01*
X112763383Y-95513671D01*
X112744170Y-95527921D01*
X112723653Y-95540218D01*
X112702029Y-95550446D01*
X112679507Y-95558504D01*
X112656303Y-95564316D01*
X112632642Y-95567826D01*
X112608750Y-95569000D01*
X112121250Y-95569000D01*
X112097358Y-95567826D01*
X112073697Y-95564316D01*
X112050493Y-95558504D01*
X112027971Y-95550446D01*
X112006347Y-95540218D01*
X111985830Y-95527921D01*
X111966617Y-95513671D01*
X111948893Y-95497607D01*
X111932829Y-95479883D01*
X111918579Y-95460670D01*
X111906282Y-95440153D01*
X111896054Y-95418529D01*
X111887996Y-95396007D01*
X111882184Y-95372803D01*
X111878674Y-95349142D01*
X111877500Y-95325250D01*
X111877500Y-94412750D01*
X111878674Y-94388858D01*
X111882184Y-94365197D01*
X111887996Y-94341993D01*
X111896054Y-94319471D01*
X111906282Y-94297847D01*
X111918579Y-94277330D01*
X111932829Y-94258117D01*
X111948893Y-94240393D01*
X111966617Y-94224329D01*
X111985830Y-94210079D01*
X112006347Y-94197782D01*
X112027971Y-94187554D01*
X112050493Y-94179496D01*
X112073697Y-94173684D01*
X112097358Y-94170174D01*
X112121250Y-94169000D01*
X112608750Y-94169000D01*
X112632642Y-94170174D01*
X112632642Y-94170174D01*
G37*
D21*
X112365000Y-94869000D03*
D16*
G36*
X110757642Y-94170174D02*
G01*
X110781303Y-94173684D01*
X110804507Y-94179496D01*
X110827029Y-94187554D01*
X110848653Y-94197782D01*
X110869170Y-94210079D01*
X110888383Y-94224329D01*
X110906107Y-94240393D01*
X110922171Y-94258117D01*
X110936421Y-94277330D01*
X110948718Y-94297847D01*
X110958946Y-94319471D01*
X110967004Y-94341993D01*
X110972816Y-94365197D01*
X110976326Y-94388858D01*
X110977500Y-94412750D01*
X110977500Y-95325250D01*
X110976326Y-95349142D01*
X110972816Y-95372803D01*
X110967004Y-95396007D01*
X110958946Y-95418529D01*
X110948718Y-95440153D01*
X110936421Y-95460670D01*
X110922171Y-95479883D01*
X110906107Y-95497607D01*
X110888383Y-95513671D01*
X110869170Y-95527921D01*
X110848653Y-95540218D01*
X110827029Y-95550446D01*
X110804507Y-95558504D01*
X110781303Y-95564316D01*
X110757642Y-95567826D01*
X110733750Y-95569000D01*
X110246250Y-95569000D01*
X110222358Y-95567826D01*
X110198697Y-95564316D01*
X110175493Y-95558504D01*
X110152971Y-95550446D01*
X110131347Y-95540218D01*
X110110830Y-95527921D01*
X110091617Y-95513671D01*
X110073893Y-95497607D01*
X110057829Y-95479883D01*
X110043579Y-95460670D01*
X110031282Y-95440153D01*
X110021054Y-95418529D01*
X110012996Y-95396007D01*
X110007184Y-95372803D01*
X110003674Y-95349142D01*
X110002500Y-95325250D01*
X110002500Y-94412750D01*
X110003674Y-94388858D01*
X110007184Y-94365197D01*
X110012996Y-94341993D01*
X110021054Y-94319471D01*
X110031282Y-94297847D01*
X110043579Y-94277330D01*
X110057829Y-94258117D01*
X110073893Y-94240393D01*
X110091617Y-94224329D01*
X110110830Y-94210079D01*
X110131347Y-94197782D01*
X110152971Y-94187554D01*
X110175493Y-94179496D01*
X110198697Y-94173684D01*
X110222358Y-94170174D01*
X110246250Y-94169000D01*
X110733750Y-94169000D01*
X110757642Y-94170174D01*
X110757642Y-94170174D01*
G37*
D21*
X110490000Y-94869000D03*
D16*
G36*
X103096142Y-111116674D02*
G01*
X103119803Y-111120184D01*
X103143007Y-111125996D01*
X103165529Y-111134054D01*
X103187153Y-111144282D01*
X103207670Y-111156579D01*
X103226883Y-111170829D01*
X103244607Y-111186893D01*
X103260671Y-111204617D01*
X103274921Y-111223830D01*
X103287218Y-111244347D01*
X103297446Y-111265971D01*
X103305504Y-111288493D01*
X103311316Y-111311697D01*
X103314826Y-111335358D01*
X103316000Y-111359250D01*
X103316000Y-111846750D01*
X103314826Y-111870642D01*
X103311316Y-111894303D01*
X103305504Y-111917507D01*
X103297446Y-111940029D01*
X103287218Y-111961653D01*
X103274921Y-111982170D01*
X103260671Y-112001383D01*
X103244607Y-112019107D01*
X103226883Y-112035171D01*
X103207670Y-112049421D01*
X103187153Y-112061718D01*
X103165529Y-112071946D01*
X103143007Y-112080004D01*
X103119803Y-112085816D01*
X103096142Y-112089326D01*
X103072250Y-112090500D01*
X102159750Y-112090500D01*
X102135858Y-112089326D01*
X102112197Y-112085816D01*
X102088993Y-112080004D01*
X102066471Y-112071946D01*
X102044847Y-112061718D01*
X102024330Y-112049421D01*
X102005117Y-112035171D01*
X101987393Y-112019107D01*
X101971329Y-112001383D01*
X101957079Y-111982170D01*
X101944782Y-111961653D01*
X101934554Y-111940029D01*
X101926496Y-111917507D01*
X101920684Y-111894303D01*
X101917174Y-111870642D01*
X101916000Y-111846750D01*
X101916000Y-111359250D01*
X101917174Y-111335358D01*
X101920684Y-111311697D01*
X101926496Y-111288493D01*
X101934554Y-111265971D01*
X101944782Y-111244347D01*
X101957079Y-111223830D01*
X101971329Y-111204617D01*
X101987393Y-111186893D01*
X102005117Y-111170829D01*
X102024330Y-111156579D01*
X102044847Y-111144282D01*
X102066471Y-111134054D01*
X102088993Y-111125996D01*
X102112197Y-111120184D01*
X102135858Y-111116674D01*
X102159750Y-111115500D01*
X103072250Y-111115500D01*
X103096142Y-111116674D01*
X103096142Y-111116674D01*
G37*
D21*
X102616000Y-111603000D03*
D16*
G36*
X103096142Y-109241674D02*
G01*
X103119803Y-109245184D01*
X103143007Y-109250996D01*
X103165529Y-109259054D01*
X103187153Y-109269282D01*
X103207670Y-109281579D01*
X103226883Y-109295829D01*
X103244607Y-109311893D01*
X103260671Y-109329617D01*
X103274921Y-109348830D01*
X103287218Y-109369347D01*
X103297446Y-109390971D01*
X103305504Y-109413493D01*
X103311316Y-109436697D01*
X103314826Y-109460358D01*
X103316000Y-109484250D01*
X103316000Y-109971750D01*
X103314826Y-109995642D01*
X103311316Y-110019303D01*
X103305504Y-110042507D01*
X103297446Y-110065029D01*
X103287218Y-110086653D01*
X103274921Y-110107170D01*
X103260671Y-110126383D01*
X103244607Y-110144107D01*
X103226883Y-110160171D01*
X103207670Y-110174421D01*
X103187153Y-110186718D01*
X103165529Y-110196946D01*
X103143007Y-110205004D01*
X103119803Y-110210816D01*
X103096142Y-110214326D01*
X103072250Y-110215500D01*
X102159750Y-110215500D01*
X102135858Y-110214326D01*
X102112197Y-110210816D01*
X102088993Y-110205004D01*
X102066471Y-110196946D01*
X102044847Y-110186718D01*
X102024330Y-110174421D01*
X102005117Y-110160171D01*
X101987393Y-110144107D01*
X101971329Y-110126383D01*
X101957079Y-110107170D01*
X101944782Y-110086653D01*
X101934554Y-110065029D01*
X101926496Y-110042507D01*
X101920684Y-110019303D01*
X101917174Y-109995642D01*
X101916000Y-109971750D01*
X101916000Y-109484250D01*
X101917174Y-109460358D01*
X101920684Y-109436697D01*
X101926496Y-109413493D01*
X101934554Y-109390971D01*
X101944782Y-109369347D01*
X101957079Y-109348830D01*
X101971329Y-109329617D01*
X101987393Y-109311893D01*
X102005117Y-109295829D01*
X102024330Y-109281579D01*
X102044847Y-109269282D01*
X102066471Y-109259054D01*
X102088993Y-109250996D01*
X102112197Y-109245184D01*
X102135858Y-109241674D01*
X102159750Y-109240500D01*
X103072250Y-109240500D01*
X103096142Y-109241674D01*
X103096142Y-109241674D01*
G37*
D21*
X102616000Y-109728000D03*
D16*
G36*
X107160142Y-91239424D02*
G01*
X107183803Y-91242934D01*
X107207007Y-91248746D01*
X107229529Y-91256804D01*
X107251153Y-91267032D01*
X107271670Y-91279329D01*
X107290883Y-91293579D01*
X107308607Y-91309643D01*
X107324671Y-91327367D01*
X107338921Y-91346580D01*
X107351218Y-91367097D01*
X107361446Y-91388721D01*
X107369504Y-91411243D01*
X107375316Y-91434447D01*
X107378826Y-91458108D01*
X107380000Y-91482000D01*
X107380000Y-91969500D01*
X107378826Y-91993392D01*
X107375316Y-92017053D01*
X107369504Y-92040257D01*
X107361446Y-92062779D01*
X107351218Y-92084403D01*
X107338921Y-92104920D01*
X107324671Y-92124133D01*
X107308607Y-92141857D01*
X107290883Y-92157921D01*
X107271670Y-92172171D01*
X107251153Y-92184468D01*
X107229529Y-92194696D01*
X107207007Y-92202754D01*
X107183803Y-92208566D01*
X107160142Y-92212076D01*
X107136250Y-92213250D01*
X106223750Y-92213250D01*
X106199858Y-92212076D01*
X106176197Y-92208566D01*
X106152993Y-92202754D01*
X106130471Y-92194696D01*
X106108847Y-92184468D01*
X106088330Y-92172171D01*
X106069117Y-92157921D01*
X106051393Y-92141857D01*
X106035329Y-92124133D01*
X106021079Y-92104920D01*
X106008782Y-92084403D01*
X105998554Y-92062779D01*
X105990496Y-92040257D01*
X105984684Y-92017053D01*
X105981174Y-91993392D01*
X105980000Y-91969500D01*
X105980000Y-91482000D01*
X105981174Y-91458108D01*
X105984684Y-91434447D01*
X105990496Y-91411243D01*
X105998554Y-91388721D01*
X106008782Y-91367097D01*
X106021079Y-91346580D01*
X106035329Y-91327367D01*
X106051393Y-91309643D01*
X106069117Y-91293579D01*
X106088330Y-91279329D01*
X106108847Y-91267032D01*
X106130471Y-91256804D01*
X106152993Y-91248746D01*
X106176197Y-91242934D01*
X106199858Y-91239424D01*
X106223750Y-91238250D01*
X107136250Y-91238250D01*
X107160142Y-91239424D01*
X107160142Y-91239424D01*
G37*
D21*
X106680000Y-91725750D03*
D16*
G36*
X107160142Y-89364424D02*
G01*
X107183803Y-89367934D01*
X107207007Y-89373746D01*
X107229529Y-89381804D01*
X107251153Y-89392032D01*
X107271670Y-89404329D01*
X107290883Y-89418579D01*
X107308607Y-89434643D01*
X107324671Y-89452367D01*
X107338921Y-89471580D01*
X107351218Y-89492097D01*
X107361446Y-89513721D01*
X107369504Y-89536243D01*
X107375316Y-89559447D01*
X107378826Y-89583108D01*
X107380000Y-89607000D01*
X107380000Y-90094500D01*
X107378826Y-90118392D01*
X107375316Y-90142053D01*
X107369504Y-90165257D01*
X107361446Y-90187779D01*
X107351218Y-90209403D01*
X107338921Y-90229920D01*
X107324671Y-90249133D01*
X107308607Y-90266857D01*
X107290883Y-90282921D01*
X107271670Y-90297171D01*
X107251153Y-90309468D01*
X107229529Y-90319696D01*
X107207007Y-90327754D01*
X107183803Y-90333566D01*
X107160142Y-90337076D01*
X107136250Y-90338250D01*
X106223750Y-90338250D01*
X106199858Y-90337076D01*
X106176197Y-90333566D01*
X106152993Y-90327754D01*
X106130471Y-90319696D01*
X106108847Y-90309468D01*
X106088330Y-90297171D01*
X106069117Y-90282921D01*
X106051393Y-90266857D01*
X106035329Y-90249133D01*
X106021079Y-90229920D01*
X106008782Y-90209403D01*
X105998554Y-90187779D01*
X105990496Y-90165257D01*
X105984684Y-90142053D01*
X105981174Y-90118392D01*
X105980000Y-90094500D01*
X105980000Y-89607000D01*
X105981174Y-89583108D01*
X105984684Y-89559447D01*
X105990496Y-89536243D01*
X105998554Y-89513721D01*
X106008782Y-89492097D01*
X106021079Y-89471580D01*
X106035329Y-89452367D01*
X106051393Y-89434643D01*
X106069117Y-89418579D01*
X106088330Y-89404329D01*
X106108847Y-89392032D01*
X106130471Y-89381804D01*
X106152993Y-89373746D01*
X106176197Y-89367934D01*
X106199858Y-89364424D01*
X106223750Y-89363250D01*
X107136250Y-89363250D01*
X107160142Y-89364424D01*
X107160142Y-89364424D01*
G37*
D21*
X106680000Y-89850750D03*
D16*
G36*
X119479142Y-89158924D02*
G01*
X119502803Y-89162434D01*
X119526007Y-89168246D01*
X119548529Y-89176304D01*
X119570153Y-89186532D01*
X119590670Y-89198829D01*
X119609883Y-89213079D01*
X119627607Y-89229143D01*
X119643671Y-89246867D01*
X119657921Y-89266080D01*
X119670218Y-89286597D01*
X119680446Y-89308221D01*
X119688504Y-89330743D01*
X119694316Y-89353947D01*
X119697826Y-89377608D01*
X119699000Y-89401500D01*
X119699000Y-89889000D01*
X119697826Y-89912892D01*
X119694316Y-89936553D01*
X119688504Y-89959757D01*
X119680446Y-89982279D01*
X119670218Y-90003903D01*
X119657921Y-90024420D01*
X119643671Y-90043633D01*
X119627607Y-90061357D01*
X119609883Y-90077421D01*
X119590670Y-90091671D01*
X119570153Y-90103968D01*
X119548529Y-90114196D01*
X119526007Y-90122254D01*
X119502803Y-90128066D01*
X119479142Y-90131576D01*
X119455250Y-90132750D01*
X118542750Y-90132750D01*
X118518858Y-90131576D01*
X118495197Y-90128066D01*
X118471993Y-90122254D01*
X118449471Y-90114196D01*
X118427847Y-90103968D01*
X118407330Y-90091671D01*
X118388117Y-90077421D01*
X118370393Y-90061357D01*
X118354329Y-90043633D01*
X118340079Y-90024420D01*
X118327782Y-90003903D01*
X118317554Y-89982279D01*
X118309496Y-89959757D01*
X118303684Y-89936553D01*
X118300174Y-89912892D01*
X118299000Y-89889000D01*
X118299000Y-89401500D01*
X118300174Y-89377608D01*
X118303684Y-89353947D01*
X118309496Y-89330743D01*
X118317554Y-89308221D01*
X118327782Y-89286597D01*
X118340079Y-89266080D01*
X118354329Y-89246867D01*
X118370393Y-89229143D01*
X118388117Y-89213079D01*
X118407330Y-89198829D01*
X118427847Y-89186532D01*
X118449471Y-89176304D01*
X118471993Y-89168246D01*
X118495197Y-89162434D01*
X118518858Y-89158924D01*
X118542750Y-89157750D01*
X119455250Y-89157750D01*
X119479142Y-89158924D01*
X119479142Y-89158924D01*
G37*
D21*
X118999000Y-89645250D03*
D16*
G36*
X119479142Y-91033924D02*
G01*
X119502803Y-91037434D01*
X119526007Y-91043246D01*
X119548529Y-91051304D01*
X119570153Y-91061532D01*
X119590670Y-91073829D01*
X119609883Y-91088079D01*
X119627607Y-91104143D01*
X119643671Y-91121867D01*
X119657921Y-91141080D01*
X119670218Y-91161597D01*
X119680446Y-91183221D01*
X119688504Y-91205743D01*
X119694316Y-91228947D01*
X119697826Y-91252608D01*
X119699000Y-91276500D01*
X119699000Y-91764000D01*
X119697826Y-91787892D01*
X119694316Y-91811553D01*
X119688504Y-91834757D01*
X119680446Y-91857279D01*
X119670218Y-91878903D01*
X119657921Y-91899420D01*
X119643671Y-91918633D01*
X119627607Y-91936357D01*
X119609883Y-91952421D01*
X119590670Y-91966671D01*
X119570153Y-91978968D01*
X119548529Y-91989196D01*
X119526007Y-91997254D01*
X119502803Y-92003066D01*
X119479142Y-92006576D01*
X119455250Y-92007750D01*
X118542750Y-92007750D01*
X118518858Y-92006576D01*
X118495197Y-92003066D01*
X118471993Y-91997254D01*
X118449471Y-91989196D01*
X118427847Y-91978968D01*
X118407330Y-91966671D01*
X118388117Y-91952421D01*
X118370393Y-91936357D01*
X118354329Y-91918633D01*
X118340079Y-91899420D01*
X118327782Y-91878903D01*
X118317554Y-91857279D01*
X118309496Y-91834757D01*
X118303684Y-91811553D01*
X118300174Y-91787892D01*
X118299000Y-91764000D01*
X118299000Y-91276500D01*
X118300174Y-91252608D01*
X118303684Y-91228947D01*
X118309496Y-91205743D01*
X118317554Y-91183221D01*
X118327782Y-91161597D01*
X118340079Y-91141080D01*
X118354329Y-91121867D01*
X118370393Y-91104143D01*
X118388117Y-91088079D01*
X118407330Y-91073829D01*
X118427847Y-91061532D01*
X118449471Y-91051304D01*
X118471993Y-91043246D01*
X118495197Y-91037434D01*
X118518858Y-91033924D01*
X118542750Y-91032750D01*
X119455250Y-91032750D01*
X119479142Y-91033924D01*
X119479142Y-91033924D01*
G37*
D21*
X118999000Y-91520250D03*
D22*
X104013000Y-93472000D03*
X113169823Y-93648958D03*
X102616000Y-108585000D03*
X104775000Y-103124000D03*
X109347000Y-114935000D03*
X120650000Y-114808000D03*
X126619000Y-100838000D03*
X105537000Y-106426000D03*
X105918000Y-102108000D03*
X106299000Y-94869000D03*
X97536000Y-112395000D03*
X99441000Y-97790000D03*
D23*
X90911000Y-117420000D02*
X89154000Y-115663000D01*
X91261000Y-117420000D02*
X90911000Y-117420000D01*
X101816000Y-111603000D02*
X102616000Y-111603000D01*
X91225098Y-111603000D02*
X101816000Y-111603000D01*
X89154000Y-113674098D02*
X91225098Y-111603000D01*
X89154000Y-115663000D02*
X89154000Y-113674098D01*
X117119000Y-111923750D02*
X116489000Y-112553750D01*
X117119000Y-108855750D02*
X117119000Y-111923750D01*
X117045237Y-113109987D02*
X116489000Y-112553750D01*
X119533751Y-115598501D02*
X117045237Y-113109987D01*
X122241499Y-115598501D02*
X119533751Y-115598501D01*
X124079000Y-113761000D02*
X122241499Y-115598501D01*
X124079000Y-113036000D02*
X124079000Y-113761000D01*
X119810000Y-98964750D02*
X119619000Y-99155750D01*
X124968000Y-98964750D02*
X119810000Y-98964750D01*
X111222000Y-113353750D02*
X111222000Y-112553750D01*
X111222000Y-114229942D02*
X111222000Y-113353750D01*
X109726441Y-115725501D02*
X111222000Y-114229942D01*
X106738501Y-115725501D02*
X109726441Y-115725501D01*
X102616000Y-111603000D02*
X106738501Y-115725501D01*
X110719000Y-112050750D02*
X111222000Y-112553750D01*
X110719000Y-108855750D02*
X110719000Y-112050750D01*
X111222000Y-112553750D02*
X116489000Y-112553750D01*
X112561000Y-91760848D02*
X112561000Y-92063750D01*
X114261000Y-90060848D02*
X112561000Y-91760848D01*
X114261000Y-89863750D02*
X114261000Y-90060848D01*
X114479500Y-89645250D02*
X114261000Y-89863750D01*
X118999000Y-89645250D02*
X114479500Y-89645250D01*
X98501000Y-89129942D02*
X104367058Y-94996000D01*
X98501000Y-88011000D02*
X98501000Y-89129942D01*
X104367058Y-94996000D02*
X106680000Y-92683058D01*
X108353499Y-104090249D02*
X108219000Y-103955750D01*
X109269751Y-104090249D02*
X108353499Y-104090249D01*
X112319000Y-97455750D02*
X112319000Y-101041000D01*
X112319000Y-101041000D02*
X109269751Y-104090249D01*
X112319000Y-98586750D02*
X112319000Y-97455750D01*
X112888000Y-99155750D02*
X112319000Y-98586750D01*
X119619000Y-99155750D02*
X112888000Y-99155750D01*
X118488000Y-99155750D02*
X119619000Y-99155750D01*
X117119000Y-100524750D02*
X118488000Y-99155750D01*
X117119000Y-108855750D02*
X117119000Y-100524750D01*
X112319000Y-94915000D02*
X112365000Y-94869000D01*
X112319000Y-97455750D02*
X112319000Y-94915000D01*
X112365000Y-92259750D02*
X112365000Y-94869000D01*
X112561000Y-92063750D02*
X112365000Y-92259750D01*
X106680000Y-92683058D02*
X106680000Y-91725750D01*
X107018000Y-92063750D02*
X106680000Y-91725750D01*
X112561000Y-92063750D02*
X107018000Y-92063750D01*
D24*
X114804500Y-91520250D02*
X114261000Y-92063750D01*
X118999000Y-91520250D02*
X114804500Y-91520250D01*
X113919000Y-96451750D02*
X113919000Y-97455750D01*
X113919000Y-93359750D02*
X113919000Y-96451750D01*
X114261000Y-93017750D02*
X113919000Y-93359750D01*
X114261000Y-92063750D02*
X114261000Y-93017750D01*
X112548000Y-89850750D02*
X112561000Y-89863750D01*
X106680000Y-89850750D02*
X112548000Y-89850750D01*
X106680000Y-89850750D02*
X104013000Y-92517750D01*
X104013000Y-92517750D02*
X104013000Y-93472000D01*
X113169823Y-97404927D02*
X113119000Y-97455750D01*
X113183365Y-93662500D02*
X113169823Y-93648958D01*
X113464990Y-93662500D02*
X113183365Y-93662500D01*
X113464990Y-96043750D02*
X113464990Y-93662500D01*
X113119000Y-97455750D02*
X113119000Y-96389740D01*
X113119000Y-96389740D02*
X113464990Y-96043750D01*
X102616000Y-109728000D02*
X102616000Y-108585000D01*
X108187250Y-103124000D02*
X108219000Y-103155750D01*
X104775000Y-103124000D02*
X108187250Y-103124000D01*
D23*
X109919000Y-111981750D02*
X109347000Y-112553750D01*
X109919000Y-108855750D02*
X109919000Y-111981750D01*
X117919000Y-112108750D02*
X118364000Y-112553750D01*
X117919000Y-108855750D02*
X117919000Y-112108750D01*
X124968000Y-100839750D02*
X126617250Y-100839750D01*
X126617250Y-100839750D02*
X126619000Y-100838000D01*
X118395750Y-112553750D02*
X120650000Y-114808000D01*
X118364000Y-112553750D02*
X118395750Y-112553750D01*
X120750000Y-99955750D02*
X119619000Y-99955750D01*
X123284000Y-99955750D02*
X120750000Y-99955750D01*
X124168000Y-100839750D02*
X123284000Y-99955750D01*
X124968000Y-100839750D02*
X124168000Y-100839750D01*
X105607250Y-106355750D02*
X105537000Y-106426000D01*
X108219000Y-106355750D02*
X105607250Y-106355750D01*
X106165750Y-102355750D02*
X105918000Y-102108000D01*
X108219000Y-102355750D02*
X106165750Y-102355750D01*
X104013000Y-100203000D02*
X105918000Y-102108000D01*
X104013000Y-97536000D02*
X104013000Y-100203000D01*
X111519000Y-95898000D02*
X111519000Y-97455750D01*
X110490000Y-94869000D02*
X111519000Y-95898000D01*
X110490000Y-94869000D02*
X106299000Y-94869000D01*
X104902000Y-109701058D02*
X104902000Y-111633000D01*
X102995441Y-107794499D02*
X104902000Y-109701058D01*
X91186000Y-102368000D02*
X96612499Y-107794499D01*
X96612499Y-107794499D02*
X102995441Y-107794499D01*
X108426250Y-111633000D02*
X109347000Y-112553750D01*
X104902000Y-111633000D02*
X108426250Y-111633000D01*
X109347000Y-112553750D02*
X109347000Y-114935000D01*
D24*
X142218000Y-87225750D02*
X140168000Y-87225750D01*
X144942000Y-89949750D02*
X142218000Y-87225750D01*
X145796000Y-89949750D02*
X144942000Y-89949750D01*
X163992000Y-93628750D02*
X164846000Y-93628750D01*
X163574099Y-94046651D02*
X163992000Y-93628750D01*
X147446901Y-94046651D02*
X163574099Y-94046651D01*
X146650000Y-93249750D02*
X147446901Y-94046651D01*
X145796000Y-93249750D02*
X146650000Y-93249750D01*
X119619000Y-102355750D02*
X127768250Y-102355750D01*
X127768250Y-102355750D02*
X135509000Y-94615000D01*
X144942000Y-93249750D02*
X145796000Y-93249750D01*
X143576750Y-94615000D02*
X144942000Y-93249750D01*
X135509000Y-94615000D02*
X143576750Y-94615000D01*
X162941000Y-90328750D02*
X159258000Y-86645750D01*
X164846000Y-90328750D02*
X162941000Y-90328750D01*
X143765000Y-109252750D02*
X140208000Y-105695750D01*
X145669000Y-109252750D02*
X143765000Y-109252750D01*
X146523000Y-112552750D02*
X145669000Y-112552750D01*
X147066901Y-113096651D02*
X146523000Y-112552750D01*
X157832033Y-113096651D02*
X147066901Y-113096651D01*
X158249934Y-112678750D02*
X157832033Y-113096651D01*
X164973000Y-112678750D02*
X158249934Y-112678750D01*
X138782033Y-113096651D02*
X128963901Y-113096651D01*
X139325934Y-112552750D02*
X138782033Y-113096651D01*
X120623000Y-104755750D02*
X119619000Y-104755750D01*
X128963901Y-113096651D02*
X120623000Y-104755750D01*
X145669000Y-112552750D02*
X139325934Y-112552750D01*
X162941000Y-109378750D02*
X159258000Y-105695750D01*
X164973000Y-109378750D02*
X162941000Y-109378750D01*
D23*
X95301000Y-88334180D02*
X95301000Y-88011000D01*
X91186000Y-99568000D02*
X91186000Y-92449180D01*
X91186000Y-92449180D02*
X95301000Y-88334180D01*
D24*
X124903000Y-108235750D02*
X133858000Y-108235750D01*
X120623000Y-103955750D02*
X124903000Y-108235750D01*
X119619000Y-103955750D02*
X120623000Y-103955750D01*
X147828000Y-103155750D02*
X119619000Y-103155750D01*
X152908000Y-108235750D02*
X147828000Y-103155750D01*
X97461000Y-113720000D02*
X97461000Y-112470000D01*
X97461000Y-112470000D02*
X97536000Y-112395000D01*
X100959000Y-97790000D02*
X101213000Y-97536000D01*
X99441000Y-97790000D02*
X100959000Y-97790000D01*
X110719000Y-96451750D02*
X110719000Y-97455750D01*
X110601240Y-96333990D02*
X110719000Y-96451750D01*
X101440010Y-96333990D02*
X110601240Y-96333990D01*
X101213000Y-97536000D02*
X101213000Y-96561000D01*
X101213000Y-96561000D02*
X101440010Y-96333990D01*
X96901000Y-89535000D02*
X98425000Y-91059000D01*
X96901000Y-88011000D02*
X96901000Y-89535000D01*
X107215000Y-104755750D02*
X108219000Y-104755750D01*
X98425000Y-93859000D02*
X97729290Y-94554710D01*
X97729290Y-94554710D02*
X97723290Y-94554710D01*
X97723290Y-94554710D02*
X96901000Y-95377000D01*
X96901000Y-95377000D02*
X96901000Y-96325962D01*
X96901000Y-96325962D02*
X105330788Y-104755750D01*
X105330788Y-104755750D02*
X107215000Y-104755750D01*
X96101000Y-89440000D02*
X96101000Y-88011000D01*
X94488000Y-91053000D02*
X96101000Y-89440000D01*
X104539750Y-105555750D02*
X108219000Y-105555750D01*
X95885000Y-96901000D02*
X104539750Y-105555750D01*
X94488000Y-93853000D02*
X95885000Y-95250000D01*
X95885000Y-95250000D02*
X95885000Y-96901000D01*
X120998750Y-107155750D02*
X119619000Y-107155750D01*
X124079000Y-110236000D02*
X120998750Y-107155750D01*
G36*
X91872401Y-82439966D02*
G01*
X91787487Y-82719889D01*
X91766000Y-82938050D01*
X91766000Y-84083949D01*
X91787487Y-84302110D01*
X91872401Y-84582033D01*
X92010294Y-84840013D01*
X92195866Y-85066134D01*
X92421986Y-85251706D01*
X92679966Y-85389599D01*
X92959889Y-85474513D01*
X93251000Y-85503185D01*
X93542110Y-85474513D01*
X93822033Y-85389599D01*
X94080013Y-85251706D01*
X94306134Y-85066134D01*
X94491706Y-84840014D01*
X94629599Y-84582034D01*
X94714513Y-84302111D01*
X94736000Y-84083950D01*
X94736000Y-82938050D01*
X94714513Y-82719889D01*
X94629599Y-82439966D01*
X94616923Y-82416250D01*
X99185077Y-82416250D01*
X99172401Y-82439966D01*
X99087487Y-82719889D01*
X99066000Y-82938050D01*
X99066000Y-84083949D01*
X99087487Y-84302110D01*
X99172401Y-84582033D01*
X99310294Y-84840013D01*
X99495866Y-85066134D01*
X99721986Y-85251706D01*
X99979966Y-85389599D01*
X100259889Y-85474513D01*
X100551000Y-85503185D01*
X100842110Y-85474513D01*
X101122033Y-85389599D01*
X101380013Y-85251706D01*
X101606134Y-85066134D01*
X101791706Y-84840014D01*
X101929599Y-84582034D01*
X102014513Y-84302111D01*
X102036000Y-84083950D01*
X102036000Y-82938050D01*
X102014513Y-82719889D01*
X101929599Y-82439966D01*
X101916923Y-82416250D01*
X127666750Y-82416250D01*
X127666750Y-101379620D01*
X127452620Y-101593750D01*
X127326961Y-101593750D01*
X127422937Y-101497774D01*
X127536205Y-101328256D01*
X127614226Y-101139898D01*
X127654000Y-100939939D01*
X127654000Y-100736061D01*
X127614226Y-100536102D01*
X127536205Y-100347744D01*
X127422937Y-100178226D01*
X127278774Y-100034063D01*
X127109256Y-99920795D01*
X126920898Y-99842774D01*
X126720939Y-99803000D01*
X126517061Y-99803000D01*
X126317102Y-99842774D01*
X126128744Y-99920795D01*
X126049079Y-99974026D01*
X126047792Y-99972458D01*
X126041436Y-99967242D01*
X126119185Y-99903435D01*
X126198537Y-99806744D01*
X126257502Y-99696430D01*
X126293812Y-99576732D01*
X126306072Y-99452250D01*
X126303000Y-99250500D01*
X126144250Y-99091750D01*
X125095000Y-99091750D01*
X125095000Y-99111750D01*
X124841000Y-99111750D01*
X124841000Y-99091750D01*
X123791750Y-99091750D01*
X123661824Y-99221676D01*
X123601434Y-99189397D01*
X123445826Y-99142194D01*
X123324553Y-99130250D01*
X123324550Y-99130250D01*
X123284000Y-99126256D01*
X123243450Y-99130250D01*
X121004000Y-99130250D01*
X121004000Y-99028748D01*
X120845252Y-99028748D01*
X121004000Y-98870000D01*
X120994177Y-98753119D01*
X120957265Y-98633605D01*
X120897746Y-98523589D01*
X120859325Y-98477250D01*
X123629928Y-98477250D01*
X123633000Y-98679000D01*
X123791750Y-98837750D01*
X124841000Y-98837750D01*
X124841000Y-98001000D01*
X125095000Y-98001000D01*
X125095000Y-98837750D01*
X126144250Y-98837750D01*
X126303000Y-98679000D01*
X126306072Y-98477250D01*
X126293812Y-98352768D01*
X126257502Y-98233070D01*
X126198537Y-98122756D01*
X126119185Y-98026065D01*
X126022494Y-97946713D01*
X125912180Y-97887748D01*
X125792482Y-97851438D01*
X125668000Y-97839178D01*
X125253750Y-97842250D01*
X125095000Y-98001000D01*
X124841000Y-98001000D01*
X124682250Y-97842250D01*
X124268000Y-97839178D01*
X124143518Y-97851438D01*
X124023820Y-97887748D01*
X123913506Y-97946713D01*
X123816815Y-98026065D01*
X123737463Y-98122756D01*
X123678498Y-98233070D01*
X123642188Y-98352768D01*
X123629928Y-98477250D01*
X120859325Y-98477250D01*
X120817908Y-98427299D01*
X120720818Y-98348434D01*
X120610208Y-98290026D01*
X120490329Y-98254320D01*
X120365787Y-98242686D01*
X119904750Y-98245750D01*
X119746000Y-98404500D01*
X119746000Y-99028750D01*
X119766000Y-99028750D01*
X119766000Y-99042678D01*
X118869000Y-99042678D01*
X118744518Y-99054938D01*
X118624820Y-99091248D01*
X118514506Y-99150213D01*
X118417815Y-99229565D01*
X118338463Y-99326256D01*
X118326083Y-99349417D01*
X118234000Y-99441500D01*
X118243546Y-99555087D01*
X118243188Y-99556268D01*
X118230928Y-99680750D01*
X118230928Y-100230750D01*
X118243188Y-100355232D01*
X118243345Y-100355750D01*
X118243188Y-100356268D01*
X118230928Y-100480750D01*
X118230928Y-101030750D01*
X118243188Y-101155232D01*
X118243345Y-101155750D01*
X118243188Y-101156268D01*
X118230928Y-101280750D01*
X118230928Y-101830750D01*
X118243188Y-101955232D01*
X118243345Y-101955750D01*
X118243188Y-101956268D01*
X118230928Y-102080750D01*
X118230928Y-102630750D01*
X118243188Y-102755232D01*
X118243345Y-102755750D01*
X118243188Y-102756268D01*
X118230928Y-102880750D01*
X118230928Y-103430750D01*
X118243188Y-103555232D01*
X118243345Y-103555750D01*
X118243188Y-103556268D01*
X118230928Y-103680750D01*
X118230928Y-104230750D01*
X118243188Y-104355232D01*
X118243345Y-104355750D01*
X118243188Y-104356268D01*
X118230928Y-104480750D01*
X118230928Y-105030750D01*
X118243188Y-105155232D01*
X118243345Y-105155750D01*
X118243188Y-105156268D01*
X118230928Y-105280750D01*
X118230928Y-105830750D01*
X118243188Y-105955232D01*
X118243345Y-105955750D01*
X118243188Y-105956268D01*
X118230928Y-106080750D01*
X118230928Y-106630750D01*
X118243188Y-106755232D01*
X118243345Y-106755750D01*
X118243188Y-106756268D01*
X118230928Y-106880750D01*
X118230928Y-107430750D01*
X118234962Y-107471712D01*
X118194000Y-107467678D01*
X117644000Y-107467678D01*
X117519518Y-107479938D01*
X117518337Y-107480296D01*
X117404750Y-107470750D01*
X117312667Y-107562833D01*
X117289506Y-107575213D01*
X117192815Y-107654565D01*
X117119000Y-107744509D01*
X117045185Y-107654565D01*
X116948494Y-107575213D01*
X116925333Y-107562833D01*
X116833250Y-107470750D01*
X116719663Y-107480296D01*
X116718482Y-107479938D01*
X116594000Y-107467678D01*
X116044000Y-107467678D01*
X115919518Y-107479938D01*
X115919000Y-107480095D01*
X115918482Y-107479938D01*
X115794000Y-107467678D01*
X115244000Y-107467678D01*
X115119518Y-107479938D01*
X115119000Y-107480095D01*
X115118482Y-107479938D01*
X114994000Y-107467678D01*
X114444000Y-107467678D01*
X114319518Y-107479938D01*
X114319000Y-107480095D01*
X114318482Y-107479938D01*
X114194000Y-107467678D01*
X113644000Y-107467678D01*
X113519518Y-107479938D01*
X113519000Y-107480095D01*
X113518482Y-107479938D01*
X113394000Y-107467678D01*
X112844000Y-107467678D01*
X112719518Y-107479938D01*
X112719000Y-107480095D01*
X112718482Y-107479938D01*
X112594000Y-107467678D01*
X112044000Y-107467678D01*
X111919518Y-107479938D01*
X111919000Y-107480095D01*
X111918482Y-107479938D01*
X111794000Y-107467678D01*
X111244000Y-107467678D01*
X111119518Y-107479938D01*
X111118337Y-107480296D01*
X111004750Y-107470750D01*
X110912667Y-107562833D01*
X110889506Y-107575213D01*
X110792815Y-107654565D01*
X110719000Y-107744509D01*
X110645185Y-107654565D01*
X110548494Y-107575213D01*
X110525333Y-107562833D01*
X110433250Y-107470750D01*
X110319663Y-107480296D01*
X110318482Y-107479938D01*
X110194000Y-107467678D01*
X109644000Y-107467678D01*
X109603038Y-107471712D01*
X109607072Y-107430750D01*
X109607072Y-106880750D01*
X109594812Y-106756268D01*
X109594655Y-106755750D01*
X109594812Y-106755232D01*
X109607072Y-106630750D01*
X109607072Y-106080750D01*
X109594812Y-105956268D01*
X109594655Y-105955750D01*
X109594812Y-105955232D01*
X109607072Y-105830750D01*
X109607072Y-105280750D01*
X109594812Y-105156268D01*
X109594655Y-105155750D01*
X109594812Y-105155232D01*
X109607072Y-105030750D01*
X109607072Y-104480750D01*
X109594812Y-104356268D01*
X109594454Y-104355087D01*
X109604000Y-104241500D01*
X109511917Y-104149417D01*
X109499537Y-104126256D01*
X109420185Y-104029565D01*
X109330241Y-103955750D01*
X109420185Y-103881935D01*
X109499537Y-103785244D01*
X109511917Y-103762083D01*
X109604000Y-103670000D01*
X109594454Y-103556413D01*
X109594812Y-103555232D01*
X109607072Y-103430750D01*
X109607072Y-102880750D01*
X109594812Y-102756268D01*
X109594655Y-102755750D01*
X109594812Y-102755232D01*
X109607072Y-102630750D01*
X109607072Y-102080750D01*
X109594812Y-101956268D01*
X109594655Y-101955750D01*
X109594812Y-101955232D01*
X109607072Y-101830750D01*
X109607072Y-101280750D01*
X109594812Y-101156268D01*
X109594655Y-101155750D01*
X109594812Y-101155232D01*
X109607072Y-101030750D01*
X109607072Y-100480750D01*
X109594812Y-100356268D01*
X109594655Y-100355750D01*
X109594812Y-100355232D01*
X109607072Y-100230750D01*
X109607072Y-99680750D01*
X109594812Y-99556268D01*
X109594655Y-99555750D01*
X109594812Y-99555232D01*
X109607072Y-99430750D01*
X109607072Y-98880750D01*
X109603038Y-98839788D01*
X109644000Y-98843822D01*
X110194000Y-98843822D01*
X110318482Y-98831562D01*
X110319000Y-98831405D01*
X110319518Y-98831562D01*
X110444000Y-98843822D01*
X110994000Y-98843822D01*
X111118482Y-98831562D01*
X111119000Y-98831405D01*
X111119518Y-98831562D01*
X111244000Y-98843822D01*
X111794000Y-98843822D01*
X111918482Y-98831562D01*
X111919663Y-98831204D01*
X112033250Y-98840750D01*
X112125333Y-98748667D01*
X112148494Y-98736287D01*
X112245185Y-98656935D01*
X112319000Y-98566991D01*
X112392815Y-98656935D01*
X112489506Y-98736287D01*
X112512667Y-98748667D01*
X112604750Y-98840750D01*
X112718337Y-98831204D01*
X112719518Y-98831562D01*
X112844000Y-98843822D01*
X113394000Y-98843822D01*
X113518482Y-98831562D01*
X113519000Y-98831405D01*
X113519518Y-98831562D01*
X113644000Y-98843822D01*
X114194000Y-98843822D01*
X114318482Y-98831562D01*
X114319000Y-98831405D01*
X114319518Y-98831562D01*
X114444000Y-98843822D01*
X114994000Y-98843822D01*
X115118482Y-98831562D01*
X115119000Y-98831405D01*
X115119518Y-98831562D01*
X115244000Y-98843822D01*
X115794000Y-98843822D01*
X115918482Y-98831562D01*
X115919000Y-98831405D01*
X115919518Y-98831562D01*
X116044000Y-98843822D01*
X116594000Y-98843822D01*
X116718482Y-98831562D01*
X116719000Y-98831405D01*
X116719518Y-98831562D01*
X116844000Y-98843822D01*
X117394000Y-98843822D01*
X117518482Y-98831562D01*
X117519000Y-98831405D01*
X117519518Y-98831562D01*
X117644000Y-98843822D01*
X118194000Y-98843822D01*
X118236552Y-98839631D01*
X118234000Y-98870000D01*
X118392750Y-99028750D01*
X119492000Y-99028750D01*
X119492000Y-98404500D01*
X119333250Y-98245750D01*
X118872213Y-98242686D01*
X118828028Y-98246814D01*
X118832072Y-98205750D01*
X118832072Y-96705750D01*
X118819812Y-96581268D01*
X118783502Y-96461570D01*
X118724537Y-96351256D01*
X118645185Y-96254565D01*
X118548494Y-96175213D01*
X118438180Y-96116248D01*
X118318482Y-96079938D01*
X118194000Y-96067678D01*
X117644000Y-96067678D01*
X117519518Y-96079938D01*
X117519000Y-96080095D01*
X117518482Y-96079938D01*
X117394000Y-96067678D01*
X116844000Y-96067678D01*
X116719518Y-96079938D01*
X116719000Y-96080095D01*
X116718482Y-96079938D01*
X116594000Y-96067678D01*
X116044000Y-96067678D01*
X115919518Y-96079938D01*
X115919000Y-96080095D01*
X115918482Y-96079938D01*
X115794000Y-96067678D01*
X115244000Y-96067678D01*
X115119518Y-96079938D01*
X115119000Y-96080095D01*
X115118482Y-96079938D01*
X114994000Y-96067678D01*
X114681000Y-96067678D01*
X114681000Y-93675380D01*
X114773346Y-93583034D01*
X114802422Y-93559172D01*
X114897645Y-93443142D01*
X114922995Y-93395716D01*
X114985482Y-93389562D01*
X115105180Y-93353252D01*
X115215494Y-93294287D01*
X115312185Y-93214935D01*
X115391537Y-93118244D01*
X115450502Y-93007930D01*
X115486812Y-92888232D01*
X115499072Y-92763750D01*
X115499072Y-92282250D01*
X117832797Y-92282250D01*
X117919208Y-92387542D01*
X118052836Y-92497208D01*
X118205291Y-92578697D01*
X118370715Y-92628878D01*
X118542750Y-92645822D01*
X119455250Y-92645822D01*
X119627285Y-92628878D01*
X119792709Y-92578697D01*
X119945164Y-92497208D01*
X120078792Y-92387542D01*
X120188458Y-92253914D01*
X120269947Y-92101459D01*
X120320128Y-91936035D01*
X120337072Y-91764000D01*
X120337072Y-91276500D01*
X120320128Y-91104465D01*
X120269947Y-90939041D01*
X120188458Y-90786586D01*
X120078792Y-90652958D01*
X120072436Y-90647742D01*
X120150185Y-90583935D01*
X120229537Y-90487244D01*
X120288502Y-90376930D01*
X120324812Y-90257232D01*
X120337072Y-90132750D01*
X120334000Y-89931000D01*
X120175250Y-89772250D01*
X119126000Y-89772250D01*
X119126000Y-89792250D01*
X118872000Y-89792250D01*
X118872000Y-89772250D01*
X117822750Y-89772250D01*
X117664000Y-89931000D01*
X117660928Y-90132750D01*
X117673188Y-90257232D01*
X117709498Y-90376930D01*
X117768463Y-90487244D01*
X117847815Y-90583935D01*
X117925564Y-90647742D01*
X117919208Y-90652958D01*
X117832797Y-90758250D01*
X115465572Y-90758250D01*
X115486812Y-90688232D01*
X115499072Y-90563750D01*
X115496000Y-90149500D01*
X115337250Y-89990750D01*
X114388000Y-89990750D01*
X114388000Y-90010750D01*
X114134000Y-90010750D01*
X114134000Y-89990750D01*
X114114000Y-89990750D01*
X114114000Y-89736750D01*
X114134000Y-89736750D01*
X114134000Y-88687500D01*
X114388000Y-88687500D01*
X114388000Y-89736750D01*
X115337250Y-89736750D01*
X115496000Y-89578000D01*
X115499072Y-89163750D01*
X115498482Y-89157750D01*
X117660928Y-89157750D01*
X117664000Y-89359500D01*
X117822750Y-89518250D01*
X118872000Y-89518250D01*
X118872000Y-88681500D01*
X119126000Y-88681500D01*
X119126000Y-89518250D01*
X120175250Y-89518250D01*
X120334000Y-89359500D01*
X120337072Y-89157750D01*
X120324812Y-89033268D01*
X120288502Y-88913570D01*
X120229537Y-88803256D01*
X120150185Y-88706565D01*
X120053494Y-88627213D01*
X119943180Y-88568248D01*
X119823482Y-88531938D01*
X119699000Y-88519678D01*
X119284750Y-88522750D01*
X119126000Y-88681500D01*
X118872000Y-88681500D01*
X118713250Y-88522750D01*
X118299000Y-88519678D01*
X118174518Y-88531938D01*
X118054820Y-88568248D01*
X117944506Y-88627213D01*
X117847815Y-88706565D01*
X117768463Y-88803256D01*
X117709498Y-88913570D01*
X117673188Y-89033268D01*
X117660928Y-89157750D01*
X115498482Y-89157750D01*
X115486812Y-89039268D01*
X115450502Y-88919570D01*
X115391537Y-88809256D01*
X115312185Y-88712565D01*
X115215494Y-88633213D01*
X115105180Y-88574248D01*
X114985482Y-88537938D01*
X114861000Y-88525678D01*
X114546750Y-88528750D01*
X114388000Y-88687500D01*
X114134000Y-88687500D01*
X113975250Y-88528750D01*
X113661000Y-88525678D01*
X113536518Y-88537938D01*
X113416820Y-88574248D01*
X113411000Y-88577359D01*
X113405180Y-88574248D01*
X113285482Y-88537938D01*
X113161000Y-88525678D01*
X111961000Y-88525678D01*
X111836518Y-88537938D01*
X111716820Y-88574248D01*
X111606506Y-88633213D01*
X111509815Y-88712565D01*
X111430463Y-88809256D01*
X111371498Y-88919570D01*
X111335188Y-89039268D01*
X111330315Y-89088750D01*
X107846203Y-89088750D01*
X107759792Y-88983458D01*
X107626164Y-88873792D01*
X107473709Y-88792303D01*
X107308285Y-88742122D01*
X107136250Y-88725178D01*
X106223750Y-88725178D01*
X106051715Y-88742122D01*
X105886291Y-88792303D01*
X105733836Y-88873792D01*
X105600208Y-88983458D01*
X105490542Y-89117086D01*
X105409053Y-89269541D01*
X105358872Y-89434965D01*
X105341928Y-89607000D01*
X105341928Y-90094500D01*
X105343425Y-90109695D01*
X103500654Y-91952466D01*
X103471578Y-91976328D01*
X103430548Y-92026324D01*
X103376355Y-92092358D01*
X103341860Y-92156895D01*
X103305598Y-92224736D01*
X103262026Y-92368373D01*
X103253255Y-92457430D01*
X103247314Y-92517750D01*
X103251000Y-92555174D01*
X103251000Y-92770289D01*
X103209063Y-92812226D01*
X103095795Y-92981744D01*
X103017774Y-93170102D01*
X102978000Y-93370061D01*
X102978000Y-93573939D01*
X103017774Y-93773898D01*
X103095795Y-93962256D01*
X103209063Y-94131774D01*
X103353226Y-94275937D01*
X103522744Y-94389205D01*
X103711102Y-94467226D01*
X103911061Y-94507000D01*
X104114939Y-94507000D01*
X104314898Y-94467226D01*
X104503256Y-94389205D01*
X104672774Y-94275937D01*
X104816937Y-94131774D01*
X104930205Y-93962256D01*
X105008226Y-93773898D01*
X105048000Y-93573939D01*
X105048000Y-93370061D01*
X105008226Y-93170102D01*
X104930205Y-92981744D01*
X104816937Y-92812226D01*
X104806546Y-92801835D01*
X105346698Y-92261682D01*
X105354188Y-92337732D01*
X105390498Y-92457430D01*
X105449463Y-92567744D01*
X105528815Y-92664435D01*
X105625506Y-92743787D01*
X105735820Y-92802752D01*
X105855518Y-92839062D01*
X105980000Y-92851322D01*
X106394250Y-92848250D01*
X106553000Y-92689500D01*
X106553000Y-91852750D01*
X106807000Y-91852750D01*
X106807000Y-92689500D01*
X106965750Y-92848250D01*
X107380000Y-92851322D01*
X107504482Y-92839062D01*
X107624180Y-92802752D01*
X107734494Y-92743787D01*
X107831185Y-92664435D01*
X107910537Y-92567744D01*
X107969502Y-92457430D01*
X108005812Y-92337732D01*
X108018072Y-92213250D01*
X108015000Y-92011500D01*
X107856250Y-91852750D01*
X106807000Y-91852750D01*
X106553000Y-91852750D01*
X106533000Y-91852750D01*
X106533000Y-91598750D01*
X106553000Y-91598750D01*
X106553000Y-91578750D01*
X106807000Y-91578750D01*
X106807000Y-91598750D01*
X107856250Y-91598750D01*
X108015000Y-91440000D01*
X108018072Y-91238250D01*
X108005812Y-91113768D01*
X107969502Y-90994070D01*
X107910537Y-90883756D01*
X107831185Y-90787065D01*
X107753436Y-90723258D01*
X107759792Y-90718042D01*
X107846203Y-90612750D01*
X111327754Y-90612750D01*
X111335188Y-90688232D01*
X111371498Y-90807930D01*
X111430463Y-90918244D01*
X111467809Y-90963750D01*
X111430463Y-91009256D01*
X111371498Y-91119570D01*
X111335188Y-91239268D01*
X111322928Y-91363750D01*
X111326000Y-91778000D01*
X111484750Y-91936750D01*
X112434000Y-91936750D01*
X112434000Y-91916750D01*
X112688000Y-91916750D01*
X112688000Y-91936750D01*
X112708000Y-91936750D01*
X112708000Y-92190750D01*
X112688000Y-92190750D01*
X112688000Y-92210750D01*
X112434000Y-92210750D01*
X112434000Y-92190750D01*
X111484750Y-92190750D01*
X111326000Y-92349500D01*
X111322928Y-92763750D01*
X111335188Y-92888232D01*
X111371498Y-93007930D01*
X111430463Y-93118244D01*
X111509815Y-93214935D01*
X111606506Y-93294287D01*
X111716820Y-93353252D01*
X111836518Y-93389562D01*
X111961000Y-93401822D01*
X112164099Y-93399837D01*
X112134823Y-93547019D01*
X112134823Y-93589573D01*
X112079250Y-93534000D01*
X111877500Y-93530928D01*
X111753018Y-93543188D01*
X111633320Y-93579498D01*
X111523006Y-93638463D01*
X111426315Y-93717815D01*
X111362508Y-93795564D01*
X111357292Y-93789208D01*
X111223664Y-93679542D01*
X111071209Y-93598053D01*
X110905785Y-93547872D01*
X110733750Y-93530928D01*
X110246250Y-93530928D01*
X110074215Y-93547872D01*
X109908791Y-93598053D01*
X109756336Y-93679542D01*
X109622708Y-93789208D01*
X109513042Y-93922836D01*
X109448546Y-94043500D01*
X106926503Y-94043500D01*
X106789256Y-93951795D01*
X106600898Y-93873774D01*
X106400939Y-93834000D01*
X106197061Y-93834000D01*
X105997102Y-93873774D01*
X105808744Y-93951795D01*
X105639226Y-94065063D01*
X105495063Y-94209226D01*
X105381795Y-94378744D01*
X105303774Y-94567102D01*
X105264000Y-94767061D01*
X105264000Y-94970939D01*
X105303774Y-95170898D01*
X105381795Y-95359256D01*
X105495063Y-95528774D01*
X105538279Y-95571990D01*
X101477433Y-95571990D01*
X101440010Y-95568304D01*
X101402587Y-95571990D01*
X101402584Y-95571990D01*
X101290632Y-95583016D01*
X101146995Y-95626588D01*
X101014618Y-95697345D01*
X100898588Y-95792568D01*
X100874722Y-95821648D01*
X100700650Y-95995720D01*
X100671579Y-96019578D01*
X100651538Y-96043999D01*
X100498150Y-96090528D01*
X100344614Y-96172595D01*
X100210038Y-96283038D01*
X100099595Y-96417614D01*
X100017528Y-96571150D01*
X99966992Y-96737746D01*
X99952306Y-96886860D01*
X99931256Y-96872795D01*
X99742898Y-96794774D01*
X99542939Y-96755000D01*
X99339061Y-96755000D01*
X99139102Y-96794774D01*
X98950744Y-96872795D01*
X98781226Y-96986063D01*
X98709979Y-97057311D01*
X97663000Y-96010332D01*
X97663000Y-95692630D01*
X98208177Y-95147453D01*
X98239104Y-95122072D01*
X99050000Y-95122072D01*
X99223254Y-95105008D01*
X99389850Y-95054472D01*
X99543386Y-94972405D01*
X99677962Y-94861962D01*
X99788405Y-94727386D01*
X99870472Y-94573850D01*
X99921008Y-94407254D01*
X99938072Y-94234000D01*
X99938072Y-93484000D01*
X99921008Y-93310746D01*
X99870472Y-93144150D01*
X99788405Y-92990614D01*
X99677962Y-92856038D01*
X99543386Y-92745595D01*
X99389850Y-92663528D01*
X99223254Y-92612992D01*
X99050000Y-92595928D01*
X97800000Y-92595928D01*
X97626746Y-92612992D01*
X97460150Y-92663528D01*
X97306614Y-92745595D01*
X97172038Y-92856038D01*
X97061595Y-92990614D01*
X96979528Y-93144150D01*
X96928992Y-93310746D01*
X96911928Y-93484000D01*
X96911928Y-94234000D01*
X96916809Y-94283561D01*
X96455888Y-94744482D01*
X96426422Y-94708578D01*
X96397353Y-94684722D01*
X95995653Y-94283022D01*
X96001072Y-94228000D01*
X96001072Y-93478000D01*
X95984008Y-93304746D01*
X95933472Y-93138150D01*
X95851405Y-92984614D01*
X95740962Y-92850038D01*
X95606386Y-92739595D01*
X95452850Y-92657528D01*
X95286254Y-92606992D01*
X95113000Y-92589928D01*
X93863000Y-92589928D01*
X93689746Y-92606992D01*
X93523150Y-92657528D01*
X93369614Y-92739595D01*
X93235038Y-92850038D01*
X93124595Y-92984614D01*
X93042528Y-93138150D01*
X92991992Y-93304746D01*
X92974928Y-93478000D01*
X92974928Y-94228000D01*
X92991992Y-94401254D01*
X93042528Y-94567850D01*
X93124595Y-94721386D01*
X93235038Y-94855962D01*
X93369614Y-94966405D01*
X93523150Y-95048472D01*
X93689746Y-95099008D01*
X93863000Y-95116072D01*
X94673441Y-95116072D01*
X95123000Y-95565631D01*
X95123001Y-96863567D01*
X95119314Y-96901000D01*
X95134027Y-97050378D01*
X95177599Y-97194015D01*
X95248355Y-97326392D01*
X95287570Y-97374175D01*
X95343579Y-97442422D01*
X95372649Y-97466279D01*
X103974471Y-106068102D01*
X103998328Y-106097172D01*
X104027398Y-106121029D01*
X104114357Y-106192395D01*
X104185114Y-106230215D01*
X104246735Y-106263152D01*
X104390372Y-106306724D01*
X104502324Y-106317750D01*
X104502327Y-106317750D01*
X104503237Y-106317840D01*
X104502000Y-106324061D01*
X104502000Y-106527939D01*
X104541774Y-106727898D01*
X104619795Y-106916256D01*
X104733063Y-107085774D01*
X104877226Y-107229937D01*
X105046744Y-107343205D01*
X105235102Y-107421226D01*
X105435061Y-107461000D01*
X105638939Y-107461000D01*
X105838898Y-107421226D01*
X106027256Y-107343205D01*
X106196774Y-107229937D01*
X106245461Y-107181250D01*
X106830928Y-107181250D01*
X106830928Y-107430750D01*
X106843188Y-107555232D01*
X106879498Y-107674930D01*
X106938463Y-107785244D01*
X107017815Y-107881935D01*
X107114506Y-107961287D01*
X107224820Y-108020252D01*
X107344518Y-108056562D01*
X107469000Y-108068822D01*
X108969000Y-108068822D01*
X109009962Y-108064788D01*
X109005928Y-108105750D01*
X109005928Y-109605750D01*
X109018188Y-109730232D01*
X109054498Y-109849930D01*
X109093500Y-109922897D01*
X109093501Y-111132819D01*
X109038648Y-111077966D01*
X109012791Y-111046459D01*
X108887092Y-110943301D01*
X108743684Y-110866647D01*
X108588076Y-110819444D01*
X108466803Y-110807500D01*
X108466800Y-110807500D01*
X108426250Y-110803506D01*
X108385700Y-110807500D01*
X105727500Y-110807500D01*
X105727500Y-109741608D01*
X105731494Y-109701058D01*
X105727500Y-109660505D01*
X105715556Y-109539232D01*
X105668353Y-109383624D01*
X105630184Y-109312215D01*
X105591699Y-109240215D01*
X105514392Y-109146016D01*
X105514389Y-109146013D01*
X105488541Y-109114517D01*
X105457046Y-109088670D01*
X103607839Y-107239465D01*
X103581982Y-107207958D01*
X103456283Y-107104800D01*
X103312875Y-107028146D01*
X103157267Y-106980943D01*
X103035994Y-106968999D01*
X103035991Y-106968999D01*
X102995441Y-106965005D01*
X102954891Y-106968999D01*
X96954432Y-106968999D01*
X92699072Y-102713640D01*
X92699072Y-101993000D01*
X92682008Y-101819746D01*
X92631472Y-101653150D01*
X92549405Y-101499614D01*
X92438962Y-101365038D01*
X92304386Y-101254595D01*
X92150850Y-101172528D01*
X91984254Y-101121992D01*
X91811000Y-101104928D01*
X90561000Y-101104928D01*
X90387746Y-101121992D01*
X90221150Y-101172528D01*
X90067614Y-101254595D01*
X89933038Y-101365038D01*
X89822595Y-101499614D01*
X89740528Y-101653150D01*
X89689992Y-101819746D01*
X89672928Y-101993000D01*
X89672928Y-102743000D01*
X89689992Y-102916254D01*
X89740528Y-103082850D01*
X89822595Y-103236386D01*
X89933038Y-103370962D01*
X90067614Y-103481405D01*
X90221150Y-103563472D01*
X90387746Y-103614008D01*
X90561000Y-103631072D01*
X91281640Y-103631072D01*
X96000106Y-108349539D01*
X96025958Y-108381040D01*
X96092467Y-108435622D01*
X96151655Y-108484197D01*
X96151657Y-108484198D01*
X96295065Y-108560852D01*
X96450673Y-108608055D01*
X96571946Y-108619999D01*
X96571955Y-108619999D01*
X96612498Y-108623992D01*
X96653041Y-108619999D01*
X101581000Y-108619999D01*
X101581000Y-108686939D01*
X101604428Y-108804721D01*
X101536208Y-108860708D01*
X101426542Y-108994336D01*
X101345053Y-109146791D01*
X101294872Y-109312215D01*
X101277928Y-109484250D01*
X101277928Y-109971750D01*
X101294872Y-110143785D01*
X101345053Y-110309209D01*
X101426542Y-110461664D01*
X101536208Y-110595292D01*
X101542564Y-110600508D01*
X101464815Y-110664315D01*
X101385463Y-110761006D01*
X101326498Y-110871320D01*
X101290188Y-110991018D01*
X101277928Y-111115500D01*
X101281000Y-111317250D01*
X101439750Y-111476000D01*
X102489000Y-111476000D01*
X102489000Y-111456000D01*
X102743000Y-111456000D01*
X102743000Y-111476000D01*
X103792250Y-111476000D01*
X103951000Y-111317250D01*
X103954072Y-111115500D01*
X103941812Y-110991018D01*
X103905502Y-110871320D01*
X103846537Y-110761006D01*
X103767185Y-110664315D01*
X103689436Y-110600508D01*
X103695792Y-110595292D01*
X103805458Y-110461664D01*
X103886947Y-110309209D01*
X103937128Y-110143785D01*
X103954072Y-109971750D01*
X103954072Y-109920564D01*
X104076500Y-110042992D01*
X104076501Y-111592437D01*
X104072506Y-111633000D01*
X104088444Y-111794826D01*
X104135647Y-111950434D01*
X104212301Y-112093842D01*
X104315459Y-112219541D01*
X104441158Y-112322699D01*
X104584566Y-112399353D01*
X104740174Y-112446556D01*
X104861447Y-112458500D01*
X104902000Y-112462494D01*
X104942553Y-112458500D01*
X108084318Y-112458500D01*
X108221428Y-112595610D01*
X108221428Y-113010000D01*
X108238372Y-113182035D01*
X108288553Y-113347459D01*
X108370042Y-113499914D01*
X108479708Y-113633542D01*
X108521500Y-113667840D01*
X108521501Y-114307496D01*
X108429795Y-114444744D01*
X108351774Y-114633102D01*
X108312000Y-114833061D01*
X108312000Y-115036939D01*
X108351774Y-115236898D01*
X108429795Y-115425256D01*
X108543063Y-115594774D01*
X108687226Y-115738937D01*
X108856744Y-115852205D01*
X109045102Y-115930226D01*
X109245061Y-115970000D01*
X109448939Y-115970000D01*
X109648898Y-115930226D01*
X109837256Y-115852205D01*
X110006774Y-115738937D01*
X110150937Y-115594774D01*
X110264205Y-115425256D01*
X110342226Y-115236898D01*
X110382000Y-115036939D01*
X110382000Y-114833061D01*
X110342226Y-114633102D01*
X110264205Y-114444744D01*
X110172500Y-114307497D01*
X110172500Y-113667840D01*
X110214292Y-113633542D01*
X110219508Y-113627186D01*
X110283315Y-113704935D01*
X110380006Y-113784287D01*
X110490320Y-113843252D01*
X110610018Y-113879562D01*
X110734500Y-113891822D01*
X110936250Y-113888750D01*
X111095000Y-113730000D01*
X111095000Y-112680750D01*
X111349000Y-112680750D01*
X111349000Y-113730000D01*
X111507750Y-113888750D01*
X111709500Y-113891822D01*
X111833982Y-113879562D01*
X111953680Y-113843252D01*
X112063994Y-113784287D01*
X112160685Y-113704935D01*
X112240037Y-113608244D01*
X112299002Y-113497930D01*
X112335312Y-113378232D01*
X112347572Y-113253750D01*
X115363428Y-113253750D01*
X115375688Y-113378232D01*
X115411998Y-113497930D01*
X115470963Y-113608244D01*
X115550315Y-113704935D01*
X115647006Y-113784287D01*
X115757320Y-113843252D01*
X115877018Y-113879562D01*
X116001500Y-113891822D01*
X116203250Y-113888750D01*
X116362000Y-113730000D01*
X116362000Y-112680750D01*
X115525250Y-112680750D01*
X115366500Y-112839500D01*
X115363428Y-113253750D01*
X112347572Y-113253750D01*
X112344500Y-112839500D01*
X112185750Y-112680750D01*
X111349000Y-112680750D01*
X111095000Y-112680750D01*
X111075000Y-112680750D01*
X111075000Y-112426750D01*
X111095000Y-112426750D01*
X111095000Y-111377500D01*
X111349000Y-111377500D01*
X111349000Y-112426750D01*
X112185750Y-112426750D01*
X112344500Y-112268000D01*
X112347572Y-111853750D01*
X115363428Y-111853750D01*
X115366500Y-112268000D01*
X115525250Y-112426750D01*
X116362000Y-112426750D01*
X116362000Y-111377500D01*
X116203250Y-111218750D01*
X116001500Y-111215678D01*
X115877018Y-111227938D01*
X115757320Y-111264248D01*
X115647006Y-111323213D01*
X115550315Y-111402565D01*
X115470963Y-111499256D01*
X115411998Y-111609570D01*
X115375688Y-111729268D01*
X115363428Y-111853750D01*
X112347572Y-111853750D01*
X112335312Y-111729268D01*
X112299002Y-111609570D01*
X112240037Y-111499256D01*
X112160685Y-111402565D01*
X112063994Y-111323213D01*
X111953680Y-111264248D01*
X111833982Y-111227938D01*
X111709500Y-111215678D01*
X111507750Y-111218750D01*
X111349000Y-111377500D01*
X111095000Y-111377500D01*
X110936250Y-111218750D01*
X110744500Y-111215830D01*
X110744500Y-110240750D01*
X110846002Y-110240750D01*
X110846002Y-110100584D01*
X110889506Y-110136287D01*
X110912667Y-110148667D01*
X111004750Y-110240750D01*
X111118337Y-110231204D01*
X111119518Y-110231562D01*
X111244000Y-110243822D01*
X111794000Y-110243822D01*
X111918482Y-110231562D01*
X111919000Y-110231405D01*
X111919518Y-110231562D01*
X112044000Y-110243822D01*
X112594000Y-110243822D01*
X112718482Y-110231562D01*
X112719000Y-110231405D01*
X112719518Y-110231562D01*
X112844000Y-110243822D01*
X113394000Y-110243822D01*
X113518482Y-110231562D01*
X113519000Y-110231405D01*
X113519518Y-110231562D01*
X113644000Y-110243822D01*
X114194000Y-110243822D01*
X114318482Y-110231562D01*
X114319000Y-110231405D01*
X114319518Y-110231562D01*
X114444000Y-110243822D01*
X114994000Y-110243822D01*
X115118482Y-110231562D01*
X115119000Y-110231405D01*
X115119518Y-110231562D01*
X115244000Y-110243822D01*
X115794000Y-110243822D01*
X115918482Y-110231562D01*
X115919000Y-110231405D01*
X115919518Y-110231562D01*
X116044000Y-110243822D01*
X116594000Y-110243822D01*
X116718482Y-110231562D01*
X116719663Y-110231204D01*
X116833250Y-110240750D01*
X116925333Y-110148667D01*
X116948494Y-110136287D01*
X116991998Y-110100584D01*
X116991998Y-110240750D01*
X117093500Y-110240750D01*
X117093501Y-111227201D01*
X116976500Y-111215678D01*
X116774750Y-111218750D01*
X116616000Y-111377500D01*
X116616000Y-112426750D01*
X116636000Y-112426750D01*
X116636000Y-112680750D01*
X116616000Y-112680750D01*
X116616000Y-113730000D01*
X116774750Y-113888750D01*
X116976500Y-113891822D01*
X117100982Y-113879562D01*
X117220680Y-113843252D01*
X117330994Y-113784287D01*
X117427685Y-113704935D01*
X117491492Y-113627186D01*
X117496708Y-113633542D01*
X117630336Y-113743208D01*
X117782791Y-113824697D01*
X117948215Y-113874878D01*
X118120250Y-113891822D01*
X118566389Y-113891822D01*
X119622572Y-114948005D01*
X119654774Y-115109898D01*
X119732795Y-115298256D01*
X119846063Y-115467774D01*
X119990226Y-115611937D01*
X120159744Y-115725205D01*
X120348102Y-115803226D01*
X120548061Y-115843000D01*
X120751939Y-115843000D01*
X120951898Y-115803226D01*
X121140256Y-115725205D01*
X121309774Y-115611937D01*
X121453937Y-115467774D01*
X121567205Y-115298256D01*
X121645226Y-115109898D01*
X121685000Y-114909939D01*
X121685000Y-114706061D01*
X121645226Y-114506102D01*
X121567205Y-114317744D01*
X121453937Y-114148226D01*
X121309774Y-114004063D01*
X121140256Y-113890795D01*
X120951898Y-113812774D01*
X120790005Y-113780572D01*
X120670433Y-113661000D01*
X122565928Y-113661000D01*
X122578188Y-113785482D01*
X122614498Y-113905180D01*
X122673463Y-114015494D01*
X122752815Y-114112185D01*
X122849506Y-114191537D01*
X122959820Y-114250502D01*
X123079518Y-114286812D01*
X123204000Y-114299072D01*
X123793250Y-114296000D01*
X123952000Y-114137250D01*
X123952000Y-113163000D01*
X124206000Y-113163000D01*
X124206000Y-114137250D01*
X124364750Y-114296000D01*
X124954000Y-114299072D01*
X125078482Y-114286812D01*
X125198180Y-114250502D01*
X125308494Y-114191537D01*
X125405185Y-114112185D01*
X125484537Y-114015494D01*
X125543502Y-113905180D01*
X125579812Y-113785482D01*
X125592072Y-113661000D01*
X125589000Y-113321750D01*
X125430250Y-113163000D01*
X124206000Y-113163000D01*
X123952000Y-113163000D01*
X122727750Y-113163000D01*
X122569000Y-113321750D01*
X122565928Y-113661000D01*
X120670433Y-113661000D01*
X119489572Y-112480140D01*
X119489572Y-112411000D01*
X122565928Y-112411000D01*
X122569000Y-112750250D01*
X122727750Y-112909000D01*
X123952000Y-112909000D01*
X123952000Y-111934750D01*
X124206000Y-111934750D01*
X124206000Y-112909000D01*
X125430250Y-112909000D01*
X125589000Y-112750250D01*
X125592072Y-112411000D01*
X125579812Y-112286518D01*
X125543502Y-112166820D01*
X125484537Y-112056506D01*
X125405185Y-111959815D01*
X125308494Y-111880463D01*
X125198180Y-111821498D01*
X125078482Y-111785188D01*
X124954000Y-111772928D01*
X124364750Y-111776000D01*
X124206000Y-111934750D01*
X123952000Y-111934750D01*
X123793250Y-111776000D01*
X123204000Y-111772928D01*
X123079518Y-111785188D01*
X122959820Y-111821498D01*
X122849506Y-111880463D01*
X122752815Y-111959815D01*
X122673463Y-112056506D01*
X122614498Y-112166820D01*
X122578188Y-112286518D01*
X122565928Y-112411000D01*
X119489572Y-112411000D01*
X119489572Y-112097500D01*
X119472628Y-111925465D01*
X119422447Y-111760041D01*
X119340958Y-111607586D01*
X119231292Y-111473958D01*
X119097664Y-111364292D01*
X118945209Y-111282803D01*
X118779785Y-111232622D01*
X118744500Y-111229147D01*
X118744500Y-109922896D01*
X118783502Y-109849930D01*
X118819812Y-109730232D01*
X118832072Y-109605750D01*
X118832072Y-108105750D01*
X118828038Y-108064788D01*
X118869000Y-108068822D01*
X120369000Y-108068822D01*
X120493482Y-108056562D01*
X120613180Y-108020252D01*
X120723494Y-107961287D01*
X120725231Y-107959861D01*
X122571347Y-109805978D01*
X122565928Y-109861000D01*
X122565928Y-110611000D01*
X122582992Y-110784254D01*
X122633528Y-110950850D01*
X122715595Y-111104386D01*
X122826038Y-111238962D01*
X122960614Y-111349405D01*
X123114150Y-111431472D01*
X123280746Y-111482008D01*
X123454000Y-111499072D01*
X124704000Y-111499072D01*
X124877254Y-111482008D01*
X125043850Y-111431472D01*
X125197386Y-111349405D01*
X125331962Y-111238962D01*
X125442405Y-111104386D01*
X125524472Y-110950850D01*
X125574744Y-110785125D01*
X127666750Y-112877131D01*
X127666750Y-119990000D01*
X91313528Y-119990000D01*
X90793367Y-119938998D01*
X90324064Y-119797307D01*
X89891222Y-119567161D01*
X89511323Y-119257323D01*
X89198844Y-118879600D01*
X88965681Y-118448373D01*
X88820718Y-117980073D01*
X88819660Y-117970000D01*
X89722928Y-117970000D01*
X89735188Y-118094482D01*
X89771498Y-118214180D01*
X89830463Y-118324494D01*
X89909815Y-118421185D01*
X90006506Y-118500537D01*
X90116820Y-118559502D01*
X90236518Y-118595812D01*
X90361000Y-118608072D01*
X90975250Y-118605000D01*
X91134000Y-118446250D01*
X91134000Y-117547000D01*
X91388000Y-117547000D01*
X91388000Y-118446250D01*
X91546750Y-118605000D01*
X92161000Y-118608072D01*
X92285482Y-118595812D01*
X92405180Y-118559502D01*
X92515494Y-118500537D01*
X92612185Y-118421185D01*
X92691537Y-118324494D01*
X92750502Y-118214180D01*
X92786812Y-118094482D01*
X92799072Y-117970000D01*
X92796000Y-117705750D01*
X92637250Y-117547000D01*
X91388000Y-117547000D01*
X91134000Y-117547000D01*
X89884750Y-117547000D01*
X89726000Y-117705750D01*
X89722928Y-117970000D01*
X88819660Y-117970000D01*
X88766250Y-117461847D01*
X88766250Y-116870000D01*
X89722928Y-116870000D01*
X89726000Y-117134250D01*
X89884750Y-117293000D01*
X91134000Y-117293000D01*
X91134000Y-116393750D01*
X91388000Y-116393750D01*
X91388000Y-117293000D01*
X92637250Y-117293000D01*
X92796000Y-117134250D01*
X92799072Y-116870000D01*
X95922928Y-116870000D01*
X95922928Y-117970000D01*
X95935188Y-118094482D01*
X95971498Y-118214180D01*
X96030463Y-118324494D01*
X96109815Y-118421185D01*
X96206506Y-118500537D01*
X96316820Y-118559502D01*
X96436518Y-118595812D01*
X96561000Y-118608072D01*
X98361000Y-118608072D01*
X98485482Y-118595812D01*
X98605180Y-118559502D01*
X98715494Y-118500537D01*
X98812185Y-118421185D01*
X98891537Y-118324494D01*
X98950502Y-118214180D01*
X98986812Y-118094482D01*
X98999072Y-117970000D01*
X98999072Y-116870000D01*
X98986812Y-116745518D01*
X98950502Y-116625820D01*
X98891537Y-116515506D01*
X98812185Y-116418815D01*
X98715494Y-116339463D01*
X98605180Y-116280498D01*
X98485482Y-116244188D01*
X98361000Y-116231928D01*
X96561000Y-116231928D01*
X96436518Y-116244188D01*
X96316820Y-116280498D01*
X96206506Y-116339463D01*
X96109815Y-116418815D01*
X96030463Y-116515506D01*
X95971498Y-116625820D01*
X95935188Y-116745518D01*
X95922928Y-116870000D01*
X92799072Y-116870000D01*
X92786812Y-116745518D01*
X92750502Y-116625820D01*
X92691537Y-116515506D01*
X92612185Y-116418815D01*
X92515494Y-116339463D01*
X92405180Y-116280498D01*
X92285482Y-116244188D01*
X92161000Y-116231928D01*
X91546750Y-116235000D01*
X91388000Y-116393750D01*
X91134000Y-116393750D01*
X90975250Y-116235000D01*
X90361000Y-116231928D01*
X90236518Y-116244188D01*
X90116820Y-116280498D01*
X90006506Y-116339463D01*
X89909815Y-116418815D01*
X89830463Y-116515506D01*
X89771498Y-116625820D01*
X89735188Y-116745518D01*
X89722928Y-116870000D01*
X88766250Y-116870000D01*
X88766250Y-113170000D01*
X89722928Y-113170000D01*
X89722928Y-114270000D01*
X89735188Y-114394482D01*
X89771498Y-114514180D01*
X89830463Y-114624494D01*
X89909815Y-114721185D01*
X90006506Y-114800537D01*
X90116820Y-114859502D01*
X90236518Y-114895812D01*
X90361000Y-114908072D01*
X92161000Y-114908072D01*
X92285482Y-114895812D01*
X92405180Y-114859502D01*
X92515494Y-114800537D01*
X92612185Y-114721185D01*
X92691537Y-114624494D01*
X92750502Y-114514180D01*
X92786812Y-114394482D01*
X92799072Y-114270000D01*
X92799072Y-113170000D01*
X95922928Y-113170000D01*
X95922928Y-114270000D01*
X95935188Y-114394482D01*
X95971498Y-114514180D01*
X96030463Y-114624494D01*
X96109815Y-114721185D01*
X96206506Y-114800537D01*
X96316820Y-114859502D01*
X96436518Y-114895812D01*
X96561000Y-114908072D01*
X98361000Y-114908072D01*
X98485482Y-114895812D01*
X98605180Y-114859502D01*
X98715494Y-114800537D01*
X98812185Y-114721185D01*
X98891537Y-114624494D01*
X98950502Y-114514180D01*
X98986812Y-114394482D01*
X98999072Y-114270000D01*
X98999072Y-113170000D01*
X98986812Y-113045518D01*
X98950502Y-112925820D01*
X98891537Y-112815506D01*
X98812185Y-112718815D01*
X98715494Y-112639463D01*
X98605180Y-112580498D01*
X98557270Y-112565965D01*
X98571000Y-112496939D01*
X98571000Y-112293061D01*
X98531226Y-112093102D01*
X98530149Y-112090500D01*
X101277928Y-112090500D01*
X101290188Y-112214982D01*
X101326498Y-112334680D01*
X101385463Y-112444994D01*
X101464815Y-112541685D01*
X101561506Y-112621037D01*
X101671820Y-112680002D01*
X101791518Y-112716312D01*
X101916000Y-112728572D01*
X102330250Y-112725500D01*
X102489000Y-112566750D01*
X102489000Y-111730000D01*
X102743000Y-111730000D01*
X102743000Y-112566750D01*
X102901750Y-112725500D01*
X103316000Y-112728572D01*
X103440482Y-112716312D01*
X103560180Y-112680002D01*
X103670494Y-112621037D01*
X103767185Y-112541685D01*
X103846537Y-112444994D01*
X103905502Y-112334680D01*
X103941812Y-112214982D01*
X103954072Y-112090500D01*
X103951000Y-111888750D01*
X103792250Y-111730000D01*
X102743000Y-111730000D01*
X102489000Y-111730000D01*
X101439750Y-111730000D01*
X101281000Y-111888750D01*
X101277928Y-112090500D01*
X98530149Y-112090500D01*
X98453205Y-111904744D01*
X98339937Y-111735226D01*
X98195774Y-111591063D01*
X98026256Y-111477795D01*
X97837898Y-111399774D01*
X97637939Y-111360000D01*
X97434061Y-111360000D01*
X97234102Y-111399774D01*
X97045744Y-111477795D01*
X96876226Y-111591063D01*
X96732063Y-111735226D01*
X96618795Y-111904744D01*
X96540774Y-112093102D01*
X96501000Y-112293061D01*
X96501000Y-112496939D01*
X96508979Y-112537051D01*
X96436518Y-112544188D01*
X96316820Y-112580498D01*
X96206506Y-112639463D01*
X96109815Y-112718815D01*
X96030463Y-112815506D01*
X95971498Y-112925820D01*
X95935188Y-113045518D01*
X95922928Y-113170000D01*
X92799072Y-113170000D01*
X92786812Y-113045518D01*
X92750502Y-112925820D01*
X92691537Y-112815506D01*
X92612185Y-112718815D01*
X92515494Y-112639463D01*
X92405180Y-112580498D01*
X92285482Y-112544188D01*
X92161000Y-112531928D01*
X90361000Y-112531928D01*
X90236518Y-112544188D01*
X90116820Y-112580498D01*
X90006506Y-112639463D01*
X89909815Y-112718815D01*
X89830463Y-112815506D01*
X89771498Y-112925820D01*
X89735188Y-113045518D01*
X89722928Y-113170000D01*
X88766250Y-113170000D01*
X88766250Y-99193000D01*
X89672928Y-99193000D01*
X89672928Y-99943000D01*
X89689992Y-100116254D01*
X89740528Y-100282850D01*
X89822595Y-100436386D01*
X89933038Y-100570962D01*
X90067614Y-100681405D01*
X90221150Y-100763472D01*
X90387746Y-100814008D01*
X90561000Y-100831072D01*
X91811000Y-100831072D01*
X91984254Y-100814008D01*
X92150850Y-100763472D01*
X92304386Y-100681405D01*
X92438962Y-100570962D01*
X92549405Y-100436386D01*
X92631472Y-100282850D01*
X92682008Y-100116254D01*
X92699072Y-99943000D01*
X92699072Y-99193000D01*
X92682008Y-99019746D01*
X92631472Y-98853150D01*
X92549405Y-98699614D01*
X92438962Y-98565038D01*
X92304386Y-98454595D01*
X92150850Y-98372528D01*
X92011500Y-98330257D01*
X92011500Y-92791112D01*
X93040721Y-91761892D01*
X93042528Y-91767850D01*
X93124595Y-91921386D01*
X93235038Y-92055962D01*
X93369614Y-92166405D01*
X93523150Y-92248472D01*
X93689746Y-92299008D01*
X93863000Y-92316072D01*
X95113000Y-92316072D01*
X95286254Y-92299008D01*
X95452850Y-92248472D01*
X95606386Y-92166405D01*
X95740962Y-92055962D01*
X95851405Y-91921386D01*
X95933472Y-91767850D01*
X95984008Y-91601254D01*
X96001072Y-91428000D01*
X96001072Y-90678000D01*
X95995653Y-90622978D01*
X96453500Y-90165130D01*
X96917347Y-90628978D01*
X96911928Y-90684000D01*
X96911928Y-91434000D01*
X96928992Y-91607254D01*
X96979528Y-91773850D01*
X97061595Y-91927386D01*
X97172038Y-92061962D01*
X97306614Y-92172405D01*
X97460150Y-92254472D01*
X97626746Y-92305008D01*
X97800000Y-92322072D01*
X99050000Y-92322072D01*
X99223254Y-92305008D01*
X99389850Y-92254472D01*
X99543386Y-92172405D01*
X99677962Y-92061962D01*
X99788405Y-91927386D01*
X99870472Y-91773850D01*
X99921008Y-91607254D01*
X99938072Y-91434000D01*
X99938072Y-90684000D01*
X99921008Y-90510746D01*
X99870472Y-90344150D01*
X99788405Y-90190614D01*
X99677962Y-90056038D01*
X99543386Y-89945595D01*
X99389850Y-89863528D01*
X99223254Y-89812992D01*
X99050000Y-89795928D01*
X98239559Y-89795928D01*
X98214081Y-89770450D01*
X98219250Y-89771000D01*
X98378000Y-89612250D01*
X98378000Y-89607033D01*
X98402185Y-89587185D01*
X98481537Y-89490494D01*
X98540502Y-89380180D01*
X98576812Y-89260482D01*
X98589072Y-89136000D01*
X98589072Y-86886000D01*
X98576812Y-86761518D01*
X98540502Y-86641820D01*
X98481537Y-86531506D01*
X98402185Y-86434815D01*
X98378000Y-86414967D01*
X98378000Y-86409750D01*
X98624000Y-86409750D01*
X98624000Y-87884000D01*
X98648000Y-87884000D01*
X98648000Y-88138000D01*
X98624000Y-88138000D01*
X98624000Y-89612250D01*
X98782750Y-89771000D01*
X98882361Y-89760404D01*
X99001652Y-89722779D01*
X99111311Y-89662604D01*
X99207123Y-89582193D01*
X99285406Y-89484634D01*
X99341123Y-89377578D01*
X99495866Y-89566134D01*
X99721986Y-89751706D01*
X99979966Y-89889599D01*
X100259889Y-89974513D01*
X100551000Y-90003185D01*
X100842110Y-89974513D01*
X101122033Y-89889599D01*
X101380013Y-89751706D01*
X101606134Y-89566134D01*
X101791706Y-89340014D01*
X101929599Y-89082034D01*
X102014513Y-88802111D01*
X102036000Y-88583950D01*
X102036000Y-87438050D01*
X102014513Y-87219889D01*
X101929599Y-86939966D01*
X101791706Y-86681986D01*
X101606134Y-86455866D01*
X101380014Y-86270294D01*
X101122034Y-86132401D01*
X100842111Y-86047487D01*
X100551000Y-86018815D01*
X100259890Y-86047487D01*
X99979967Y-86132401D01*
X99721987Y-86270294D01*
X99495867Y-86455866D01*
X99341123Y-86644421D01*
X99285406Y-86537366D01*
X99207123Y-86439807D01*
X99111311Y-86359396D01*
X99001652Y-86299221D01*
X98882361Y-86261596D01*
X98782750Y-86251000D01*
X98624000Y-86409750D01*
X98378000Y-86409750D01*
X98219250Y-86251000D01*
X98119639Y-86261596D01*
X98100266Y-86267706D01*
X98075482Y-86260188D01*
X97951000Y-86247928D01*
X97451000Y-86247928D01*
X97326518Y-86260188D01*
X97301000Y-86267929D01*
X97275482Y-86260188D01*
X97151000Y-86247928D01*
X96651000Y-86247928D01*
X96526518Y-86260188D01*
X96501000Y-86267929D01*
X96475482Y-86260188D01*
X96351000Y-86247928D01*
X95851000Y-86247928D01*
X95726518Y-86260188D01*
X95701000Y-86267929D01*
X95675482Y-86260188D01*
X95551000Y-86247928D01*
X95051000Y-86247928D01*
X94926518Y-86260188D01*
X94806820Y-86296498D01*
X94696506Y-86355463D01*
X94599815Y-86434815D01*
X94520463Y-86531506D01*
X94461498Y-86641820D01*
X94460754Y-86644271D01*
X94306134Y-86455866D01*
X94080014Y-86270294D01*
X93822034Y-86132401D01*
X93542111Y-86047487D01*
X93251000Y-86018815D01*
X92959890Y-86047487D01*
X92679967Y-86132401D01*
X92421987Y-86270294D01*
X92195867Y-86455866D01*
X92010294Y-86681986D01*
X91872401Y-86939966D01*
X91787487Y-87219889D01*
X91766000Y-87438050D01*
X91766000Y-88583949D01*
X91787487Y-88802110D01*
X91872401Y-89082033D01*
X92010294Y-89340013D01*
X92195866Y-89566134D01*
X92421986Y-89751706D01*
X92613614Y-89854133D01*
X90630961Y-91836787D01*
X90599460Y-91862639D01*
X90573609Y-91894139D01*
X90496301Y-91988338D01*
X90419647Y-92131747D01*
X90372445Y-92287354D01*
X90356506Y-92449180D01*
X90360501Y-92489740D01*
X90360500Y-98330257D01*
X90221150Y-98372528D01*
X90067614Y-98454595D01*
X89933038Y-98565038D01*
X89822595Y-98699614D01*
X89740528Y-98853150D01*
X89689992Y-99019746D01*
X89672928Y-99193000D01*
X88766250Y-99193000D01*
X88766250Y-84963528D01*
X88817252Y-84443366D01*
X88958944Y-83974062D01*
X89189087Y-83541225D01*
X89498928Y-83161323D01*
X89876647Y-82848847D01*
X90307877Y-82615681D01*
X90776178Y-82470718D01*
X91294403Y-82416250D01*
X91885077Y-82416250D01*
X91872401Y-82439966D01*
X91872401Y-82439966D01*
G37*
X91872401Y-82439966D02*
X91787487Y-82719889D01*
X91766000Y-82938050D01*
X91766000Y-84083949D01*
X91787487Y-84302110D01*
X91872401Y-84582033D01*
X92010294Y-84840013D01*
X92195866Y-85066134D01*
X92421986Y-85251706D01*
X92679966Y-85389599D01*
X92959889Y-85474513D01*
X93251000Y-85503185D01*
X93542110Y-85474513D01*
X93822033Y-85389599D01*
X94080013Y-85251706D01*
X94306134Y-85066134D01*
X94491706Y-84840014D01*
X94629599Y-84582034D01*
X94714513Y-84302111D01*
X94736000Y-84083950D01*
X94736000Y-82938050D01*
X94714513Y-82719889D01*
X94629599Y-82439966D01*
X94616923Y-82416250D01*
X99185077Y-82416250D01*
X99172401Y-82439966D01*
X99087487Y-82719889D01*
X99066000Y-82938050D01*
X99066000Y-84083949D01*
X99087487Y-84302110D01*
X99172401Y-84582033D01*
X99310294Y-84840013D01*
X99495866Y-85066134D01*
X99721986Y-85251706D01*
X99979966Y-85389599D01*
X100259889Y-85474513D01*
X100551000Y-85503185D01*
X100842110Y-85474513D01*
X101122033Y-85389599D01*
X101380013Y-85251706D01*
X101606134Y-85066134D01*
X101791706Y-84840014D01*
X101929599Y-84582034D01*
X102014513Y-84302111D01*
X102036000Y-84083950D01*
X102036000Y-82938050D01*
X102014513Y-82719889D01*
X101929599Y-82439966D01*
X101916923Y-82416250D01*
X127666750Y-82416250D01*
X127666750Y-101379620D01*
X127452620Y-101593750D01*
X127326961Y-101593750D01*
X127422937Y-101497774D01*
X127536205Y-101328256D01*
X127614226Y-101139898D01*
X127654000Y-100939939D01*
X127654000Y-100736061D01*
X127614226Y-100536102D01*
X127536205Y-100347744D01*
X127422937Y-100178226D01*
X127278774Y-100034063D01*
X127109256Y-99920795D01*
X126920898Y-99842774D01*
X126720939Y-99803000D01*
X126517061Y-99803000D01*
X126317102Y-99842774D01*
X126128744Y-99920795D01*
X126049079Y-99974026D01*
X126047792Y-99972458D01*
X126041436Y-99967242D01*
X126119185Y-99903435D01*
X126198537Y-99806744D01*
X126257502Y-99696430D01*
X126293812Y-99576732D01*
X126306072Y-99452250D01*
X126303000Y-99250500D01*
X126144250Y-99091750D01*
X125095000Y-99091750D01*
X125095000Y-99111750D01*
X124841000Y-99111750D01*
X124841000Y-99091750D01*
X123791750Y-99091750D01*
X123661824Y-99221676D01*
X123601434Y-99189397D01*
X123445826Y-99142194D01*
X123324553Y-99130250D01*
X123324550Y-99130250D01*
X123284000Y-99126256D01*
X123243450Y-99130250D01*
X121004000Y-99130250D01*
X121004000Y-99028748D01*
X120845252Y-99028748D01*
X121004000Y-98870000D01*
X120994177Y-98753119D01*
X120957265Y-98633605D01*
X120897746Y-98523589D01*
X120859325Y-98477250D01*
X123629928Y-98477250D01*
X123633000Y-98679000D01*
X123791750Y-98837750D01*
X124841000Y-98837750D01*
X124841000Y-98001000D01*
X125095000Y-98001000D01*
X125095000Y-98837750D01*
X126144250Y-98837750D01*
X126303000Y-98679000D01*
X126306072Y-98477250D01*
X126293812Y-98352768D01*
X126257502Y-98233070D01*
X126198537Y-98122756D01*
X126119185Y-98026065D01*
X126022494Y-97946713D01*
X125912180Y-97887748D01*
X125792482Y-97851438D01*
X125668000Y-97839178D01*
X125253750Y-97842250D01*
X125095000Y-98001000D01*
X124841000Y-98001000D01*
X124682250Y-97842250D01*
X124268000Y-97839178D01*
X124143518Y-97851438D01*
X124023820Y-97887748D01*
X123913506Y-97946713D01*
X123816815Y-98026065D01*
X123737463Y-98122756D01*
X123678498Y-98233070D01*
X123642188Y-98352768D01*
X123629928Y-98477250D01*
X120859325Y-98477250D01*
X120817908Y-98427299D01*
X120720818Y-98348434D01*
X120610208Y-98290026D01*
X120490329Y-98254320D01*
X120365787Y-98242686D01*
X119904750Y-98245750D01*
X119746000Y-98404500D01*
X119746000Y-99028750D01*
X119766000Y-99028750D01*
X119766000Y-99042678D01*
X118869000Y-99042678D01*
X118744518Y-99054938D01*
X118624820Y-99091248D01*
X118514506Y-99150213D01*
X118417815Y-99229565D01*
X118338463Y-99326256D01*
X118326083Y-99349417D01*
X118234000Y-99441500D01*
X118243546Y-99555087D01*
X118243188Y-99556268D01*
X118230928Y-99680750D01*
X118230928Y-100230750D01*
X118243188Y-100355232D01*
X118243345Y-100355750D01*
X118243188Y-100356268D01*
X118230928Y-100480750D01*
X118230928Y-101030750D01*
X118243188Y-101155232D01*
X118243345Y-101155750D01*
X118243188Y-101156268D01*
X118230928Y-101280750D01*
X118230928Y-101830750D01*
X118243188Y-101955232D01*
X118243345Y-101955750D01*
X118243188Y-101956268D01*
X118230928Y-102080750D01*
X118230928Y-102630750D01*
X118243188Y-102755232D01*
X118243345Y-102755750D01*
X118243188Y-102756268D01*
X118230928Y-102880750D01*
X118230928Y-103430750D01*
X118243188Y-103555232D01*
X118243345Y-103555750D01*
X118243188Y-103556268D01*
X118230928Y-103680750D01*
X118230928Y-104230750D01*
X118243188Y-104355232D01*
X118243345Y-104355750D01*
X118243188Y-104356268D01*
X118230928Y-104480750D01*
X118230928Y-105030750D01*
X118243188Y-105155232D01*
X118243345Y-105155750D01*
X118243188Y-105156268D01*
X118230928Y-105280750D01*
X118230928Y-105830750D01*
X118243188Y-105955232D01*
X118243345Y-105955750D01*
X118243188Y-105956268D01*
X118230928Y-106080750D01*
X118230928Y-106630750D01*
X118243188Y-106755232D01*
X118243345Y-106755750D01*
X118243188Y-106756268D01*
X118230928Y-106880750D01*
X118230928Y-107430750D01*
X118234962Y-107471712D01*
X118194000Y-107467678D01*
X117644000Y-107467678D01*
X117519518Y-107479938D01*
X117518337Y-107480296D01*
X117404750Y-107470750D01*
X117312667Y-107562833D01*
X117289506Y-107575213D01*
X117192815Y-107654565D01*
X117119000Y-107744509D01*
X117045185Y-107654565D01*
X116948494Y-107575213D01*
X116925333Y-107562833D01*
X116833250Y-107470750D01*
X116719663Y-107480296D01*
X116718482Y-107479938D01*
X116594000Y-107467678D01*
X116044000Y-107467678D01*
X115919518Y-107479938D01*
X115919000Y-107480095D01*
X115918482Y-107479938D01*
X115794000Y-107467678D01*
X115244000Y-107467678D01*
X115119518Y-107479938D01*
X115119000Y-107480095D01*
X115118482Y-107479938D01*
X114994000Y-107467678D01*
X114444000Y-107467678D01*
X114319518Y-107479938D01*
X114319000Y-107480095D01*
X114318482Y-107479938D01*
X114194000Y-107467678D01*
X113644000Y-107467678D01*
X113519518Y-107479938D01*
X113519000Y-107480095D01*
X113518482Y-107479938D01*
X113394000Y-107467678D01*
X112844000Y-107467678D01*
X112719518Y-107479938D01*
X112719000Y-107480095D01*
X112718482Y-107479938D01*
X112594000Y-107467678D01*
X112044000Y-107467678D01*
X111919518Y-107479938D01*
X111919000Y-107480095D01*
X111918482Y-107479938D01*
X111794000Y-107467678D01*
X111244000Y-107467678D01*
X111119518Y-107479938D01*
X111118337Y-107480296D01*
X111004750Y-107470750D01*
X110912667Y-107562833D01*
X110889506Y-107575213D01*
X110792815Y-107654565D01*
X110719000Y-107744509D01*
X110645185Y-107654565D01*
X110548494Y-107575213D01*
X110525333Y-107562833D01*
X110433250Y-107470750D01*
X110319663Y-107480296D01*
X110318482Y-107479938D01*
X110194000Y-107467678D01*
X109644000Y-107467678D01*
X109603038Y-107471712D01*
X109607072Y-107430750D01*
X109607072Y-106880750D01*
X109594812Y-106756268D01*
X109594655Y-106755750D01*
X109594812Y-106755232D01*
X109607072Y-106630750D01*
X109607072Y-106080750D01*
X109594812Y-105956268D01*
X109594655Y-105955750D01*
X109594812Y-105955232D01*
X109607072Y-105830750D01*
X109607072Y-105280750D01*
X109594812Y-105156268D01*
X109594655Y-105155750D01*
X109594812Y-105155232D01*
X109607072Y-105030750D01*
X109607072Y-104480750D01*
X109594812Y-104356268D01*
X109594454Y-104355087D01*
X109604000Y-104241500D01*
X109511917Y-104149417D01*
X109499537Y-104126256D01*
X109420185Y-104029565D01*
X109330241Y-103955750D01*
X109420185Y-103881935D01*
X109499537Y-103785244D01*
X109511917Y-103762083D01*
X109604000Y-103670000D01*
X109594454Y-103556413D01*
X109594812Y-103555232D01*
X109607072Y-103430750D01*
X109607072Y-102880750D01*
X109594812Y-102756268D01*
X109594655Y-102755750D01*
X109594812Y-102755232D01*
X109607072Y-102630750D01*
X109607072Y-102080750D01*
X109594812Y-101956268D01*
X109594655Y-101955750D01*
X109594812Y-101955232D01*
X109607072Y-101830750D01*
X109607072Y-101280750D01*
X109594812Y-101156268D01*
X109594655Y-101155750D01*
X109594812Y-101155232D01*
X109607072Y-101030750D01*
X109607072Y-100480750D01*
X109594812Y-100356268D01*
X109594655Y-100355750D01*
X109594812Y-100355232D01*
X109607072Y-100230750D01*
X109607072Y-99680750D01*
X109594812Y-99556268D01*
X109594655Y-99555750D01*
X109594812Y-99555232D01*
X109607072Y-99430750D01*
X109607072Y-98880750D01*
X109603038Y-98839788D01*
X109644000Y-98843822D01*
X110194000Y-98843822D01*
X110318482Y-98831562D01*
X110319000Y-98831405D01*
X110319518Y-98831562D01*
X110444000Y-98843822D01*
X110994000Y-98843822D01*
X111118482Y-98831562D01*
X111119000Y-98831405D01*
X111119518Y-98831562D01*
X111244000Y-98843822D01*
X111794000Y-98843822D01*
X111918482Y-98831562D01*
X111919663Y-98831204D01*
X112033250Y-98840750D01*
X112125333Y-98748667D01*
X112148494Y-98736287D01*
X112245185Y-98656935D01*
X112319000Y-98566991D01*
X112392815Y-98656935D01*
X112489506Y-98736287D01*
X112512667Y-98748667D01*
X112604750Y-98840750D01*
X112718337Y-98831204D01*
X112719518Y-98831562D01*
X112844000Y-98843822D01*
X113394000Y-98843822D01*
X113518482Y-98831562D01*
X113519000Y-98831405D01*
X113519518Y-98831562D01*
X113644000Y-98843822D01*
X114194000Y-98843822D01*
X114318482Y-98831562D01*
X114319000Y-98831405D01*
X114319518Y-98831562D01*
X114444000Y-98843822D01*
X114994000Y-98843822D01*
X115118482Y-98831562D01*
X115119000Y-98831405D01*
X115119518Y-98831562D01*
X115244000Y-98843822D01*
X115794000Y-98843822D01*
X115918482Y-98831562D01*
X115919000Y-98831405D01*
X115919518Y-98831562D01*
X116044000Y-98843822D01*
X116594000Y-98843822D01*
X116718482Y-98831562D01*
X116719000Y-98831405D01*
X116719518Y-98831562D01*
X116844000Y-98843822D01*
X117394000Y-98843822D01*
X117518482Y-98831562D01*
X117519000Y-98831405D01*
X117519518Y-98831562D01*
X117644000Y-98843822D01*
X118194000Y-98843822D01*
X118236552Y-98839631D01*
X118234000Y-98870000D01*
X118392750Y-99028750D01*
X119492000Y-99028750D01*
X119492000Y-98404500D01*
X119333250Y-98245750D01*
X118872213Y-98242686D01*
X118828028Y-98246814D01*
X118832072Y-98205750D01*
X118832072Y-96705750D01*
X118819812Y-96581268D01*
X118783502Y-96461570D01*
X118724537Y-96351256D01*
X118645185Y-96254565D01*
X118548494Y-96175213D01*
X118438180Y-96116248D01*
X118318482Y-96079938D01*
X118194000Y-96067678D01*
X117644000Y-96067678D01*
X117519518Y-96079938D01*
X117519000Y-96080095D01*
X117518482Y-96079938D01*
X117394000Y-96067678D01*
X116844000Y-96067678D01*
X116719518Y-96079938D01*
X116719000Y-96080095D01*
X116718482Y-96079938D01*
X116594000Y-96067678D01*
X116044000Y-96067678D01*
X115919518Y-96079938D01*
X115919000Y-96080095D01*
X115918482Y-96079938D01*
X115794000Y-96067678D01*
X115244000Y-96067678D01*
X115119518Y-96079938D01*
X115119000Y-96080095D01*
X115118482Y-96079938D01*
X114994000Y-96067678D01*
X114681000Y-96067678D01*
X114681000Y-93675380D01*
X114773346Y-93583034D01*
X114802422Y-93559172D01*
X114897645Y-93443142D01*
X114922995Y-93395716D01*
X114985482Y-93389562D01*
X115105180Y-93353252D01*
X115215494Y-93294287D01*
X115312185Y-93214935D01*
X115391537Y-93118244D01*
X115450502Y-93007930D01*
X115486812Y-92888232D01*
X115499072Y-92763750D01*
X115499072Y-92282250D01*
X117832797Y-92282250D01*
X117919208Y-92387542D01*
X118052836Y-92497208D01*
X118205291Y-92578697D01*
X118370715Y-92628878D01*
X118542750Y-92645822D01*
X119455250Y-92645822D01*
X119627285Y-92628878D01*
X119792709Y-92578697D01*
X119945164Y-92497208D01*
X120078792Y-92387542D01*
X120188458Y-92253914D01*
X120269947Y-92101459D01*
X120320128Y-91936035D01*
X120337072Y-91764000D01*
X120337072Y-91276500D01*
X120320128Y-91104465D01*
X120269947Y-90939041D01*
X120188458Y-90786586D01*
X120078792Y-90652958D01*
X120072436Y-90647742D01*
X120150185Y-90583935D01*
X120229537Y-90487244D01*
X120288502Y-90376930D01*
X120324812Y-90257232D01*
X120337072Y-90132750D01*
X120334000Y-89931000D01*
X120175250Y-89772250D01*
X119126000Y-89772250D01*
X119126000Y-89792250D01*
X118872000Y-89792250D01*
X118872000Y-89772250D01*
X117822750Y-89772250D01*
X117664000Y-89931000D01*
X117660928Y-90132750D01*
X117673188Y-90257232D01*
X117709498Y-90376930D01*
X117768463Y-90487244D01*
X117847815Y-90583935D01*
X117925564Y-90647742D01*
X117919208Y-90652958D01*
X117832797Y-90758250D01*
X115465572Y-90758250D01*
X115486812Y-90688232D01*
X115499072Y-90563750D01*
X115496000Y-90149500D01*
X115337250Y-89990750D01*
X114388000Y-89990750D01*
X114388000Y-90010750D01*
X114134000Y-90010750D01*
X114134000Y-89990750D01*
X114114000Y-89990750D01*
X114114000Y-89736750D01*
X114134000Y-89736750D01*
X114134000Y-88687500D01*
X114388000Y-88687500D01*
X114388000Y-89736750D01*
X115337250Y-89736750D01*
X115496000Y-89578000D01*
X115499072Y-89163750D01*
X115498482Y-89157750D01*
X117660928Y-89157750D01*
X117664000Y-89359500D01*
X117822750Y-89518250D01*
X118872000Y-89518250D01*
X118872000Y-88681500D01*
X119126000Y-88681500D01*
X119126000Y-89518250D01*
X120175250Y-89518250D01*
X120334000Y-89359500D01*
X120337072Y-89157750D01*
X120324812Y-89033268D01*
X120288502Y-88913570D01*
X120229537Y-88803256D01*
X120150185Y-88706565D01*
X120053494Y-88627213D01*
X119943180Y-88568248D01*
X119823482Y-88531938D01*
X119699000Y-88519678D01*
X119284750Y-88522750D01*
X119126000Y-88681500D01*
X118872000Y-88681500D01*
X118713250Y-88522750D01*
X118299000Y-88519678D01*
X118174518Y-88531938D01*
X118054820Y-88568248D01*
X117944506Y-88627213D01*
X117847815Y-88706565D01*
X117768463Y-88803256D01*
X117709498Y-88913570D01*
X117673188Y-89033268D01*
X117660928Y-89157750D01*
X115498482Y-89157750D01*
X115486812Y-89039268D01*
X115450502Y-88919570D01*
X115391537Y-88809256D01*
X115312185Y-88712565D01*
X115215494Y-88633213D01*
X115105180Y-88574248D01*
X114985482Y-88537938D01*
X114861000Y-88525678D01*
X114546750Y-88528750D01*
X114388000Y-88687500D01*
X114134000Y-88687500D01*
X113975250Y-88528750D01*
X113661000Y-88525678D01*
X113536518Y-88537938D01*
X113416820Y-88574248D01*
X113411000Y-88577359D01*
X113405180Y-88574248D01*
X113285482Y-88537938D01*
X113161000Y-88525678D01*
X111961000Y-88525678D01*
X111836518Y-88537938D01*
X111716820Y-88574248D01*
X111606506Y-88633213D01*
X111509815Y-88712565D01*
X111430463Y-88809256D01*
X111371498Y-88919570D01*
X111335188Y-89039268D01*
X111330315Y-89088750D01*
X107846203Y-89088750D01*
X107759792Y-88983458D01*
X107626164Y-88873792D01*
X107473709Y-88792303D01*
X107308285Y-88742122D01*
X107136250Y-88725178D01*
X106223750Y-88725178D01*
X106051715Y-88742122D01*
X105886291Y-88792303D01*
X105733836Y-88873792D01*
X105600208Y-88983458D01*
X105490542Y-89117086D01*
X105409053Y-89269541D01*
X105358872Y-89434965D01*
X105341928Y-89607000D01*
X105341928Y-90094500D01*
X105343425Y-90109695D01*
X103500654Y-91952466D01*
X103471578Y-91976328D01*
X103430548Y-92026324D01*
X103376355Y-92092358D01*
X103341860Y-92156895D01*
X103305598Y-92224736D01*
X103262026Y-92368373D01*
X103253255Y-92457430D01*
X103247314Y-92517750D01*
X103251000Y-92555174D01*
X103251000Y-92770289D01*
X103209063Y-92812226D01*
X103095795Y-92981744D01*
X103017774Y-93170102D01*
X102978000Y-93370061D01*
X102978000Y-93573939D01*
X103017774Y-93773898D01*
X103095795Y-93962256D01*
X103209063Y-94131774D01*
X103353226Y-94275937D01*
X103522744Y-94389205D01*
X103711102Y-94467226D01*
X103911061Y-94507000D01*
X104114939Y-94507000D01*
X104314898Y-94467226D01*
X104503256Y-94389205D01*
X104672774Y-94275937D01*
X104816937Y-94131774D01*
X104930205Y-93962256D01*
X105008226Y-93773898D01*
X105048000Y-93573939D01*
X105048000Y-93370061D01*
X105008226Y-93170102D01*
X104930205Y-92981744D01*
X104816937Y-92812226D01*
X104806546Y-92801835D01*
X105346698Y-92261682D01*
X105354188Y-92337732D01*
X105390498Y-92457430D01*
X105449463Y-92567744D01*
X105528815Y-92664435D01*
X105625506Y-92743787D01*
X105735820Y-92802752D01*
X105855518Y-92839062D01*
X105980000Y-92851322D01*
X106394250Y-92848250D01*
X106553000Y-92689500D01*
X106553000Y-91852750D01*
X106807000Y-91852750D01*
X106807000Y-92689500D01*
X106965750Y-92848250D01*
X107380000Y-92851322D01*
X107504482Y-92839062D01*
X107624180Y-92802752D01*
X107734494Y-92743787D01*
X107831185Y-92664435D01*
X107910537Y-92567744D01*
X107969502Y-92457430D01*
X108005812Y-92337732D01*
X108018072Y-92213250D01*
X108015000Y-92011500D01*
X107856250Y-91852750D01*
X106807000Y-91852750D01*
X106553000Y-91852750D01*
X106533000Y-91852750D01*
X106533000Y-91598750D01*
X106553000Y-91598750D01*
X106553000Y-91578750D01*
X106807000Y-91578750D01*
X106807000Y-91598750D01*
X107856250Y-91598750D01*
X108015000Y-91440000D01*
X108018072Y-91238250D01*
X108005812Y-91113768D01*
X107969502Y-90994070D01*
X107910537Y-90883756D01*
X107831185Y-90787065D01*
X107753436Y-90723258D01*
X107759792Y-90718042D01*
X107846203Y-90612750D01*
X111327754Y-90612750D01*
X111335188Y-90688232D01*
X111371498Y-90807930D01*
X111430463Y-90918244D01*
X111467809Y-90963750D01*
X111430463Y-91009256D01*
X111371498Y-91119570D01*
X111335188Y-91239268D01*
X111322928Y-91363750D01*
X111326000Y-91778000D01*
X111484750Y-91936750D01*
X112434000Y-91936750D01*
X112434000Y-91916750D01*
X112688000Y-91916750D01*
X112688000Y-91936750D01*
X112708000Y-91936750D01*
X112708000Y-92190750D01*
X112688000Y-92190750D01*
X112688000Y-92210750D01*
X112434000Y-92210750D01*
X112434000Y-92190750D01*
X111484750Y-92190750D01*
X111326000Y-92349500D01*
X111322928Y-92763750D01*
X111335188Y-92888232D01*
X111371498Y-93007930D01*
X111430463Y-93118244D01*
X111509815Y-93214935D01*
X111606506Y-93294287D01*
X111716820Y-93353252D01*
X111836518Y-93389562D01*
X111961000Y-93401822D01*
X112164099Y-93399837D01*
X112134823Y-93547019D01*
X112134823Y-93589573D01*
X112079250Y-93534000D01*
X111877500Y-93530928D01*
X111753018Y-93543188D01*
X111633320Y-93579498D01*
X111523006Y-93638463D01*
X111426315Y-93717815D01*
X111362508Y-93795564D01*
X111357292Y-93789208D01*
X111223664Y-93679542D01*
X111071209Y-93598053D01*
X110905785Y-93547872D01*
X110733750Y-93530928D01*
X110246250Y-93530928D01*
X110074215Y-93547872D01*
X109908791Y-93598053D01*
X109756336Y-93679542D01*
X109622708Y-93789208D01*
X109513042Y-93922836D01*
X109448546Y-94043500D01*
X106926503Y-94043500D01*
X106789256Y-93951795D01*
X106600898Y-93873774D01*
X106400939Y-93834000D01*
X106197061Y-93834000D01*
X105997102Y-93873774D01*
X105808744Y-93951795D01*
X105639226Y-94065063D01*
X105495063Y-94209226D01*
X105381795Y-94378744D01*
X105303774Y-94567102D01*
X105264000Y-94767061D01*
X105264000Y-94970939D01*
X105303774Y-95170898D01*
X105381795Y-95359256D01*
X105495063Y-95528774D01*
X105538279Y-95571990D01*
X101477433Y-95571990D01*
X101440010Y-95568304D01*
X101402587Y-95571990D01*
X101402584Y-95571990D01*
X101290632Y-95583016D01*
X101146995Y-95626588D01*
X101014618Y-95697345D01*
X100898588Y-95792568D01*
X100874722Y-95821648D01*
X100700650Y-95995720D01*
X100671579Y-96019578D01*
X100651538Y-96043999D01*
X100498150Y-96090528D01*
X100344614Y-96172595D01*
X100210038Y-96283038D01*
X100099595Y-96417614D01*
X100017528Y-96571150D01*
X99966992Y-96737746D01*
X99952306Y-96886860D01*
X99931256Y-96872795D01*
X99742898Y-96794774D01*
X99542939Y-96755000D01*
X99339061Y-96755000D01*
X99139102Y-96794774D01*
X98950744Y-96872795D01*
X98781226Y-96986063D01*
X98709979Y-97057311D01*
X97663000Y-96010332D01*
X97663000Y-95692630D01*
X98208177Y-95147453D01*
X98239104Y-95122072D01*
X99050000Y-95122072D01*
X99223254Y-95105008D01*
X99389850Y-95054472D01*
X99543386Y-94972405D01*
X99677962Y-94861962D01*
X99788405Y-94727386D01*
X99870472Y-94573850D01*
X99921008Y-94407254D01*
X99938072Y-94234000D01*
X99938072Y-93484000D01*
X99921008Y-93310746D01*
X99870472Y-93144150D01*
X99788405Y-92990614D01*
X99677962Y-92856038D01*
X99543386Y-92745595D01*
X99389850Y-92663528D01*
X99223254Y-92612992D01*
X99050000Y-92595928D01*
X97800000Y-92595928D01*
X97626746Y-92612992D01*
X97460150Y-92663528D01*
X97306614Y-92745595D01*
X97172038Y-92856038D01*
X97061595Y-92990614D01*
X96979528Y-93144150D01*
X96928992Y-93310746D01*
X96911928Y-93484000D01*
X96911928Y-94234000D01*
X96916809Y-94283561D01*
X96455888Y-94744482D01*
X96426422Y-94708578D01*
X96397353Y-94684722D01*
X95995653Y-94283022D01*
X96001072Y-94228000D01*
X96001072Y-93478000D01*
X95984008Y-93304746D01*
X95933472Y-93138150D01*
X95851405Y-92984614D01*
X95740962Y-92850038D01*
X95606386Y-92739595D01*
X95452850Y-92657528D01*
X95286254Y-92606992D01*
X95113000Y-92589928D01*
X93863000Y-92589928D01*
X93689746Y-92606992D01*
X93523150Y-92657528D01*
X93369614Y-92739595D01*
X93235038Y-92850038D01*
X93124595Y-92984614D01*
X93042528Y-93138150D01*
X92991992Y-93304746D01*
X92974928Y-93478000D01*
X92974928Y-94228000D01*
X92991992Y-94401254D01*
X93042528Y-94567850D01*
X93124595Y-94721386D01*
X93235038Y-94855962D01*
X93369614Y-94966405D01*
X93523150Y-95048472D01*
X93689746Y-95099008D01*
X93863000Y-95116072D01*
X94673441Y-95116072D01*
X95123000Y-95565631D01*
X95123001Y-96863567D01*
X95119314Y-96901000D01*
X95134027Y-97050378D01*
X95177599Y-97194015D01*
X95248355Y-97326392D01*
X95287570Y-97374175D01*
X95343579Y-97442422D01*
X95372649Y-97466279D01*
X103974471Y-106068102D01*
X103998328Y-106097172D01*
X104027398Y-106121029D01*
X104114357Y-106192395D01*
X104185114Y-106230215D01*
X104246735Y-106263152D01*
X104390372Y-106306724D01*
X104502324Y-106317750D01*
X104502327Y-106317750D01*
X104503237Y-106317840D01*
X104502000Y-106324061D01*
X104502000Y-106527939D01*
X104541774Y-106727898D01*
X104619795Y-106916256D01*
X104733063Y-107085774D01*
X104877226Y-107229937D01*
X105046744Y-107343205D01*
X105235102Y-107421226D01*
X105435061Y-107461000D01*
X105638939Y-107461000D01*
X105838898Y-107421226D01*
X106027256Y-107343205D01*
X106196774Y-107229937D01*
X106245461Y-107181250D01*
X106830928Y-107181250D01*
X106830928Y-107430750D01*
X106843188Y-107555232D01*
X106879498Y-107674930D01*
X106938463Y-107785244D01*
X107017815Y-107881935D01*
X107114506Y-107961287D01*
X107224820Y-108020252D01*
X107344518Y-108056562D01*
X107469000Y-108068822D01*
X108969000Y-108068822D01*
X109009962Y-108064788D01*
X109005928Y-108105750D01*
X109005928Y-109605750D01*
X109018188Y-109730232D01*
X109054498Y-109849930D01*
X109093500Y-109922897D01*
X109093501Y-111132819D01*
X109038648Y-111077966D01*
X109012791Y-111046459D01*
X108887092Y-110943301D01*
X108743684Y-110866647D01*
X108588076Y-110819444D01*
X108466803Y-110807500D01*
X108466800Y-110807500D01*
X108426250Y-110803506D01*
X108385700Y-110807500D01*
X105727500Y-110807500D01*
X105727500Y-109741608D01*
X105731494Y-109701058D01*
X105727500Y-109660505D01*
X105715556Y-109539232D01*
X105668353Y-109383624D01*
X105630184Y-109312215D01*
X105591699Y-109240215D01*
X105514392Y-109146016D01*
X105514389Y-109146013D01*
X105488541Y-109114517D01*
X105457046Y-109088670D01*
X103607839Y-107239465D01*
X103581982Y-107207958D01*
X103456283Y-107104800D01*
X103312875Y-107028146D01*
X103157267Y-106980943D01*
X103035994Y-106968999D01*
X103035991Y-106968999D01*
X102995441Y-106965005D01*
X102954891Y-106968999D01*
X96954432Y-106968999D01*
X92699072Y-102713640D01*
X92699072Y-101993000D01*
X92682008Y-101819746D01*
X92631472Y-101653150D01*
X92549405Y-101499614D01*
X92438962Y-101365038D01*
X92304386Y-101254595D01*
X92150850Y-101172528D01*
X91984254Y-101121992D01*
X91811000Y-101104928D01*
X90561000Y-101104928D01*
X90387746Y-101121992D01*
X90221150Y-101172528D01*
X90067614Y-101254595D01*
X89933038Y-101365038D01*
X89822595Y-101499614D01*
X89740528Y-101653150D01*
X89689992Y-101819746D01*
X89672928Y-101993000D01*
X89672928Y-102743000D01*
X89689992Y-102916254D01*
X89740528Y-103082850D01*
X89822595Y-103236386D01*
X89933038Y-103370962D01*
X90067614Y-103481405D01*
X90221150Y-103563472D01*
X90387746Y-103614008D01*
X90561000Y-103631072D01*
X91281640Y-103631072D01*
X96000106Y-108349539D01*
X96025958Y-108381040D01*
X96092467Y-108435622D01*
X96151655Y-108484197D01*
X96151657Y-108484198D01*
X96295065Y-108560852D01*
X96450673Y-108608055D01*
X96571946Y-108619999D01*
X96571955Y-108619999D01*
X96612498Y-108623992D01*
X96653041Y-108619999D01*
X101581000Y-108619999D01*
X101581000Y-108686939D01*
X101604428Y-108804721D01*
X101536208Y-108860708D01*
X101426542Y-108994336D01*
X101345053Y-109146791D01*
X101294872Y-109312215D01*
X101277928Y-109484250D01*
X101277928Y-109971750D01*
X101294872Y-110143785D01*
X101345053Y-110309209D01*
X101426542Y-110461664D01*
X101536208Y-110595292D01*
X101542564Y-110600508D01*
X101464815Y-110664315D01*
X101385463Y-110761006D01*
X101326498Y-110871320D01*
X101290188Y-110991018D01*
X101277928Y-111115500D01*
X101281000Y-111317250D01*
X101439750Y-111476000D01*
X102489000Y-111476000D01*
X102489000Y-111456000D01*
X102743000Y-111456000D01*
X102743000Y-111476000D01*
X103792250Y-111476000D01*
X103951000Y-111317250D01*
X103954072Y-111115500D01*
X103941812Y-110991018D01*
X103905502Y-110871320D01*
X103846537Y-110761006D01*
X103767185Y-110664315D01*
X103689436Y-110600508D01*
X103695792Y-110595292D01*
X103805458Y-110461664D01*
X103886947Y-110309209D01*
X103937128Y-110143785D01*
X103954072Y-109971750D01*
X103954072Y-109920564D01*
X104076500Y-110042992D01*
X104076501Y-111592437D01*
X104072506Y-111633000D01*
X104088444Y-111794826D01*
X104135647Y-111950434D01*
X104212301Y-112093842D01*
X104315459Y-112219541D01*
X104441158Y-112322699D01*
X104584566Y-112399353D01*
X104740174Y-112446556D01*
X104861447Y-112458500D01*
X104902000Y-112462494D01*
X104942553Y-112458500D01*
X108084318Y-112458500D01*
X108221428Y-112595610D01*
X108221428Y-113010000D01*
X108238372Y-113182035D01*
X108288553Y-113347459D01*
X108370042Y-113499914D01*
X108479708Y-113633542D01*
X108521500Y-113667840D01*
X108521501Y-114307496D01*
X108429795Y-114444744D01*
X108351774Y-114633102D01*
X108312000Y-114833061D01*
X108312000Y-115036939D01*
X108351774Y-115236898D01*
X108429795Y-115425256D01*
X108543063Y-115594774D01*
X108687226Y-115738937D01*
X108856744Y-115852205D01*
X109045102Y-115930226D01*
X109245061Y-115970000D01*
X109448939Y-115970000D01*
X109648898Y-115930226D01*
X109837256Y-115852205D01*
X110006774Y-115738937D01*
X110150937Y-115594774D01*
X110264205Y-115425256D01*
X110342226Y-115236898D01*
X110382000Y-115036939D01*
X110382000Y-114833061D01*
X110342226Y-114633102D01*
X110264205Y-114444744D01*
X110172500Y-114307497D01*
X110172500Y-113667840D01*
X110214292Y-113633542D01*
X110219508Y-113627186D01*
X110283315Y-113704935D01*
X110380006Y-113784287D01*
X110490320Y-113843252D01*
X110610018Y-113879562D01*
X110734500Y-113891822D01*
X110936250Y-113888750D01*
X111095000Y-113730000D01*
X111095000Y-112680750D01*
X111349000Y-112680750D01*
X111349000Y-113730000D01*
X111507750Y-113888750D01*
X111709500Y-113891822D01*
X111833982Y-113879562D01*
X111953680Y-113843252D01*
X112063994Y-113784287D01*
X112160685Y-113704935D01*
X112240037Y-113608244D01*
X112299002Y-113497930D01*
X112335312Y-113378232D01*
X112347572Y-113253750D01*
X115363428Y-113253750D01*
X115375688Y-113378232D01*
X115411998Y-113497930D01*
X115470963Y-113608244D01*
X115550315Y-113704935D01*
X115647006Y-113784287D01*
X115757320Y-113843252D01*
X115877018Y-113879562D01*
X116001500Y-113891822D01*
X116203250Y-113888750D01*
X116362000Y-113730000D01*
X116362000Y-112680750D01*
X115525250Y-112680750D01*
X115366500Y-112839500D01*
X115363428Y-113253750D01*
X112347572Y-113253750D01*
X112344500Y-112839500D01*
X112185750Y-112680750D01*
X111349000Y-112680750D01*
X111095000Y-112680750D01*
X111075000Y-112680750D01*
X111075000Y-112426750D01*
X111095000Y-112426750D01*
X111095000Y-111377500D01*
X111349000Y-111377500D01*
X111349000Y-112426750D01*
X112185750Y-112426750D01*
X112344500Y-112268000D01*
X112347572Y-111853750D01*
X115363428Y-111853750D01*
X115366500Y-112268000D01*
X115525250Y-112426750D01*
X116362000Y-112426750D01*
X116362000Y-111377500D01*
X116203250Y-111218750D01*
X116001500Y-111215678D01*
X115877018Y-111227938D01*
X115757320Y-111264248D01*
X115647006Y-111323213D01*
X115550315Y-111402565D01*
X115470963Y-111499256D01*
X115411998Y-111609570D01*
X115375688Y-111729268D01*
X115363428Y-111853750D01*
X112347572Y-111853750D01*
X112335312Y-111729268D01*
X112299002Y-111609570D01*
X112240037Y-111499256D01*
X112160685Y-111402565D01*
X112063994Y-111323213D01*
X111953680Y-111264248D01*
X111833982Y-111227938D01*
X111709500Y-111215678D01*
X111507750Y-111218750D01*
X111349000Y-111377500D01*
X111095000Y-111377500D01*
X110936250Y-111218750D01*
X110744500Y-111215830D01*
X110744500Y-110240750D01*
X110846002Y-110240750D01*
X110846002Y-110100584D01*
X110889506Y-110136287D01*
X110912667Y-110148667D01*
X111004750Y-110240750D01*
X111118337Y-110231204D01*
X111119518Y-110231562D01*
X111244000Y-110243822D01*
X111794000Y-110243822D01*
X111918482Y-110231562D01*
X111919000Y-110231405D01*
X111919518Y-110231562D01*
X112044000Y-110243822D01*
X112594000Y-110243822D01*
X112718482Y-110231562D01*
X112719000Y-110231405D01*
X112719518Y-110231562D01*
X112844000Y-110243822D01*
X113394000Y-110243822D01*
X113518482Y-110231562D01*
X113519000Y-110231405D01*
X113519518Y-110231562D01*
X113644000Y-110243822D01*
X114194000Y-110243822D01*
X114318482Y-110231562D01*
X114319000Y-110231405D01*
X114319518Y-110231562D01*
X114444000Y-110243822D01*
X114994000Y-110243822D01*
X115118482Y-110231562D01*
X115119000Y-110231405D01*
X115119518Y-110231562D01*
X115244000Y-110243822D01*
X115794000Y-110243822D01*
X115918482Y-110231562D01*
X115919000Y-110231405D01*
X115919518Y-110231562D01*
X116044000Y-110243822D01*
X116594000Y-110243822D01*
X116718482Y-110231562D01*
X116719663Y-110231204D01*
X116833250Y-110240750D01*
X116925333Y-110148667D01*
X116948494Y-110136287D01*
X116991998Y-110100584D01*
X116991998Y-110240750D01*
X117093500Y-110240750D01*
X117093501Y-111227201D01*
X116976500Y-111215678D01*
X116774750Y-111218750D01*
X116616000Y-111377500D01*
X116616000Y-112426750D01*
X116636000Y-112426750D01*
X116636000Y-112680750D01*
X116616000Y-112680750D01*
X116616000Y-113730000D01*
X116774750Y-113888750D01*
X116976500Y-113891822D01*
X117100982Y-113879562D01*
X117220680Y-113843252D01*
X117330994Y-113784287D01*
X117427685Y-113704935D01*
X117491492Y-113627186D01*
X117496708Y-113633542D01*
X117630336Y-113743208D01*
X117782791Y-113824697D01*
X117948215Y-113874878D01*
X118120250Y-113891822D01*
X118566389Y-113891822D01*
X119622572Y-114948005D01*
X119654774Y-115109898D01*
X119732795Y-115298256D01*
X119846063Y-115467774D01*
X119990226Y-115611937D01*
X120159744Y-115725205D01*
X120348102Y-115803226D01*
X120548061Y-115843000D01*
X120751939Y-115843000D01*
X120951898Y-115803226D01*
X121140256Y-115725205D01*
X121309774Y-115611937D01*
X121453937Y-115467774D01*
X121567205Y-115298256D01*
X121645226Y-115109898D01*
X121685000Y-114909939D01*
X121685000Y-114706061D01*
X121645226Y-114506102D01*
X121567205Y-114317744D01*
X121453937Y-114148226D01*
X121309774Y-114004063D01*
X121140256Y-113890795D01*
X120951898Y-113812774D01*
X120790005Y-113780572D01*
X120670433Y-113661000D01*
X122565928Y-113661000D01*
X122578188Y-113785482D01*
X122614498Y-113905180D01*
X122673463Y-114015494D01*
X122752815Y-114112185D01*
X122849506Y-114191537D01*
X122959820Y-114250502D01*
X123079518Y-114286812D01*
X123204000Y-114299072D01*
X123793250Y-114296000D01*
X123952000Y-114137250D01*
X123952000Y-113163000D01*
X124206000Y-113163000D01*
X124206000Y-114137250D01*
X124364750Y-114296000D01*
X124954000Y-114299072D01*
X125078482Y-114286812D01*
X125198180Y-114250502D01*
X125308494Y-114191537D01*
X125405185Y-114112185D01*
X125484537Y-114015494D01*
X125543502Y-113905180D01*
X125579812Y-113785482D01*
X125592072Y-113661000D01*
X125589000Y-113321750D01*
X125430250Y-113163000D01*
X124206000Y-113163000D01*
X123952000Y-113163000D01*
X122727750Y-113163000D01*
X122569000Y-113321750D01*
X122565928Y-113661000D01*
X120670433Y-113661000D01*
X119489572Y-112480140D01*
X119489572Y-112411000D01*
X122565928Y-112411000D01*
X122569000Y-112750250D01*
X122727750Y-112909000D01*
X123952000Y-112909000D01*
X123952000Y-111934750D01*
X124206000Y-111934750D01*
X124206000Y-112909000D01*
X125430250Y-112909000D01*
X125589000Y-112750250D01*
X125592072Y-112411000D01*
X125579812Y-112286518D01*
X125543502Y-112166820D01*
X125484537Y-112056506D01*
X125405185Y-111959815D01*
X125308494Y-111880463D01*
X125198180Y-111821498D01*
X125078482Y-111785188D01*
X124954000Y-111772928D01*
X124364750Y-111776000D01*
X124206000Y-111934750D01*
X123952000Y-111934750D01*
X123793250Y-111776000D01*
X123204000Y-111772928D01*
X123079518Y-111785188D01*
X122959820Y-111821498D01*
X122849506Y-111880463D01*
X122752815Y-111959815D01*
X122673463Y-112056506D01*
X122614498Y-112166820D01*
X122578188Y-112286518D01*
X122565928Y-112411000D01*
X119489572Y-112411000D01*
X119489572Y-112097500D01*
X119472628Y-111925465D01*
X119422447Y-111760041D01*
X119340958Y-111607586D01*
X119231292Y-111473958D01*
X119097664Y-111364292D01*
X118945209Y-111282803D01*
X118779785Y-111232622D01*
X118744500Y-111229147D01*
X118744500Y-109922896D01*
X118783502Y-109849930D01*
X118819812Y-109730232D01*
X118832072Y-109605750D01*
X118832072Y-108105750D01*
X118828038Y-108064788D01*
X118869000Y-108068822D01*
X120369000Y-108068822D01*
X120493482Y-108056562D01*
X120613180Y-108020252D01*
X120723494Y-107961287D01*
X120725231Y-107959861D01*
X122571347Y-109805978D01*
X122565928Y-109861000D01*
X122565928Y-110611000D01*
X122582992Y-110784254D01*
X122633528Y-110950850D01*
X122715595Y-111104386D01*
X122826038Y-111238962D01*
X122960614Y-111349405D01*
X123114150Y-111431472D01*
X123280746Y-111482008D01*
X123454000Y-111499072D01*
X124704000Y-111499072D01*
X124877254Y-111482008D01*
X125043850Y-111431472D01*
X125197386Y-111349405D01*
X125331962Y-111238962D01*
X125442405Y-111104386D01*
X125524472Y-110950850D01*
X125574744Y-110785125D01*
X127666750Y-112877131D01*
X127666750Y-119990000D01*
X91313528Y-119990000D01*
X90793367Y-119938998D01*
X90324064Y-119797307D01*
X89891222Y-119567161D01*
X89511323Y-119257323D01*
X89198844Y-118879600D01*
X88965681Y-118448373D01*
X88820718Y-117980073D01*
X88819660Y-117970000D01*
X89722928Y-117970000D01*
X89735188Y-118094482D01*
X89771498Y-118214180D01*
X89830463Y-118324494D01*
X89909815Y-118421185D01*
X90006506Y-118500537D01*
X90116820Y-118559502D01*
X90236518Y-118595812D01*
X90361000Y-118608072D01*
X90975250Y-118605000D01*
X91134000Y-118446250D01*
X91134000Y-117547000D01*
X91388000Y-117547000D01*
X91388000Y-118446250D01*
X91546750Y-118605000D01*
X92161000Y-118608072D01*
X92285482Y-118595812D01*
X92405180Y-118559502D01*
X92515494Y-118500537D01*
X92612185Y-118421185D01*
X92691537Y-118324494D01*
X92750502Y-118214180D01*
X92786812Y-118094482D01*
X92799072Y-117970000D01*
X92796000Y-117705750D01*
X92637250Y-117547000D01*
X91388000Y-117547000D01*
X91134000Y-117547000D01*
X89884750Y-117547000D01*
X89726000Y-117705750D01*
X89722928Y-117970000D01*
X88819660Y-117970000D01*
X88766250Y-117461847D01*
X88766250Y-116870000D01*
X89722928Y-116870000D01*
X89726000Y-117134250D01*
X89884750Y-117293000D01*
X91134000Y-117293000D01*
X91134000Y-116393750D01*
X91388000Y-116393750D01*
X91388000Y-117293000D01*
X92637250Y-117293000D01*
X92796000Y-117134250D01*
X92799072Y-116870000D01*
X95922928Y-116870000D01*
X95922928Y-117970000D01*
X95935188Y-118094482D01*
X95971498Y-118214180D01*
X96030463Y-118324494D01*
X96109815Y-118421185D01*
X96206506Y-118500537D01*
X96316820Y-118559502D01*
X96436518Y-118595812D01*
X96561000Y-118608072D01*
X98361000Y-118608072D01*
X98485482Y-118595812D01*
X98605180Y-118559502D01*
X98715494Y-118500537D01*
X98812185Y-118421185D01*
X98891537Y-118324494D01*
X98950502Y-118214180D01*
X98986812Y-118094482D01*
X98999072Y-117970000D01*
X98999072Y-116870000D01*
X98986812Y-116745518D01*
X98950502Y-116625820D01*
X98891537Y-116515506D01*
X98812185Y-116418815D01*
X98715494Y-116339463D01*
X98605180Y-116280498D01*
X98485482Y-116244188D01*
X98361000Y-116231928D01*
X96561000Y-116231928D01*
X96436518Y-116244188D01*
X96316820Y-116280498D01*
X96206506Y-116339463D01*
X96109815Y-116418815D01*
X96030463Y-116515506D01*
X95971498Y-116625820D01*
X95935188Y-116745518D01*
X95922928Y-116870000D01*
X92799072Y-116870000D01*
X92786812Y-116745518D01*
X92750502Y-116625820D01*
X92691537Y-116515506D01*
X92612185Y-116418815D01*
X92515494Y-116339463D01*
X92405180Y-116280498D01*
X92285482Y-116244188D01*
X92161000Y-116231928D01*
X91546750Y-116235000D01*
X91388000Y-116393750D01*
X91134000Y-116393750D01*
X90975250Y-116235000D01*
X90361000Y-116231928D01*
X90236518Y-116244188D01*
X90116820Y-116280498D01*
X90006506Y-116339463D01*
X89909815Y-116418815D01*
X89830463Y-116515506D01*
X89771498Y-116625820D01*
X89735188Y-116745518D01*
X89722928Y-116870000D01*
X88766250Y-116870000D01*
X88766250Y-113170000D01*
X89722928Y-113170000D01*
X89722928Y-114270000D01*
X89735188Y-114394482D01*
X89771498Y-114514180D01*
X89830463Y-114624494D01*
X89909815Y-114721185D01*
X90006506Y-114800537D01*
X90116820Y-114859502D01*
X90236518Y-114895812D01*
X90361000Y-114908072D01*
X92161000Y-114908072D01*
X92285482Y-114895812D01*
X92405180Y-114859502D01*
X92515494Y-114800537D01*
X92612185Y-114721185D01*
X92691537Y-114624494D01*
X92750502Y-114514180D01*
X92786812Y-114394482D01*
X92799072Y-114270000D01*
X92799072Y-113170000D01*
X95922928Y-113170000D01*
X95922928Y-114270000D01*
X95935188Y-114394482D01*
X95971498Y-114514180D01*
X96030463Y-114624494D01*
X96109815Y-114721185D01*
X96206506Y-114800537D01*
X96316820Y-114859502D01*
X96436518Y-114895812D01*
X96561000Y-114908072D01*
X98361000Y-114908072D01*
X98485482Y-114895812D01*
X98605180Y-114859502D01*
X98715494Y-114800537D01*
X98812185Y-114721185D01*
X98891537Y-114624494D01*
X98950502Y-114514180D01*
X98986812Y-114394482D01*
X98999072Y-114270000D01*
X98999072Y-113170000D01*
X98986812Y-113045518D01*
X98950502Y-112925820D01*
X98891537Y-112815506D01*
X98812185Y-112718815D01*
X98715494Y-112639463D01*
X98605180Y-112580498D01*
X98557270Y-112565965D01*
X98571000Y-112496939D01*
X98571000Y-112293061D01*
X98531226Y-112093102D01*
X98530149Y-112090500D01*
X101277928Y-112090500D01*
X101290188Y-112214982D01*
X101326498Y-112334680D01*
X101385463Y-112444994D01*
X101464815Y-112541685D01*
X101561506Y-112621037D01*
X101671820Y-112680002D01*
X101791518Y-112716312D01*
X101916000Y-112728572D01*
X102330250Y-112725500D01*
X102489000Y-112566750D01*
X102489000Y-111730000D01*
X102743000Y-111730000D01*
X102743000Y-112566750D01*
X102901750Y-112725500D01*
X103316000Y-112728572D01*
X103440482Y-112716312D01*
X103560180Y-112680002D01*
X103670494Y-112621037D01*
X103767185Y-112541685D01*
X103846537Y-112444994D01*
X103905502Y-112334680D01*
X103941812Y-112214982D01*
X103954072Y-112090500D01*
X103951000Y-111888750D01*
X103792250Y-111730000D01*
X102743000Y-111730000D01*
X102489000Y-111730000D01*
X101439750Y-111730000D01*
X101281000Y-111888750D01*
X101277928Y-112090500D01*
X98530149Y-112090500D01*
X98453205Y-111904744D01*
X98339937Y-111735226D01*
X98195774Y-111591063D01*
X98026256Y-111477795D01*
X97837898Y-111399774D01*
X97637939Y-111360000D01*
X97434061Y-111360000D01*
X97234102Y-111399774D01*
X97045744Y-111477795D01*
X96876226Y-111591063D01*
X96732063Y-111735226D01*
X96618795Y-111904744D01*
X96540774Y-112093102D01*
X96501000Y-112293061D01*
X96501000Y-112496939D01*
X96508979Y-112537051D01*
X96436518Y-112544188D01*
X96316820Y-112580498D01*
X96206506Y-112639463D01*
X96109815Y-112718815D01*
X96030463Y-112815506D01*
X95971498Y-112925820D01*
X95935188Y-113045518D01*
X95922928Y-113170000D01*
X92799072Y-113170000D01*
X92786812Y-113045518D01*
X92750502Y-112925820D01*
X92691537Y-112815506D01*
X92612185Y-112718815D01*
X92515494Y-112639463D01*
X92405180Y-112580498D01*
X92285482Y-112544188D01*
X92161000Y-112531928D01*
X90361000Y-112531928D01*
X90236518Y-112544188D01*
X90116820Y-112580498D01*
X90006506Y-112639463D01*
X89909815Y-112718815D01*
X89830463Y-112815506D01*
X89771498Y-112925820D01*
X89735188Y-113045518D01*
X89722928Y-113170000D01*
X88766250Y-113170000D01*
X88766250Y-99193000D01*
X89672928Y-99193000D01*
X89672928Y-99943000D01*
X89689992Y-100116254D01*
X89740528Y-100282850D01*
X89822595Y-100436386D01*
X89933038Y-100570962D01*
X90067614Y-100681405D01*
X90221150Y-100763472D01*
X90387746Y-100814008D01*
X90561000Y-100831072D01*
X91811000Y-100831072D01*
X91984254Y-100814008D01*
X92150850Y-100763472D01*
X92304386Y-100681405D01*
X92438962Y-100570962D01*
X92549405Y-100436386D01*
X92631472Y-100282850D01*
X92682008Y-100116254D01*
X92699072Y-99943000D01*
X92699072Y-99193000D01*
X92682008Y-99019746D01*
X92631472Y-98853150D01*
X92549405Y-98699614D01*
X92438962Y-98565038D01*
X92304386Y-98454595D01*
X92150850Y-98372528D01*
X92011500Y-98330257D01*
X92011500Y-92791112D01*
X93040721Y-91761892D01*
X93042528Y-91767850D01*
X93124595Y-91921386D01*
X93235038Y-92055962D01*
X93369614Y-92166405D01*
X93523150Y-92248472D01*
X93689746Y-92299008D01*
X93863000Y-92316072D01*
X95113000Y-92316072D01*
X95286254Y-92299008D01*
X95452850Y-92248472D01*
X95606386Y-92166405D01*
X95740962Y-92055962D01*
X95851405Y-91921386D01*
X95933472Y-91767850D01*
X95984008Y-91601254D01*
X96001072Y-91428000D01*
X96001072Y-90678000D01*
X95995653Y-90622978D01*
X96453500Y-90165130D01*
X96917347Y-90628978D01*
X96911928Y-90684000D01*
X96911928Y-91434000D01*
X96928992Y-91607254D01*
X96979528Y-91773850D01*
X97061595Y-91927386D01*
X97172038Y-92061962D01*
X97306614Y-92172405D01*
X97460150Y-92254472D01*
X97626746Y-92305008D01*
X97800000Y-92322072D01*
X99050000Y-92322072D01*
X99223254Y-92305008D01*
X99389850Y-92254472D01*
X99543386Y-92172405D01*
X99677962Y-92061962D01*
X99788405Y-91927386D01*
X99870472Y-91773850D01*
X99921008Y-91607254D01*
X99938072Y-91434000D01*
X99938072Y-90684000D01*
X99921008Y-90510746D01*
X99870472Y-90344150D01*
X99788405Y-90190614D01*
X99677962Y-90056038D01*
X99543386Y-89945595D01*
X99389850Y-89863528D01*
X99223254Y-89812992D01*
X99050000Y-89795928D01*
X98239559Y-89795928D01*
X98214081Y-89770450D01*
X98219250Y-89771000D01*
X98378000Y-89612250D01*
X98378000Y-89607033D01*
X98402185Y-89587185D01*
X98481537Y-89490494D01*
X98540502Y-89380180D01*
X98576812Y-89260482D01*
X98589072Y-89136000D01*
X98589072Y-86886000D01*
X98576812Y-86761518D01*
X98540502Y-86641820D01*
X98481537Y-86531506D01*
X98402185Y-86434815D01*
X98378000Y-86414967D01*
X98378000Y-86409750D01*
X98624000Y-86409750D01*
X98624000Y-87884000D01*
X98648000Y-87884000D01*
X98648000Y-88138000D01*
X98624000Y-88138000D01*
X98624000Y-89612250D01*
X98782750Y-89771000D01*
X98882361Y-89760404D01*
X99001652Y-89722779D01*
X99111311Y-89662604D01*
X99207123Y-89582193D01*
X99285406Y-89484634D01*
X99341123Y-89377578D01*
X99495866Y-89566134D01*
X99721986Y-89751706D01*
X99979966Y-89889599D01*
X100259889Y-89974513D01*
X100551000Y-90003185D01*
X100842110Y-89974513D01*
X101122033Y-89889599D01*
X101380013Y-89751706D01*
X101606134Y-89566134D01*
X101791706Y-89340014D01*
X101929599Y-89082034D01*
X102014513Y-88802111D01*
X102036000Y-88583950D01*
X102036000Y-87438050D01*
X102014513Y-87219889D01*
X101929599Y-86939966D01*
X101791706Y-86681986D01*
X101606134Y-86455866D01*
X101380014Y-86270294D01*
X101122034Y-86132401D01*
X100842111Y-86047487D01*
X100551000Y-86018815D01*
X100259890Y-86047487D01*
X99979967Y-86132401D01*
X99721987Y-86270294D01*
X99495867Y-86455866D01*
X99341123Y-86644421D01*
X99285406Y-86537366D01*
X99207123Y-86439807D01*
X99111311Y-86359396D01*
X99001652Y-86299221D01*
X98882361Y-86261596D01*
X98782750Y-86251000D01*
X98624000Y-86409750D01*
X98378000Y-86409750D01*
X98219250Y-86251000D01*
X98119639Y-86261596D01*
X98100266Y-86267706D01*
X98075482Y-86260188D01*
X97951000Y-86247928D01*
X97451000Y-86247928D01*
X97326518Y-86260188D01*
X97301000Y-86267929D01*
X97275482Y-86260188D01*
X97151000Y-86247928D01*
X96651000Y-86247928D01*
X96526518Y-86260188D01*
X96501000Y-86267929D01*
X96475482Y-86260188D01*
X96351000Y-86247928D01*
X95851000Y-86247928D01*
X95726518Y-86260188D01*
X95701000Y-86267929D01*
X95675482Y-86260188D01*
X95551000Y-86247928D01*
X95051000Y-86247928D01*
X94926518Y-86260188D01*
X94806820Y-86296498D01*
X94696506Y-86355463D01*
X94599815Y-86434815D01*
X94520463Y-86531506D01*
X94461498Y-86641820D01*
X94460754Y-86644271D01*
X94306134Y-86455866D01*
X94080014Y-86270294D01*
X93822034Y-86132401D01*
X93542111Y-86047487D01*
X93251000Y-86018815D01*
X92959890Y-86047487D01*
X92679967Y-86132401D01*
X92421987Y-86270294D01*
X92195867Y-86455866D01*
X92010294Y-86681986D01*
X91872401Y-86939966D01*
X91787487Y-87219889D01*
X91766000Y-87438050D01*
X91766000Y-88583949D01*
X91787487Y-88802110D01*
X91872401Y-89082033D01*
X92010294Y-89340013D01*
X92195866Y-89566134D01*
X92421986Y-89751706D01*
X92613614Y-89854133D01*
X90630961Y-91836787D01*
X90599460Y-91862639D01*
X90573609Y-91894139D01*
X90496301Y-91988338D01*
X90419647Y-92131747D01*
X90372445Y-92287354D01*
X90356506Y-92449180D01*
X90360501Y-92489740D01*
X90360500Y-98330257D01*
X90221150Y-98372528D01*
X90067614Y-98454595D01*
X89933038Y-98565038D01*
X89822595Y-98699614D01*
X89740528Y-98853150D01*
X89689992Y-99019746D01*
X89672928Y-99193000D01*
X88766250Y-99193000D01*
X88766250Y-84963528D01*
X88817252Y-84443366D01*
X88958944Y-83974062D01*
X89189087Y-83541225D01*
X89498928Y-83161323D01*
X89876647Y-82848847D01*
X90307877Y-82615681D01*
X90776178Y-82470718D01*
X91294403Y-82416250D01*
X91885077Y-82416250D01*
X91872401Y-82439966D01*
G36*
X112492000Y-94742000D02*
G01*
X112512000Y-94742000D01*
X112512000Y-94996000D01*
X112492000Y-94996000D01*
X112492000Y-95952596D01*
X112482355Y-95964348D01*
X112425483Y-96070750D01*
X112344500Y-96070750D01*
X112344500Y-95938550D01*
X112348494Y-95898000D01*
X112343601Y-95848318D01*
X112332556Y-95736174D01*
X112285353Y-95580566D01*
X112240838Y-95497285D01*
X112238000Y-95491975D01*
X112238000Y-94996000D01*
X112218000Y-94996000D01*
X112218000Y-94742000D01*
X112238000Y-94742000D01*
X112238000Y-94722000D01*
X112492000Y-94722000D01*
X112492000Y-94742000D01*
X112492000Y-94742000D01*
G37*
X112492000Y-94742000D02*
X112512000Y-94742000D01*
X112512000Y-94996000D01*
X112492000Y-94996000D01*
X112492000Y-95952596D01*
X112482355Y-95964348D01*
X112425483Y-96070750D01*
X112344500Y-96070750D01*
X112344500Y-95938550D01*
X112348494Y-95898000D01*
X112343601Y-95848318D01*
X112332556Y-95736174D01*
X112285353Y-95580566D01*
X112240838Y-95497285D01*
X112238000Y-95491975D01*
X112238000Y-94996000D01*
X112218000Y-94996000D01*
X112218000Y-94742000D01*
X112238000Y-94742000D01*
X112238000Y-94722000D01*
X112492000Y-94722000D01*
X112492000Y-94742000D01*
M02*
